<svg width="36" height="35" viewBox="0 0 36 35" fill="none" xmlns="http://www.w3.org/2000/svg">
  <path fill-rule="evenodd" clip-rule="evenodd" d="M17.9434 0C27.6845 0 35.5 7.81553 35.5 17.4434C35.5 27.1845 27.6845 35 17.9434 35C8.31553 35 0.5 27.1845 0.5 17.4434C0.5 7.81553 8.31553 0 17.9434 0ZM22.2476 20.8414C20.322 23.3333 16.8107 23.7864 14.432 21.8608C12.0534 20.0485 11.7136 16.5372 13.6392 14.0453C15.678 11.6667 19.1893 11.2136 21.568 13.0259C23.9466 14.9515 24.2864 18.4628 22.2476 20.8414ZM12.9595 32.2816L19.6424 25.8252C17.1505 26.3916 14.5453 25.9385 12.5065 24.2395C10.1278 22.4272 9.10841 19.3689 9.44822 16.5372L3.44498 23.1068C3.44498 23.1068 2.6521 21.6343 2.42557 18.9159L12.9595 10.6472C16.1311 8.38188 20.4353 8.26861 23.4935 10.6472C26.8916 13.3657 27.5712 18.3495 25.0793 22.0874L17.377 33.0744C16.2443 33.0744 13.979 32.7346 12.9595 32.2816Z" fill="#00B3E0"/>
</svg>
