<svg width="30" height="35" viewBox="0 0 30 35" fill="none" xmlns="http://www.w3.org/2000/svg">
  <path d="M30 0L27.2669 31.4963L14.9816 35L2.73018 31.5013L0 0H30Z" fill="#264DE4"/>
  <path d="M24.9271 29.4908L27.2627 2.5757H15V32.322L24.9271 29.4908Z" fill="#2965F1"/>
  <path d="M6.25889 14.2591L6.5955 18.1225H15V14.2591H6.25889Z" fill="#EBEBEB"/>
  <path d="M15 6.4392H14.987H5.58253L5.92393 10.3027H15V6.4392Z" fill="#EBEBEB"/>
  <path d="M15 28.3126V24.2929L14.9835 24.2974L10.8008 23.1356L10.5334 20.0542H6.7633L7.28947 26.1205L14.9827 28.3175L15 28.3126Z" fill="#EBEBEB"/>
  <path d="M19.6117 18.1225L19.1758 23.1332L14.987 24.2962V28.3157L22.6864 26.1205L23.6254 15.2965L23.7171 14.259L24.3951 6.4392H14.987L14.987 10.3027H20.2792L19.9374 14.259H14.987V18.1225H19.6117Z" fill="white"/>
</svg>
