<svg width="49" height="35" viewBox="0 0 49 35" fill="none" xmlns="http://www.w3.org/2000/svg">
  <path d="M48.5167 13.2123C48.3838 13.1073 47.1432 12.1748 44.527 12.1748C43.8361 12.1778 43.1467 12.2368 42.4655 12.3512C41.9591 8.89641 39.0897 7.212 38.961 7.13644L38.2585 6.73315L37.7964 7.39685C37.2178 8.28841 36.7953 9.27123 36.5474 10.3035C36.0789 12.2757 36.3638 14.128 37.3702 15.7116C36.1549 16.3857 34.2054 16.5517 33.8109 16.5663H1.53383C0.690762 16.5675 0.00665297 17.2457 0.00205841 18.0848C-0.0355895 20.8995 0.443479 23.6973 1.41567 26.3407C2.52756 29.2432 4.18173 31.3812 6.33384 32.6896C8.74543 34.1598 12.6635 34.9999 17.1048 34.9999C19.1112 35.0061 21.1138 34.8254 23.0864 34.4601C25.8284 33.9589 28.467 33.0049 30.8929 31.6374C32.8918 30.4851 34.6908 29.0193 36.2204 27.2963C38.7776 24.4148 40.301 21.2056 41.4339 18.3536H41.8854C44.6852 18.3536 46.407 17.2384 47.3564 16.3038C47.9873 15.7078 48.4799 14.9817 48.7995 14.1763L49 13.5925L48.5167 13.2123Z" fill="#2496ED"/>
  <path d="M4.52566 15.6255H8.85092C9.05952 15.6255 9.22856 15.4571 9.22856 15.2496V11.4145C9.22973 11.2069 9.06158 11.0377 8.85304 11.0365C8.85236 11.0365 8.8516 11.0365 8.85092 11.0365H4.52566C4.31705 11.0365 4.14801 11.2048 4.14801 11.4124V11.4145V15.2495C4.14801 15.4571 4.31705 15.6255 4.52566 15.6255V15.6255Z" fill="#2496ED"/>
  <path d="M10.4861 15.6255H14.8114C15.02 15.6255 15.189 15.4571 15.189 15.2496V11.4145C15.1902 11.2069 15.022 11.0377 14.8134 11.0365C14.8127 11.0365 14.812 11.0365 14.8113 11.0365H10.486C10.2763 11.0365 10.1063 11.2057 10.1063 11.4145V15.2495C10.1075 15.4575 10.2772 15.6255 10.4861 15.6255" fill="#2496ED"/>
  <path d="M16.5372 15.6255H20.8625C21.0711 15.6255 21.2401 15.4571 21.2401 15.2496V11.4145C21.2413 11.2069 21.0731 11.0377 20.8645 11.0365C20.8638 11.0365 20.8631 11.0365 20.8624 11.0365H16.5371C16.3285 11.0365 16.1595 11.2048 16.1595 11.4124V11.4145V15.2495C16.1596 15.4571 16.3287 15.6255 16.5372 15.6255V15.6255Z" fill="#2496ED"/>
  <path d="M22.5166 15.6255H26.8419C27.0508 15.6255 27.2205 15.4576 27.2217 15.2496V11.4145C27.2217 11.2057 27.0517 11.0365 26.8419 11.0365H22.5166C22.308 11.0365 22.139 11.2048 22.139 11.4124V11.4145V15.2495C22.139 15.4571 22.3081 15.6255 22.5166 15.6255V15.6255Z" fill="#2496ED"/>
  <path d="M10.4861 10.1083H14.8114C15.0202 10.1072 15.189 9.93821 15.189 9.73029V5.89532C15.189 5.68767 15.0199 5.51941 14.8114 5.51941H10.4861C10.2772 5.51941 10.1075 5.68733 10.1063 5.89532V9.73029C10.1075 9.93862 10.2768 10.1072 10.4861 10.1083Z" fill="#2496ED"/>
  <path d="M16.5372 10.1083H20.8625C21.0713 10.1072 21.2401 9.93821 21.2401 9.73029V5.89532C21.2401 5.68767 21.071 5.51941 20.8625 5.51941H16.5372C16.3286 5.51941 16.1595 5.68774 16.1595 5.89532V9.73029C16.1595 9.93821 16.3283 10.1072 16.5372 10.1083Z" fill="#2496ED"/>
  <path d="M22.5166 10.1083H26.8419C27.0512 10.1072 27.2205 9.93862 27.2217 9.73029V5.89532C27.2205 5.68733 27.0508 5.51941 26.8419 5.51941H22.5166C22.308 5.51941 22.139 5.68774 22.139 5.89532V9.73029C22.139 9.93821 22.3077 10.1072 22.5166 10.1083Z" fill="#2496ED"/>
  <path d="M22.5166 4.58897H26.8419C27.0508 4.58897 27.2205 4.42098 27.2217 4.21306V0.375913C27.2205 0.167922 27.0508 0 26.8419 0H22.5166C22.308 0 22.139 0.168263 22.139 0.375913V4.21299C22.139 4.42064 22.3081 4.58897 22.5166 4.58897Z" fill="#2496ED"/>
  <path d="M28.5488 15.6255H32.8741C33.083 15.6255 33.2527 15.4576 33.2538 15.2496V11.4145C33.2538 11.2057 33.0838 11.0365 32.8741 11.0365H28.5488C28.3403 11.0365 28.1711 11.2048 28.1711 11.4124V11.4145V15.2495C28.1711 15.4571 28.3403 15.6255 28.5488 15.6255" fill="#2496ED"/>
</svg>
