<svg width="40" height="35" viewBox="0 0 40 35" fill="none" xmlns="http://www.w3.org/2000/svg">
  <path d="M12.182 12.5396L19.771 8.17513C19.8644 8.12143 19.9703 8.09316 20.0781 8.09316C20.1858 8.09316 20.2917 8.12143 20.3851 8.17513L27.9741 12.5396C28.0675 12.5933 28.145 12.6705 28.1988 12.7635C28.2527 12.8564 28.2811 12.9619 28.2812 13.0692V21.7981C28.2812 22.0165 28.164 22.2183 27.9741 22.3278L20.3851 26.6922C20.2917 26.7459 20.1858 26.7742 20.0781 26.7742C19.9703 26.7742 19.8644 26.7459 19.771 26.6922L12.182 22.3278C12.0886 22.2741 12.0111 22.1969 11.9572 22.1039C11.9033 22.0109 11.875 21.9055 11.8749 21.7981V13.0691C11.8751 12.8505 11.9921 12.649 12.182 12.5396Z" fill="#8080F2"/>
  <path d="M39.7526 16.7184L30.6754 0.988314C30.3457 0.419605 29.7366 0 29.0773 0H10.9227C10.2634 0 9.65398 0.419605 9.3243 0.988314L0.247266 16.6837C-0.0824219 17.2525 -0.0824219 17.9705 0.247266 18.5394L9.3243 34.1406C9.65398 34.7093 10.2634 35 10.9227 35H29.0771C29.7365 35 30.3457 34.718 30.6752 34.1491L39.7524 18.5226C40.0824 17.954 40.0826 17.2871 39.7526 16.7184ZM32.2362 24.2825C32.2362 24.5136 32.0965 24.7276 31.8952 24.8434L20.3329 31.4881C20.2333 31.545 20.1206 31.5748 20.0059 31.5748C19.8911 31.5748 19.7784 31.545 19.6788 31.4881L8.10758 24.8434C7.90648 24.7276 7.7657 24.5138 7.7657 24.2823V10.9925C7.7657 10.7611 7.90445 10.5474 8.1057 10.4316L19.6674 3.78672C19.7669 3.72981 19.8796 3.69986 19.9944 3.69986C20.1091 3.69986 20.2218 3.72981 20.3213 3.78672L31.8932 10.4316C32.0946 10.5474 32.2362 10.7611 32.2362 10.9925V24.2825Z" fill="#4B32C3"/>
</svg>
