<svg width="24" height="35" viewBox="0 0 24 35" fill="none" xmlns="http://www.w3.org/2000/svg">
  <path d="M6.25 35C9.424 35 12 32.3867 12 29.1667V23.3334H6.25C3.076 23.3334 0.5 25.9467 0.5 29.1667C0.5 32.3867 3.076 35 6.25 35Z" fill="#0ACF83"/>
  <path d="M0.5 17.5C0.5 14.28 3.076 11.6666 6.25 11.6666H12V23.3334H6.25C3.076 23.3334 0.5 20.72 0.5 17.5Z" fill="#A259FF"/>
  <path d="M0.5 5.83333C0.5 2.61333 3.076 0 6.25 0H12V11.6666H6.25C3.076 11.6666 0.5 9.05333 0.5 5.83333Z" fill="#F24E1E"/>
  <path d="M12 0H17.75C20.924 0 23.5 2.61333 23.5 5.83333C23.5 9.05333 20.924 11.6667 17.75 11.6667L12 11.6666V0Z" fill="#FF7262"/>
  <path d="M23.5 17.5C23.5 20.72 20.924 23.3333 17.75 23.3333C14.576 23.3333 12 20.72 12 17.5C12 14.28 14.576 11.6667 17.75 11.6667C20.924 11.6667 23.5 14.28 23.5 17.5Z" fill="#1ABCFE"/>
</svg>
