<svg width="36" height="35" viewBox="0 0 36 35" fill="none" xmlns="http://www.w3.org/2000/svg">
  <path d="M18.0001 0C8.06019 0 0 8.03322 0 17.943C0 25.8708 5.15756 32.5966 12.3096 34.9692C13.2091 35.1352 13.5395 34.5799 13.5395 34.106C13.5395 33.6782 13.5227 32.2646 13.5151 30.7653C8.50728 31.8507 7.45061 28.6483 7.45061 28.6483C6.63181 26.5743 5.45204 26.0229 5.45204 26.0229C3.81897 24.9093 5.57514 24.9321 5.57514 24.9321C7.3827 25.0587 8.33448 26.7812 8.33448 26.7812C9.93988 29.5243 12.5453 28.7312 13.5725 28.2728C13.734 27.113 14.2006 26.3216 14.7153 25.8735C10.7173 25.4197 6.51436 23.8811 6.51436 17.0059C6.51436 15.047 7.21753 13.4463 8.36907 12.1898C8.18216 11.7378 7.56609 9.91287 8.54342 7.44134C8.54342 7.44134 10.0549 6.95908 13.4947 9.2806C14.9304 8.88291 16.4703 8.68365 18.0001 8.67689C19.5298 8.68365 21.0708 8.88291 22.5094 9.2806C25.9451 6.95908 27.4545 7.44134 27.4545 7.44134C28.4342 9.91287 27.8178 11.7378 27.6309 12.1898C28.785 13.4463 29.4834 15.0469 29.4834 17.0059C29.4834 23.8974 25.2725 25.415 21.2644 25.8591C21.91 26.416 22.4852 27.508 22.4852 29.1819C22.4852 31.5827 22.4643 33.5149 22.4643 34.106C22.4643 34.5835 22.7883 35.143 23.7009 34.9668C30.8489 32.5915 36 25.8681 36 17.943C36 8.03322 27.9409 0 18.0001 0Z" fill="#161614"/>
  <path d="M6.74159 25.5603C6.70206 25.6493 6.56117 25.6761 6.43313 25.615C6.30255 25.5565 6.22914 25.4349 6.27149 25.3454C6.31031 25.2536 6.4512 25.228 6.5815 25.2896C6.71237 25.348 6.78691 25.4708 6.74159 25.5603ZM7.62702 26.3477C7.54119 26.4271 7.37333 26.3902 7.25941 26.2649C7.14167 26.1398 7.11965 25.9726 7.20675 25.8919C7.29527 25.8127 7.45804 25.8497 7.57606 25.975C7.6938 26.1015 7.71681 26.2675 7.62702 26.3477ZM8.23448 27.3553C8.12409 27.4317 7.94367 27.3601 7.83228 27.2005C7.72203 27.0411 7.72203 26.8497 7.83468 26.773C7.94649 26.6963 8.12409 26.7653 8.23702 26.9236C8.34714 27.0858 8.34728 27.2771 8.23448 27.3553ZM9.26165 28.5224C9.16297 28.6307 8.95291 28.6017 8.79903 28.4537C8.64176 28.309 8.59786 28.1037 8.69682 27.9952C8.79663 27.8866 9.00796 27.9171 9.16297 28.0639C9.31925 28.2083 9.36682 28.4151 9.26165 28.5224ZM10.5892 28.9164C10.5459 29.0568 10.3434 29.1207 10.1396 29.061C9.93603 28.9995 9.80276 28.8349 9.84384 28.6929C9.88619 28.5515 10.0895 28.4849 10.2949 28.5488C10.4982 28.61 10.6316 28.7734 10.5892 28.9164ZM12.1003 29.0834C12.1054 29.2315 11.9325 29.3542 11.7185 29.3568C11.5032 29.3615 11.3291 29.2417 11.3268 29.0962C11.3268 28.9468 11.4958 28.8252 11.711 28.8217C11.925 28.8175 12.1003 28.9364 12.1003 29.0834ZM13.5846 29.0267C13.6103 29.1711 13.4615 29.3194 13.249 29.3588C13.0401 29.3968 12.8467 29.3077 12.82 29.1646C12.794 29.0166 12.9457 28.8684 13.1542 28.83C13.3671 28.7931 13.5575 28.8799 13.5846 29.0267Z" fill="#161614"/>
</svg>
