<svg width="38" height="35" viewBox="0 0 38 35" fill="none" xmlns="http://www.w3.org/2000/svg">
  <path d="M19 35L25.9969 13.4687H12.003L19 35Z" fill="#E24329"/>
  <path d="M19 35L12.003 13.4687L2.19714 13.4685L19 35Z" fill="#FC6D26"/>
  <path d="M2.19714 13.4685L0.0709134 20.0118C-0.0236251 20.3027 -0.0236381 20.6161 0.0708761 20.907C0.16539 21.1979 0.34958 21.4514 0.597047 21.6312L19 35L2.19714 13.4685Z" fill="#FCA326"/>
  <path d="M2.19714 13.4685L12.003 13.4687L7.789 0.500427C7.57212 -0.166883 6.62799 -0.166735 6.41127 0.500427L2.19714 13.4685Z" fill="#E24329"/>
  <path d="M19 35L25.9969 13.4687L35.8029 13.4685L19 35Z" fill="#FC6D26"/>
  <path d="M35.8029 13.4685L37.9291 20.0118C38.0236 20.3027 38.0236 20.6161 37.9291 20.907C37.8345 21.1979 37.6503 21.4514 37.4028 21.6312L19 35L35.8029 13.4685Z" fill="#FCA326"/>
  <path d="M35.8029 13.4685L25.9969 13.4687L30.2111 0.500427C30.4279 -0.166883 31.3721 -0.166735 31.5888 0.500427L35.8029 13.4685Z" fill="#E24329"/>
</svg>
