<svg width="35" height="35" viewBox="0 0 35 35" fill="none" xmlns="http://www.w3.org/2000/svg">
  <path d="M35 0H0V35H35V0Z" fill="#F7DF1E"/>
  <path d="M23.5111 27.3439C24.2161 28.495 25.1333 29.3411 26.7555 29.3411C28.1183 29.3411 28.9889 28.66 28.9889 27.7189C28.9889 26.5911 28.0944 26.1917 26.5944 25.5356L25.7722 25.1828C23.3989 24.1717 21.8222 22.905 21.8222 20.2272C21.8222 17.7606 23.7017 15.8828 26.6389 15.8828C28.73 15.8828 30.2333 16.6106 31.3167 18.5161L28.7555 20.1606C28.1917 19.1495 27.5833 18.7511 26.6389 18.7511C25.6755 18.7511 25.065 19.3622 25.065 20.1606C25.065 21.1472 25.6761 21.5467 27.0872 22.1578L27.9094 22.51C30.7039 23.7083 32.2817 24.93 32.2817 27.6767C32.2817 30.6378 29.9555 32.26 26.8317 32.26C23.7772 32.26 21.8039 30.8045 20.8383 28.8967L23.5111 27.3439ZM11.8928 27.6289C12.4094 28.5456 12.8794 29.3206 14.0094 29.3206C15.09 29.3206 15.7717 28.8978 15.7717 27.2539V16.0706H19.0605V27.2983C19.0605 30.7039 17.0639 32.2539 14.1494 32.2539C11.5161 32.2539 9.9911 30.8911 9.21555 29.2497L11.8928 27.6289Z" fill="black"/>
</svg>
