<svg width="32" height="35" viewBox="0 0 32 35" fill="none" xmlns="http://www.w3.org/2000/svg">
  <path d="M29.9965 17.2325C29.9965 15.4334 28.5237 13.9748 26.707 13.9748C26.5901 13.9748 26.4749 13.981 26.3612 13.9929L30.8793 0.79566H11.6788L16.1907 13.9813C16.1241 13.9772 16.0574 13.975 15.9907 13.9749C14.174 13.9749 12.7012 15.4332 12.7012 17.2326C12.7012 18.6869 13.6636 19.9182 14.9918 20.3371C14.2903 21.5405 13.4076 22.6245 12.4053 23.561C11.0424 24.8342 9.48271 25.7998 7.79577 26.3947C5.78726 25.3728 4.83886 23.1003 5.6946 21.1078C5.79127 20.8828 5.88994 20.6547 5.98423 20.4277C7.43927 20.0913 8.52366 18.7995 8.52366 17.256C8.52366 15.4567 7.05084 13.9982 5.23405 13.9982C3.41725 13.9982 1.94456 15.4567 1.94456 17.256C1.94456 18.3593 2.49877 19.3339 3.34613 19.9232C2.53196 21.759 1.33512 23.6804 0.962216 25.9073C0.515311 28.576 0.960713 31.4089 3.29141 33.0088C8.71938 36.7345 14.6114 30.6991 20.8238 29.1818C23.0752 28.6321 25.5466 28.7206 27.5302 27.5829C29.0198 26.7285 30.0019 25.3124 30.2805 23.7227C30.556 22.1523 30.1545 20.5886 29.2314 19.3207C29.7267 18.7355 29.9976 17.9961 29.9965 17.2325Z" fill="#99425B"/>
  <path d="M29.489 23.5866C29.2471 24.9668 28.3863 26.1723 27.1276 26.8944C25.9542 27.5674 24.5481 27.7683 23.0593 27.9809C22.2618 28.0947 21.4371 28.2127 20.6314 28.4093C18.5012 28.9296 16.4378 29.9446 14.4426 30.9261C10.4494 32.8905 7.00087 34.5867 3.7492 32.3547C1.36729 30.7199 1.47724 27.695 1.75472 26.0375C2.01192 24.5018 2.70726 23.0874 3.37955 21.7197C3.49409 21.4873 3.60771 21.2544 3.7204 21.021C4.0593 21.1552 4.4149 21.2436 4.77762 21.2837C4.09317 23.5207 5.16955 25.9531 7.42862 27.1024L7.73791 27.2598L8.06523 27.1443C9.85122 26.5143 11.497 25.5036 12.9566 24.1397C13.9002 23.2581 14.7115 22.2827 15.3782 21.2405C15.581 21.2708 15.7857 21.286 15.9907 21.286C18.0642 21.286 19.7812 19.7509 20.0469 17.7682C20.8956 17.7375 21.7971 17.7372 22.6507 17.768C22.9161 19.7509 24.6334 21.2862 26.7069 21.2862C27.5739 21.2862 28.3781 21.0171 29.0406 20.56C29.5005 21.4924 29.6722 22.5415 29.489 23.5866ZM5.23417 14.7938C6.60506 14.7938 7.72025 15.8984 7.72025 17.2561C7.72025 17.7437 7.57575 18.1984 7.32769 18.5814C6.91447 19.2197 6.212 19.6572 5.40496 19.7117C5.34849 19.7154 5.29152 19.7182 5.23417 19.7182C4.92863 19.7182 4.636 19.663 4.3654 19.5628C3.82043 19.3598 3.36406 18.9749 3.07502 18.4743C2.8604 18.1035 2.74763 17.6835 2.74795 17.2561C2.74795 15.8984 3.86327 14.7938 5.23417 14.7938ZM13.5047 17.2326C13.5047 15.9991 14.4255 14.9749 15.6218 14.7978C15.7423 14.7798 15.8655 14.7705 15.9908 14.7705C16.7878 14.7705 17.4974 15.1444 17.9525 15.7238C18.0665 15.8683 18.1638 16.0249 18.2427 16.1907C18.3973 16.5167 18.4772 16.8725 18.4769 17.2326C18.4769 17.4294 18.4529 17.6208 18.4087 17.8043C18.1664 18.8088 17.3015 19.5767 16.2416 19.6823C16.1592 19.6905 16.0756 19.6947 15.9908 19.6947C15.5126 19.6951 15.0446 19.5581 14.6435 19.3003C13.959 18.8611 13.5047 18.0986 13.5047 17.2326ZM23.881 14.3047C23.3399 14.8162 22.9506 15.4645 22.7551 16.1794C21.818 16.1452 20.88 16.1452 19.943 16.1794C19.7326 15.4066 19.2966 14.7248 18.7099 14.2069L21.2825 9.05525L23.881 14.3047ZM12.7994 1.59155H29.7586L25.753 13.2913C25.5806 13.3322 25.4112 13.3842 25.2457 13.447L21.2888 5.45287L17.3206 13.3992C17.1476 13.3404 16.9709 13.2932 16.7915 13.258L12.7994 1.59155ZM29.193 17.2328C29.193 17.4795 29.1558 17.7179 29.0873 17.943C28.9248 18.4729 28.5873 18.9334 28.129 19.2507C27.7124 19.5402 27.2158 19.6953 26.7069 19.6949C25.559 19.6949 24.5907 18.9202 24.3059 17.871C24.2494 17.6629 24.2208 17.4483 24.2208 17.2328C24.2208 16.8962 24.2894 16.5753 24.4134 16.2828C24.4774 16.1332 24.5561 15.9902 24.6485 15.856C25.0959 15.202 25.8509 14.7707 26.7069 14.7707C26.7854 14.7707 26.8628 14.7746 26.9395 14.7818C28.2017 14.8983 29.193 15.9527 29.193 17.2328ZM30.7999 17.2328C30.7999 15.2538 29.3601 13.6026 27.4638 13.2499L32 0H10.5582L15.1014 13.2767C13.2709 13.6801 11.8979 15.3001 11.8979 17.2326C11.8979 18.6838 12.6723 19.9584 13.8328 20.6747C13.2746 21.4983 12.6127 22.2734 11.8541 22.9823C10.651 24.1062 9.31078 24.9586 7.86588 25.5195C6.41047 24.6141 5.79527 22.9066 6.43414 21.4192L6.57814 21.0839C8.17668 20.5317 9.32706 19.025 9.32706 17.2561C9.32706 15.0209 7.49098 13.2025 5.23417 13.2025C2.97735 13.2025 1.14102 15.0209 1.14102 17.2561C1.14102 18.3842 1.60934 19.4058 2.36291 20.1414C2.22236 20.4363 2.07969 20.7302 1.93491 21.0231C1.24583 22.4246 0.464969 24.013 0.169578 25.7771C-0.416945 29.2804 0.529206 32.0809 2.83385 33.6627C4.23229 34.6225 5.65252 35 7.08164 35C9.77259 35 12.4948 33.6611 15.1574 32.3513C17.0748 31.4082 19.0577 30.4328 21.0162 29.9544C21.745 29.7764 22.4948 29.6693 23.2887 29.5559C24.863 29.331 26.4909 29.0985 27.9329 28.2714C29.6044 27.3126 30.7486 25.7042 31.0721 23.8589C31.3499 22.2747 31.0157 20.6879 30.2005 19.3422C30.5933 18.7074 30.8008 17.9773 30.7999 17.2328Z" fill="white"/>
</svg>
