<svg width="32" height="35" viewBox="0 0 32 35" fill="none" xmlns="http://www.w3.org/2000/svg">
  <path d="M14.5562 0.373401C15.4306 -0.123344 16.5694 -0.125588 17.4431 0.373401C21.8381 2.8383 26.2346 5.29934 30.6289 7.76574C31.4555 8.22783 32.0083 9.1408 31.9999 10.086V24.9158C32.0061 25.9002 31.3986 26.835 30.5266 27.2866C26.1459 29.738 21.7676 32.1923 17.3877 34.6436C16.4952 35.15 15.3335 35.111 14.4689 34.563C13.1556 33.8074 11.84 33.0555 10.5266 32.3006C10.2582 32.1418 9.95565 32.0154 9.76613 31.7571C9.93367 31.533 10.2332 31.505 10.4766 31.4072C11.0248 31.2342 11.5283 30.9564 12.0319 30.6869C12.1593 30.6004 12.3148 30.6336 12.4368 30.711C13.5599 31.3501 14.673 32.0078 15.7998 32.6408C16.0402 32.7785 16.2836 32.5956 16.4891 32.482C20.7878 30.0705 25.0919 27.6682 29.3899 25.256C29.5491 25.18 29.6371 25.0122 29.6242 24.8391C29.6272 19.947 29.625 15.0541 29.6257 10.1621C29.6439 9.96563 29.5294 9.78501 29.3504 9.7046C24.985 7.26451 20.6218 4.82067 16.2571 2.37995C16.1815 2.32835 16.0919 2.30067 16.0001 2.30053C15.9084 2.3004 15.8187 2.32782 15.7429 2.3792C11.3782 4.82067 7.01579 7.26675 2.6511 9.70672C2.47276 9.78725 2.35307 9.96488 2.3743 10.1621C2.37505 15.0541 2.3743 19.947 2.3743 24.8398C2.36673 24.9243 2.38542 25.009 2.42786 25.0827C2.4703 25.1563 2.53445 25.2152 2.61166 25.2515C3.7764 25.9071 4.94265 26.558 6.10814 27.2113C6.76474 27.5621 7.57091 27.7705 8.29432 27.5018C8.9327 27.2745 9.38019 26.628 9.368 25.9552C9.37403 21.0917 9.36499 16.2275 9.37253 11.3647C9.35658 11.1488 9.56292 10.9705 9.77442 10.9908C10.3341 10.987 10.8944 10.9833 11.4541 10.9923C11.6877 10.987 11.8484 11.2195 11.8196 11.437C11.8173 16.3313 11.8256 21.2257 11.8158 26.12C11.8173 27.4244 11.2774 28.8437 10.0618 29.4819C8.56422 30.2519 6.71324 30.0886 5.23377 29.3503C3.95299 28.7158 2.73073 27.967 1.47267 27.2873C0.598428 26.8381 -0.0060459 25.8996 0.000108097 24.916V10.086C-0.00906011 9.12123 0.565774 8.19168 1.41804 7.73632C5.79793 5.28301 10.1771 2.82783 14.5562 0.373401Z" fill="#8CC84B"/>
  <path d="M18.3772 10.6461C20.2875 10.5241 22.3325 10.5738 24.0514 11.5078C25.3823 12.2236 26.1202 13.7258 26.1437 15.1933C26.1065 15.3913 25.898 15.5005 25.7076 15.4869C25.1534 15.4861 24.599 15.4944 24.0448 15.4831C23.8097 15.4921 23.673 15.277 23.6435 15.0707C23.4843 14.3685 23.0985 13.6731 22.4326 13.3344C21.4104 12.8264 20.2252 12.852 19.1105 12.8626C18.2968 12.9054 17.4218 12.9754 16.7325 13.4503C16.2032 13.81 16.0425 14.5363 16.2313 15.1212C16.4094 15.5411 16.8979 15.6766 17.2975 15.8015C19.5996 16.3991 22.0391 16.3396 24.2972 17.1261C25.2321 17.4467 26.1467 18.07 26.4667 19.0415C26.8853 20.3436 26.7018 21.9001 25.7684 22.9454C25.0115 23.8057 23.909 24.2739 22.8095 24.5281C21.3467 24.8519 19.8287 24.8601 18.3432 24.7164C16.9463 24.5583 15.4927 24.1941 14.4144 23.2495C13.4923 22.4548 13.0419 21.2166 13.0866 20.0215C13.0973 19.8197 13.2998 19.679 13.4946 19.6956C14.0527 19.6911 14.6108 19.6896 15.169 19.6963C15.3919 19.6805 15.5572 19.8717 15.5686 20.0803C15.6716 20.7493 15.9249 21.4514 16.5127 21.8481C17.647 22.5745 19.0703 22.5247 20.3692 22.545C21.4453 22.4977 22.6532 22.4833 23.5314 21.7774C23.9947 21.3748 24.1319 20.7012 24.0067 20.1216C23.8711 19.6324 23.3554 19.4044 22.9126 19.2553C20.64 18.5418 18.1732 18.8007 15.9226 17.9938C15.009 17.6733 14.1254 17.0674 13.7744 16.1357C13.2846 14.8171 13.509 13.1862 14.5402 12.1761C15.5457 11.1714 16.9972 10.7845 18.3772 10.646V10.6461Z" fill="#8CC84B"/>
</svg>
