<svg width="35" height="35" viewBox="0 0 35 35" fill="none" xmlns="http://www.w3.org/2000/svg">
  <g clip-path="url(#clip0_790_3093)">
    <path d="M31.3505 6.80386C29.2349 4.06427 26.3543 2.01361 23.0732 0.911231C19.7921 -0.191151 16.2577 -0.295738 12.9172 0.610698C9.5766 1.51713 6.57986 3.39388 4.30596 6.00357C2.03206 8.61326 0.583132 11.8387 0.142432 15.2719C-0.298268 18.7051 0.289053 22.1919 1.83012 25.2913C3.37118 28.3907 5.79676 30.9635 8.80009 32.6843C11.8034 34.4051 15.2496 35.1965 18.7028 34.9586C22.1559 34.7207 25.461 33.464 28.2 31.3476C35.8452 25.4392 37.2561 14.4519 31.3499 6.80386H31.3505Z" fill="#FF6C37"/>
    <path d="M23.4022 11.1505L16.0233 18.588L13.9381 16.4442C21.2005 9.18172 21.9295 9.83797 23.4027 11.1505H23.4022Z" fill="white"/>
    <path d="M16.0233 18.7913C15.958 18.7897 15.8956 18.7638 15.8483 18.7186L13.7484 16.6186C13.7011 16.5697 13.6747 16.5043 13.6747 16.4362C13.6747 16.3682 13.7011 16.3028 13.7484 16.2538C20.9085 9.09362 21.8858 9.42886 23.5773 10.9601C23.6056 10.9828 23.6282 11.0117 23.6434 11.0447C23.6586 11.0776 23.6659 11.1136 23.6648 11.1499C23.6757 11.221 23.6484 11.2937 23.592 11.3396L16.2131 18.7192C16.1614 18.7666 16.0935 18.7926 16.0233 18.7919V18.7913ZM14.3023 16.4436L16.0233 18.1646L23.0233 11.1646C22.7816 10.8617 22.4367 10.6586 22.0546 10.594C21.6726 10.5294 21.2801 10.608 20.9523 10.8146C19.6835 11.3834 17.6421 13.1186 14.3023 16.4436V16.4436Z" fill="#FF6C37"/>
    <path d="M18.138 20.6442L16.1255 18.5879L23.5045 11.2959C25.488 13.2357 22.542 16.4732 18.138 20.6436V20.6442Z" fill="white"/>
    <path d="M18.1381 20.9066C18.0735 20.9015 18.0123 20.8761 17.9631 20.8339L15.9069 18.8214C15.876 18.7466 15.876 18.6627 15.9069 18.5879C15.885 18.5265 15.885 18.4595 15.9069 18.3981L23.2858 11.0192C23.3371 10.971 23.4049 10.9441 23.4753 10.9441C23.5457 10.9441 23.6135 10.971 23.6648 11.0192C23.9037 11.2391 24.0925 11.5079 24.2183 11.8074C24.3441 12.1068 24.4039 12.4298 24.3937 12.7544C24.3937 14.7232 22.1477 17.2021 18.3273 20.8191C18.2763 20.8697 18.2091 20.9006 18.1375 20.9066H18.1381ZM16.5046 18.5879L18.1523 20.2351C21.0688 17.4788 23.8545 14.6351 23.8688 12.7101C23.8846 12.302 23.7497 11.9024 23.4898 11.5874L16.5046 18.5879Z" fill="#FF6C37"/>
    <path d="M13.9961 16.4879L15.4546 17.9464C15.4639 17.9546 15.4713 17.9647 15.4765 17.976C15.4816 17.9874 15.4842 17.9996 15.4842 18.012C15.4842 18.0245 15.4816 18.0367 15.4765 18.048C15.4713 18.0594 15.4639 18.0695 15.4546 18.0777L12.3773 18.7339C12.3152 18.7473 12.2504 18.7401 12.1928 18.7132C12.1352 18.6864 12.0879 18.6415 12.0582 18.5853C12.0285 18.5292 12.0179 18.4648 12.0282 18.4021C12.0384 18.3394 12.0688 18.2817 12.1148 18.2379L13.9086 16.4589C13.9086 16.4589 13.9671 16.4589 13.9961 16.4879Z" fill="white"/>
    <path d="M12.3046 19.0254C12.2074 19.0242 12.1121 18.9981 12.0278 18.9495C11.9436 18.901 11.8732 18.8316 11.8233 18.7481C11.7673 18.6424 11.7469 18.5213 11.7654 18.403C11.7838 18.2847 11.84 18.1756 11.9256 18.0919L13.7046 16.2982C13.7687 16.2408 13.8518 16.2091 13.9378 16.2091C14.0239 16.2091 14.1069 16.2408 14.1711 16.2982L15.6295 17.7567C15.716 17.8387 15.7499 17.9628 15.717 18.0777C15.6842 18.1925 15.588 18.2839 15.4693 18.3112L12.3921 18.9674L12.3046 19.0254ZM13.9381 16.8089L12.2904 18.4567L15.0176 17.8731L13.9381 16.8089Z" fill="#FF6C37"/>
    <path d="M27.3255 7.05218C26.2701 6.0339 24.6119 5.99125 23.505 6.95211C22.3982 7.91296 22.2089 9.56234 23.0708 10.7491C23.9327 11.9358 25.5575 12.2683 26.8153 11.5147L24.8318 9.53117L27.3255 7.05218Z" fill="white"/>
    <path d="M25.3568 12.1851C24.7504 12.1773 24.1597 11.9913 23.6583 11.6502C23.1569 11.309 22.767 10.8279 22.5371 10.2667C22.3074 9.7059 22.2471 9.09009 22.3638 8.49542C22.4804 7.90076 22.7688 7.35334 23.1934 6.92089C23.7772 6.34774 24.5627 6.02664 25.3809 6.02664C26.199 6.02664 26.9845 6.34774 27.5684 6.92089C27.6241 6.96792 27.6559 7.03737 27.6559 7.11065C27.6557 7.14671 27.6478 7.18231 27.6327 7.21505C27.6176 7.24779 27.5957 7.2769 27.5684 7.30042L25.2059 9.53167L26.9996 11.2964C27.0287 11.3242 27.0505 11.3586 27.0632 11.3968C27.0758 11.4349 27.079 11.4756 27.0723 11.5152C27.068 11.5534 27.0553 11.5902 27.0352 11.623C27.0151 11.6558 26.988 11.6838 26.9559 11.705C26.474 12.0062 25.92 12.1724 25.3519 12.1862L25.3568 12.1851ZM25.3568 6.52659C24.3177 6.53206 23.388 7.15714 22.9981 8.11253C22.6082 9.06792 22.8204 10.1677 23.5488 10.9016C23.9111 11.266 24.3751 11.5125 24.8799 11.6089C25.3847 11.7052 25.9068 11.6468 26.3778 11.4414L24.6568 9.72034C24.6294 9.69847 24.6073 9.67071 24.5922 9.63914C24.577 9.60757 24.5691 9.57299 24.5691 9.53796C24.5691 9.50293 24.577 9.46835 24.5922 9.43678C24.6073 9.4052 24.6294 9.37745 24.6568 9.35558L26.9318 7.06581C26.4796 6.71922 25.9266 6.5297 25.3568 6.52604V6.52659Z" fill="#FF6C37"/>
    <path d="M27.3692 7.09589L24.8755 9.57486L26.859 11.5584C27.0586 11.4438 27.2445 11.3067 27.413 11.1499C27.9328 10.6004 28.2188 9.87041 28.2107 9.11403C28.2025 8.35764 27.9008 7.63402 27.3692 7.09589V7.09589Z" fill="white"/>
    <path d="M26.8147 11.7772C26.782 11.779 26.7492 11.7733 26.7189 11.7608C26.6886 11.7482 26.6616 11.7289 26.6397 11.7044L24.6562 9.72093C24.6289 9.69905 24.6068 9.6713 24.5916 9.63973C24.5764 9.60816 24.5685 9.57358 24.5685 9.53855C24.5685 9.50352 24.5764 9.46893 24.5916 9.43736C24.6068 9.40579 24.6289 9.37804 24.6562 9.35616L27.1352 6.92093C27.1591 6.88483 27.1916 6.85522 27.2298 6.83473C27.268 6.81425 27.3106 6.80353 27.3539 6.80353C27.3972 6.80353 27.4399 6.81425 27.4781 6.83473C27.5162 6.85522 27.5487 6.88483 27.5727 6.92093C27.8637 7.20607 28.0949 7.54642 28.2527 7.92204C28.4106 8.29766 28.4919 8.701 28.4919 9.10843C28.4919 9.51586 28.4106 9.9192 28.2527 10.2948C28.0949 10.6704 27.8637 11.0108 27.5727 11.2959C27.401 11.478 27.2046 11.6351 26.9892 11.7624C26.9349 11.7898 26.8722 11.795 26.8142 11.7772H26.8147ZM25.2107 9.53171L26.8585 11.1794C26.9718 11.1 27.0791 11.0123 27.1795 10.9169C27.6639 10.4339 27.9367 9.7783 27.938 9.09421C27.9391 8.48201 27.716 7.89059 27.3107 7.43171L25.2107 9.53171Z" fill="#FF6C37"/>
    <path d="M23.7085 11.4567C23.511 11.2712 23.2502 11.168 22.9792 11.168C22.7083 11.168 22.4475 11.2712 22.25 11.4567L15.6443 18.0477L16.7381 19.1562L23.7233 13.0312C23.8298 12.9291 23.9143 12.8062 23.9716 12.6703C24.0288 12.5343 24.0577 12.388 24.0563 12.2405C24.0549 12.0929 24.0233 11.9472 23.9635 11.8123C23.9037 11.6775 23.8169 11.5562 23.7085 11.4562V11.4567Z" fill="white"/>
    <path d="M16.6796 19.4192C16.6142 19.4176 16.5518 19.3916 16.5046 19.3465L15.3961 18.2379C15.3488 18.189 15.3224 18.1236 15.3224 18.0556C15.3224 17.9875 15.3488 17.9221 15.3961 17.8732L22.0023 11.2959C22.1925 11.1059 22.4355 10.9774 22.6997 10.9271C22.9639 10.8768 23.2371 10.907 23.4839 11.0139C23.7307 11.1208 23.9397 11.2993 24.0838 11.5264C24.2279 11.7535 24.3004 12.0186 24.292 12.2874C24.2844 12.4698 24.2405 12.649 24.1629 12.8142C24.0852 12.9795 23.9754 13.1276 23.8398 13.2499L16.8546 19.3749C16.8038 19.4109 16.7413 19.4265 16.6796 19.4186V19.4192ZM15.9069 18.0476L16.6358 18.7914L23.4898 12.8266C23.6593 12.679 23.7605 12.4679 23.767 12.2431C23.7736 12.0183 23.685 11.7985 23.5193 11.6454C23.3663 11.493 23.1591 11.4074 22.9432 11.4074C22.7272 11.4074 22.5201 11.493 22.367 11.6454L15.9069 18.0476Z" fill="#FF6C37"/>
    <path d="M10.5257 25.5584C10.507 25.5838 10.4969 25.6144 10.4969 25.6459C10.4969 25.6774 10.507 25.7081 10.5257 25.7334L10.8171 27.0022C10.8288 27.0768 10.8177 27.1533 10.7854 27.2216C10.753 27.2898 10.7008 27.3468 10.6356 27.385C10.5706 27.423 10.4952 27.4394 10.4204 27.4318C10.3455 27.4243 10.2749 27.3931 10.2189 27.3429L8.22115 25.4179L14.4483 19.1414H16.6068L18.0653 20.5999C15.7902 22.5891 13.2534 24.2575 10.5257 25.5584V25.5584Z" fill="white"/>
    <path d="M10.3944 27.7021C10.2292 27.6988 10.0663 27.631 9.9569 27.5124L8.04669 25.6021C8.01933 25.5802 7.99724 25.5525 7.98206 25.5209C7.96688 25.4894 7.959 25.4548 7.959 25.4197C7.959 25.3847 7.96688 25.3501 7.98206 25.3186C7.99724 25.287 8.01933 25.2592 8.04669 25.2374L14.3171 18.9521C14.3522 18.9148 14.3981 18.8894 14.4483 18.8794H16.6211C16.6777 18.8594 16.7394 18.8594 16.7961 18.8794L18.2546 20.3379C18.2823 20.3635 18.3034 20.3954 18.3161 20.4309C18.3287 20.4665 18.3326 20.5045 18.3273 20.5419C18.3283 20.5781 18.321 20.6141 18.3058 20.647C18.2906 20.6799 18.268 20.7089 18.2398 20.7317L18.1233 20.8339C15.839 22.7383 13.3258 24.35 10.6421 25.6317L10.9194 26.8129C10.9408 26.904 10.9416 26.9988 10.9218 27.0903C10.9019 27.1817 10.8619 27.2676 10.8046 27.3417C10.7474 27.4157 10.6743 27.4761 10.5907 27.5183C10.5072 27.5605 10.4153 27.5835 10.3217 27.5856L10.3944 27.7021ZM8.61543 25.4124L10.3359 27.1476C10.3519 27.1619 10.3726 27.1698 10.3941 27.1698C10.4156 27.1698 10.4363 27.1619 10.4524 27.1476C10.4631 27.1327 10.4689 27.1148 10.4689 27.0965C10.4689 27.0781 10.4631 27.0602 10.4524 27.0453L10.1609 25.7766C10.1379 25.6855 10.1471 25.5893 10.187 25.5043C10.2269 25.4193 10.2949 25.3507 10.3796 25.3101C12.9912 24.0456 15.4396 22.4687 17.6711 20.6141L16.475 19.4181H14.5211L8.61543 25.4124Z" fill="#FF6C37"/>
    <path d="M6.71943 26.9146L8.17793 25.4561L10.4239 27.7021L6.85123 27.4544C6.78989 27.4496 6.73163 27.4255 6.68478 27.3856C6.63792 27.3458 6.60486 27.2921 6.59031 27.2323C6.57576 27.1725 6.58046 27.1097 6.60375 27.0527C6.62703 26.9958 6.66771 26.9476 6.71998 26.9152L6.71943 26.9146Z" fill="white"/>
    <path d="M10.4671 27.9209L6.90865 27.6732C6.69756 27.6535 6.516 27.5091 6.44162 27.3161C6.36725 27.123 6.41264 26.8939 6.55865 26.7397L8.01715 25.2811C8.06609 25.2339 8.13148 25.2074 8.19953 25.2074C8.26758 25.2074 8.33297 25.2339 8.38191 25.2811L10.6131 27.5124C10.644 27.5547 10.6607 27.6057 10.6607 27.6581C10.6607 27.7105 10.644 27.7616 10.6131 27.8039C10.5794 27.8584 10.5278 27.8996 10.4671 27.9204V27.9209ZM6.90865 27.1044L9.8251 27.2942L8.22113 25.7919L6.90865 27.1044Z" fill="#FF6C37"/>
    <path d="M16.8108 19.3175L13.8648 19.7697L15.571 18.0782L16.8108 19.3175Z" fill="white"/>
    <path d="M13.8648 20.0459C13.8159 20.0472 13.7676 20.034 13.7261 20.0081C13.6846 19.9821 13.6516 19.9445 13.6313 19.8999C13.6003 19.8577 13.5835 19.8066 13.5835 19.7542C13.5835 19.7017 13.6003 19.6507 13.6313 19.6084L15.3228 17.9022C15.3741 17.8539 15.4418 17.8271 15.5123 17.8271C15.5827 17.8271 15.6504 17.8539 15.7017 17.9022L16.942 19.1414C16.9668 19.1807 16.98 19.2262 16.98 19.2726C16.98 19.3191 16.9668 19.3646 16.942 19.4039C16.9299 19.4518 16.9042 19.4951 16.868 19.5288C16.8318 19.5625 16.7867 19.585 16.738 19.5937L13.8216 20.0459H13.8648ZM15.571 18.4561L14.6233 19.4039L16.2568 19.1561L15.571 18.4561Z" fill="#FF6C37"/>
    <path d="M16.8108 19.3164L14.7546 19.5789C14.6996 19.5914 14.642 19.5858 14.5904 19.563C14.5388 19.5402 14.4959 19.5014 14.4681 19.4523C14.4403 19.4032 14.429 19.3464 14.436 19.2904C14.443 19.2344 14.4678 19.1822 14.5069 19.1414L15.5716 18.0766L16.8108 19.3164Z" fill="white"/>
    <path d="M14.6961 19.8567C14.6008 19.8558 14.5074 19.8296 14.4255 19.7809C14.3435 19.7322 14.276 19.6627 14.2296 19.5794C14.1739 19.4796 14.1523 19.3643 14.1681 19.2511C14.1839 19.1379 14.2362 19.0329 14.3171 18.9522L15.3819 17.8874C15.4332 17.8392 15.5009 17.8123 15.5713 17.8123C15.6418 17.8123 15.7095 17.8392 15.7608 17.8874L17.0006 19.1272C17.0375 19.1621 17.0634 19.207 17.0753 19.2564C17.0871 19.3057 17.0844 19.3575 17.0675 19.4054C17.0505 19.4532 17.02 19.4952 16.9797 19.5261C16.9394 19.557 16.891 19.5755 16.8404 19.5794L14.7989 19.8419L14.6961 19.8567ZM14.6961 19.3169L16.2421 19.1272L15.5569 18.4419L14.6819 19.3169H14.6961ZM27.3835 8.77316C27.356 8.72714 27.3126 8.69281 27.2615 8.67668C27.2104 8.66055 27.1551 8.66374 27.1062 8.68565C27.0821 8.69789 27.0606 8.71484 27.0432 8.7355C27.0257 8.75617 27.0125 8.78013 27.0045 8.80597C26.9883 8.8581 26.9934 8.91455 27.0187 8.96292C27.121 9.17784 27.0925 9.43214 26.946 9.61917C26.9278 9.63719 26.9135 9.65879 26.9041 9.68261C26.8947 9.70642 26.8903 9.73194 26.8913 9.75753C26.8918 9.80882 26.9113 9.8581 26.946 9.89589C26.9834 9.91067 27.025 9.91067 27.0625 9.89589C27.0964 9.90443 27.1321 9.90349 27.1655 9.89317C27.199 9.88285 27.229 9.86355 27.2522 9.83738C27.3723 9.69035 27.4484 9.51235 27.4716 9.32394C27.4948 9.13553 27.4643 8.9444 27.3835 8.77261V8.77316Z" fill="#FF6C37"/>
  </g>
  <defs>
    <clipPath id="clip0_790_3093">
      <rect width="35" height="35" fill="white"/>
    </clipPath>
  </defs>
</svg>
