<svg width="65" height="35" viewBox="0 0 65 35" fill="none" xmlns="http://www.w3.org/2000/svg">
  <path d="M20.1071 23.3896C16.9277 23.3896 14.3362 20.7626 14.3362 17.5422C14.3362 14.3217 16.9277 11.6947 20.1071 11.6947C23.2865 11.6947 25.8781 14.3217 25.8781 17.5422C25.8781 20.7603 23.2843 23.3896 20.1071 23.3896ZM6.25041 34.9993C3.07557 34.9924 0.490875 32.354 0.500024 29.1335C0.501837 27.5889 1.11245 26.108 2.19806 25.0154C3.28366 23.9228 4.7557 23.3075 6.29158 23.3045C9.4687 23.3114 12.0534 25.9499 12.042 29.1726C12.0389 30.7166 11.4279 32.1966 10.3425 33.2886C9.25705 34.3806 7.7857 34.9957 6.25041 34.9993ZM58.7724 34.9993C57.2367 35.0024 55.7623 34.3934 54.6721 33.3056C53.582 32.2179 52.9648 30.74 52.9557 29.1956C52.9397 25.9706 55.5129 23.3229 58.6855 23.3068C60.2204 23.3043 61.6938 23.9133 62.7834 25.0005C63.8731 26.0877 64.4902 27.5646 64.4999 29.1082C64.5182 32.331 61.9426 34.9809 58.7724 34.9993Z" fill="black"/>
  <path d="M47.9556 12.0352C46.3864 11.5429 44.7098 11.3382 43.0652 11.1587C40.5217 10.8827 39.5084 9.88435 39.0784 7.32179C38.8359 5.89099 38.4974 4.42338 37.8821 3.1237C36.7087 0.650852 33.9593 -0.457906 31.1985 0.174684C28.8654 0.710659 26.928 3.04549 26.8205 5.44243C26.697 8.17521 28.2524 10.51 30.924 11.3152C32.1935 11.6993 33.543 11.8902 34.8674 11.9892C37.2988 12.1663 38.1108 12.8955 38.7673 14.0088C39.1836 14.7127 39.5839 15.4051 39.5839 17.4984C39.5839 19.594 39.179 20.2864 38.7673 20.988C38.1108 22.1014 37.2988 22.8283 34.8674 23.01C33.5407 23.1066 32.1912 23.2998 30.924 23.684C28.2524 24.4914 26.697 26.8216 26.8205 29.559C26.928 31.9537 28.8677 34.2885 31.1985 34.8245C33.9593 35.4594 36.7087 34.3483 37.8821 31.8755C38.4997 30.5781 38.8359 29.1082 39.0784 27.6774C39.5107 25.1148 40.524 24.1188 43.0652 23.8404C44.7121 23.661 46.3864 23.454 47.9556 22.9617C50.3367 22.2141 51.7686 19.9805 51.7686 17.4984C51.7686 15.0187 50.3367 12.7874 47.9556 12.0352Z" fill="#F44250"/>
</svg>
