<svg width="43" height="39" viewBox="0 0 43 39" fill="none" xmlns="http://www.w3.org/2000/svg">
  <path d="M21.5 23.1769C23.5071 23.1769 25.1341 21.5307 25.1341 19.5C25.1341 17.4694 23.5071 15.8232 21.5 15.8232C19.493 15.8232 17.8659 17.4694 17.8659 19.5C17.8659 21.5307 19.493 23.1769 21.5 23.1769Z" fill="#61DAFB"/>
  <path d="M21.5 23.1769C23.5071 23.1769 25.1341 21.5307 25.1341 19.5C25.1341 17.4694 23.5071 15.8232 21.5 15.8232C19.493 15.8232 17.8659 17.4694 17.8659 19.5C17.8659 21.5307 19.493 23.1769 21.5 23.1769Z" stroke="#61DAFB" stroke-width="4"/>
  <path d="M21.5 27.033C32.2696 27.033 41 23.6604 41 19.5C41 15.3397 32.2696 11.967 21.5 11.967C10.7304 11.967 2 15.3397 2 19.5C2 23.6604 10.7304 27.033 21.5 27.033Z" stroke="#61DAFB" stroke-width="4"/>
  <path d="M15.052 23.2665C20.4368 32.7029 27.6889 38.6662 31.25 36.5861C34.8111 34.5059 33.3327 25.1699 27.9479 15.7335C22.5632 6.29714 15.3111 0.333776 11.75 2.41396C8.18887 4.49413 9.66725 13.8301 15.052 23.2665Z" stroke="#61DAFB" stroke-width="4"/>
  <path d="M15.052 15.7335C9.66726 25.1699 8.18888 34.5059 11.75 36.586C15.3111 38.6662 22.5632 32.7029 27.9479 23.2665C33.3327 13.8301 34.8111 4.49412 31.25 2.41394C27.6889 0.333764 20.4368 6.29713 15.052 15.7335Z" stroke="#61DAFB" stroke-width="4"/>
</svg>
