<svg width="37" height="35" viewBox="0 0 37 35" fill="none" xmlns="http://www.w3.org/2000/svg">
  <path d="M25.6371 24.4437C27.0025 24.3029 28.0383 23.13 27.9912 21.7225C27.9442 20.315 26.767 19.189 25.3545 19.189H25.2604C23.8007 19.2359 22.6707 20.4557 22.7179 21.9101C22.765 22.6139 23.0474 23.2238 23.4711 23.646C21.8703 26.7895 19.422 29.0884 15.7494 31.012C13.2539 32.3257 10.6644 32.7949 8.07481 32.4665C5.95599 32.185 4.30804 31.2467 3.27204 29.6983C1.76545 27.3994 1.62424 24.9128 2.89554 22.4262C3.79019 20.6434 5.20255 19.3297 6.09719 18.6728C5.90887 18.0629 5.62631 17.0308 5.4851 16.2802C-1.34212 21.2065 -0.635795 27.8686 1.43592 31.012C2.98963 33.358 6.14431 34.8124 9.62852 34.8124C10.5701 34.8124 11.5118 34.7185 12.4535 34.484C18.4803 33.311 23.0475 29.7453 25.6371 24.4437ZM33.9239 18.626C30.3455 14.4504 25.0721 12.1515 19.0453 12.1515H18.292C17.8682 11.307 16.9736 10.7439 15.9849 10.7439H15.8906C14.4312 10.7909 13.3012 12.0107 13.3482 13.4652C13.3953 14.8726 14.5724 15.9987 15.9849 15.9987H16.079C17.1148 15.9517 18.0095 15.2949 18.3861 14.4034H19.2336C22.8121 14.4034 26.2021 15.4356 29.2627 17.4531C31.6168 19.0013 33.3118 21.0188 34.2535 23.4584C35.0539 25.4289 35.0068 27.3525 34.1592 28.9947C32.841 31.4812 30.628 32.8418 27.7088 32.8418C25.8254 32.8418 24.0363 32.2787 23.0945 31.8565C22.5766 32.3257 21.6349 33.0763 20.9757 33.5456C23.0004 34.4839 25.0721 35 27.0496 35C31.5697 35 34.9127 32.5133 36.184 30.0268C37.5494 27.3055 37.4551 22.6139 33.9239 18.626ZM10.0052 25.2411C10.0523 26.6487 11.2294 27.7746 12.6419 27.7746H12.7361C14.1957 27.7278 15.3257 26.5079 15.2785 25.0535C15.2316 23.6459 14.0544 22.52 12.6419 22.52H12.5478C12.4535 22.52 12.3122 22.52 12.2182 22.5668C10.2877 19.3765 9.48732 15.9048 9.76988 12.1514C9.95806 9.33635 10.8998 6.89663 12.5478 4.87915C13.9132 3.14322 16.5498 2.29873 18.3391 2.25193C23.3299 2.15803 25.4486 8.35101 25.59 10.8377C26.2021 10.9784 27.2379 11.3069 27.9442 11.5415C27.3791 3.94105 22.6707 0 18.1508 0C13.9132 0 10.0052 3.04961 8.45132 7.55361C6.28552 13.5589 7.69802 19.3297 10.3347 23.8806C10.0994 24.209 9.95806 24.725 10.0052 25.2411Z" fill="#764ABC"/>
</svg>
