<svg width="47" height="35" viewBox="0 0 47 35" fill="none" xmlns="http://www.w3.org/2000/svg">
  <path d="M40.1096 20.1201C38.5048 20.1287 37.1101 20.5208 35.9422 21.1005C35.5137 20.2395 35.0852 19.4723 35.0095 18.9097C34.9255 18.2533 34.8247 17.8526 34.9255 17.0684C35.0263 16.2841 35.4801 15.1674 35.4717 15.0821C35.4632 14.9969 35.3708 14.5962 34.4466 14.5877C33.5224 14.5792 32.7242 14.7667 32.6318 15.0139C32.5393 15.2612 32.3629 15.8238 32.2453 16.4034C32.0856 17.2559 30.3968 20.2991 29.4306 21.8932C29.1197 21.2709 28.8508 20.7254 28.792 20.2906C28.708 19.6342 28.6072 19.2336 28.708 18.4493C28.8088 17.6651 29.2625 16.5484 29.2541 16.4631C29.2457 16.3779 29.1533 15.9772 28.2291 15.9687C27.3048 15.9602 26.5066 16.1477 26.4142 16.3949C26.3218 16.6421 26.221 17.2218 26.0277 17.7844C25.8345 18.347 23.5911 23.4276 23.003 24.7404C22.7005 25.4139 22.44 25.9509 22.2552 26.3175C22.2552 26.3175 22.2468 26.343 22.2216 26.3857C22.0619 26.7011 21.9695 26.8716 21.9695 26.8716C21.9695 26.8716 21.9695 26.8716 21.9695 26.8801C21.8435 27.1102 21.709 27.3234 21.6418 27.3234C21.5914 27.3234 21.499 26.7096 21.6586 25.8742C21.9947 24.1096 22.7929 21.3647 22.7845 21.2709C22.7845 21.2198 22.9358 20.7424 22.2636 20.4952C21.6082 20.248 21.373 20.6572 21.3142 20.6572C21.2553 20.6572 21.2133 20.8021 21.2133 20.8021C21.2133 20.8021 21.9443 17.7162 19.8186 17.7162C18.4911 17.7162 16.6594 19.191 15.752 20.5208C15.1806 20.8362 13.9623 21.5096 12.66 22.2342C12.1643 22.5155 11.6518 22.7968 11.1728 23.0611C11.1392 23.027 11.1056 22.9844 11.072 22.9503C8.50098 20.1628 3.74541 18.1936 3.94706 14.4513C4.02267 13.0874 4.48479 9.5071 13.0801 5.15959C20.1547 1.62191 25.7841 2.60223 26.7587 4.77598C28.1534 7.87891 23.7424 13.6415 16.4325 14.4769C13.6431 14.7923 12.1811 13.7012 11.8114 13.292C11.4249 12.8658 11.3661 12.8402 11.2233 12.9254C10.988 13.0533 11.1392 13.4369 11.2233 13.6585C11.4417 14.2382 12.3407 15.2612 13.8615 15.7641C15.2058 16.2074 18.4742 16.4546 22.4316 14.9031C26.8595 13.1641 30.3212 8.33071 29.3045 4.28156C28.2879 0.172739 21.5662 -1.18266 15.2058 1.11044C11.4249 2.47436 7.32469 4.62254 4.37556 7.41859C0.871894 10.7432 0.317357 13.633 0.544213 14.8435C1.35921 19.1398 7.19866 21.9359 9.53444 24.0073C9.41681 24.0755 9.30758 24.1352 9.21516 24.1863C8.04727 24.7745 3.59417 27.1358 2.48509 29.6335C1.22478 32.4636 2.68674 34.4925 3.65298 34.7653C6.65252 35.6092 9.73609 34.0918 11.3913 31.5856C13.0465 29.0794 12.8449 25.823 12.0803 24.3312C12.0719 24.3142 12.0635 24.2971 12.0467 24.2801C12.3491 24.1011 12.66 23.9135 12.9625 23.7345C13.559 23.3765 14.1472 23.044 14.6513 22.7713C14.3656 23.564 14.1556 24.5103 14.0548 25.8742C13.9287 27.4768 14.5757 29.5568 15.4243 30.3751C15.8024 30.7332 16.2477 30.7417 16.5334 30.7417C17.5248 30.7417 17.9701 29.9063 18.4658 28.9174C19.0708 27.707 19.6169 26.3004 19.6169 26.3004C19.6169 26.3004 18.9364 30.1024 20.7848 30.1024C21.457 30.1024 22.1376 29.2158 22.44 28.764C22.44 28.7725 22.44 28.7725 22.44 28.7725C22.44 28.7725 22.4568 28.747 22.4904 28.6873C22.5577 28.5765 22.5997 28.5083 22.5997 28.5083C22.5997 28.5083 22.5997 28.4997 22.5997 28.4912C22.8685 28.0138 23.4735 26.9312 24.3725 25.1326C25.532 22.8139 26.6495 19.9155 26.6495 19.9155C26.6495 19.9155 26.7503 20.6231 27.0948 21.7995C27.2964 22.49 27.7165 23.2486 28.0526 23.9817C27.7838 24.3653 27.6157 24.5785 27.6157 24.5785C27.6157 24.5785 27.6157 24.5785 27.6241 24.587C27.4057 24.8768 27.1704 25.1922 26.9099 25.4991C25.9941 26.6073 24.9018 27.8775 24.7506 28.244C24.5742 28.6788 24.6162 28.9942 24.9523 29.2499C25.1959 29.4374 25.6328 29.463 26.0781 29.4374C26.9015 29.3778 27.4813 29.1732 27.7669 29.0453C28.2123 28.8833 28.7332 28.6361 29.2205 28.2696C30.1195 27.5961 30.6657 26.6329 30.6152 25.3627C30.59 24.6637 30.3632 23.9647 30.0859 23.3083C30.1699 23.189 30.2456 23.0696 30.3296 22.9503C31.7495 20.8447 32.8502 18.5346 32.8502 18.5346C32.8502 18.5346 32.951 19.2421 33.2955 20.4185C33.4636 21.0152 33.808 21.6631 34.1105 22.2939C32.7746 23.3936 31.9512 24.6722 31.6571 25.5076C31.1278 27.0591 31.5395 27.7581 32.3209 27.9201C32.6738 27.9968 33.1779 27.8263 33.5476 27.6643C34.0181 27.5109 34.5726 27.2466 35.102 26.8545C36.001 26.1811 36.8664 25.2434 36.816 23.9732C36.7908 23.3936 36.6395 22.8224 36.4295 22.2683C37.5638 21.7909 39.0257 21.5267 40.891 21.7483C44.8904 22.2257 45.6802 24.7575 45.5289 25.823C45.3777 26.8886 44.5375 27.4683 44.2602 27.6473C43.983 27.8263 43.8905 27.886 43.9157 28.0138C43.9494 28.2014 44.0838 28.1929 44.319 28.1588C44.6467 28.0991 46.4196 27.2978 46.4952 25.3371C46.6212 22.8309 44.2686 20.0946 40.1096 20.1201ZM9.25717 30.6735C7.92964 32.1397 6.08118 32.6938 5.28299 32.225C4.42597 31.722 4.76206 29.5568 6.39206 28.0053C7.3835 27.0591 8.66062 26.1811 9.50923 25.644C9.70248 25.5247 9.98815 25.3542 10.3326 25.1411C10.3914 25.107 10.4251 25.0899 10.4251 25.0899C10.4923 25.0473 10.5595 25.0047 10.6267 24.9621C11.2233 27.1784 10.6519 29.1306 9.25717 30.6735ZM18.9196 24.0073C18.4574 25.1496 17.4912 28.0735 16.9031 27.9116C16.3989 27.7752 16.0881 25.5588 16.8022 23.368C17.1635 22.2683 17.9281 20.9555 18.3734 20.4441C19.096 19.6257 19.8942 19.3529 20.0874 19.6854C20.3311 20.1201 19.2052 23.2913 18.9196 24.0073ZM26.8931 27.8775C26.6999 27.9797 26.515 28.0479 26.431 27.9968C26.3722 27.9627 26.515 27.8263 26.515 27.8263C26.515 27.8263 27.5149 26.7352 27.9098 26.2407C28.1366 25.9509 28.4055 25.6099 28.6912 25.2263C28.6912 25.2604 28.6912 25.303 28.6912 25.3371C28.6912 26.6414 27.4477 27.5194 26.8931 27.8775ZM33.0434 26.4539C32.9006 26.3516 32.9258 26.0106 33.4047 24.945C33.5896 24.5273 34.0265 23.8283 34.7743 23.1549C34.8583 23.4276 34.9171 23.6919 34.9087 23.9391C34.9003 25.5844 33.7408 26.1981 33.0434 26.4539Z" fill="#CD6799"/>
</svg>
