<svg width="36" height="35" viewBox="0 0 36 35" fill="none" xmlns="http://www.w3.org/2000/svg">
  <path d="M0.5 0H35.5V35H0.5V0Z" fill="#017ACB"/>
  <path d="M17.3055 12.9609H18.9844V15.8594H14.4453V28.7547L14.325 28.7875C14.161 28.8312 12.0008 28.8312 11.5359 28.782L11.1641 28.7492V15.8594H6.625V12.9609L8.06328 12.9445C8.85079 12.9336 10.8742 12.9336 12.5586 12.9445C14.243 12.9555 16.3758 12.9609 17.3055 12.9609ZM30.1188 27.3875C29.4516 28.093 28.7352 28.4867 27.543 28.8094C27.0235 28.9516 26.936 28.957 25.7657 28.9516C24.5953 28.9461 24.5024 28.9461 23.9336 28.7984C22.4625 28.4211 21.2758 27.6828 20.4664 26.6383C20.2367 26.343 19.8594 25.7305 19.8594 25.6539C19.8594 25.632 19.9141 25.5828 19.9852 25.55C20.0563 25.5172 20.2039 25.4242 20.3242 25.3531C20.4446 25.282 20.6633 25.1508 20.811 25.0742C20.9586 24.9977 21.3852 24.7461 21.7571 24.5219C22.1289 24.2977 22.468 24.1172 22.5063 24.1172C22.5446 24.1172 22.6157 24.1938 22.6703 24.2867C22.9985 24.8391 23.7641 25.5445 24.3055 25.7852C24.6391 25.9273 25.3774 26.0859 25.7328 26.0859C26.061 26.0859 26.6625 25.9438 26.9852 25.7961C27.3297 25.6375 27.5047 25.4789 27.7125 25.1617C27.8547 24.9375 27.8711 24.8773 27.8657 24.4508C27.8657 24.057 27.8438 23.9477 27.7344 23.7672C27.4282 23.2641 27.0125 23.0016 25.3282 22.2578C23.5891 21.4867 22.8071 21.0273 22.1727 20.4094C21.7024 19.95 21.6094 19.8242 21.3141 19.25C20.9313 18.5117 20.8821 18.2711 20.8766 17.1719C20.8711 16.4008 20.8875 16.1492 20.9696 15.8867C21.0844 15.493 21.4563 14.7328 21.6258 14.5414C21.9758 14.1312 22.1016 14.0055 22.3477 13.8031C23.0914 13.1906 24.2508 12.7859 25.361 12.7477C25.4867 12.7477 25.9024 12.7695 26.2907 12.7969C27.4063 12.8898 28.1664 13.1633 28.8993 13.7484C29.4516 14.1859 30.2883 15.2141 30.2063 15.3508C30.1516 15.4328 27.9696 16.8875 27.8274 16.9312C27.7399 16.9586 27.6797 16.9258 27.5594 16.7836C26.8157 15.8922 26.5149 15.7008 25.793 15.657C25.2789 15.6242 25.0055 15.6844 24.661 15.9141C24.3 16.1547 24.125 16.5211 24.125 17.0297C24.1305 17.7734 24.4149 18.1234 25.4649 18.643C26.143 18.9766 26.7227 19.25 26.7664 19.25C26.8321 19.25 28.2375 19.95 28.6039 20.1687C30.3102 21.1695 31.0047 22.1977 31.1852 23.9695C31.3164 25.3039 30.9391 26.5234 30.1188 27.3875Z" fill="white"/>
</svg>
