<svg width="34" height="35" viewBox="0 0 34 35" fill="none" xmlns="http://www.w3.org/2000/svg">
  <path d="M33.8875 5.18034L17.916 34.5431C17.5862 35.1494 16.739 35.153 16.4043 34.5497L0.116168 5.18307C-0.248535 4.52573 0.298254 3.72939 1.02288 3.86266L17.0115 6.80074C17.1135 6.81948 17.218 6.8193 17.3199 6.80019L32.9742 3.86675C33.6964 3.73144 34.2457 4.52163 33.8875 5.18034Z" fill="url(#paint0_linear_42_372)"/>
  <path d="M24.6277 0.00861726L12.8084 2.38973C12.714 2.40875 12.6284 2.4595 12.565 2.534C12.5017 2.6085 12.4643 2.70252 12.4586 2.80128L11.7316 15.4259C11.7276 15.4951 11.7393 15.5644 11.7659 15.6281C11.7925 15.6919 11.8332 15.7484 11.8847 15.7932C11.9362 15.8379 11.9972 15.8698 12.0627 15.8861C12.1283 15.9024 12.1967 15.9028 12.2624 15.8872L15.5531 15.1064C15.861 15.0333 16.1392 15.3122 16.0759 15.6305L15.0982 20.5526C15.0325 20.8838 15.3349 21.167 15.6496 21.0687L17.6821 20.4339C17.9972 20.3356 18.3 20.6196 18.2333 20.9512L16.6796 28.6826C16.5824 29.1663 17.2081 29.4299 17.469 29.0154L17.6433 28.7385L27.2744 8.97732C27.4358 8.64647 27.1575 8.26919 26.8042 8.33937L23.4168 9.01146C23.0986 9.07454 22.8278 8.76977 22.9176 8.4497L25.1284 0.570237C25.2183 0.24935 24.9463 -0.05556 24.6277 0.00861726Z" fill="url(#paint1_linear_42_372)"/>
  <defs>
    <linearGradient id="paint0_linear_42_372" x1="-0.28152" y1="2.6782" x2="20.2847" y2="26.8583" gradientUnits="userSpaceOnUse">
      <stop stop-color="#41D1FF"/>
      <stop offset="1" stop-color="#BD34FE"/>
    </linearGradient>
    <linearGradient id="paint1_linear_42_372" x1="18.4934" y1="0.655137" x2="22.2346" y2="25.617" gradientUnits="userSpaceOnUse">
      <stop stop-color="#FFEA83"/>
      <stop offset="0.083" stop-color="#FFDD35"/>
      <stop offset="1" stop-color="#FFA800"/>
    </linearGradient>
  </defs>
</svg>
