<svg width="36" height="35" viewBox="0 0 36 35" fill="none" xmlns="http://www.w3.org/2000/svg">
  <path d="M0.832996 12.205C0.832996 12.205 -0.0194731 11.5838 1.00349 10.7545L3.38685 8.60026C3.38685 8.60026 4.06882 7.87501 4.78987 8.50691L26.7836 25.3385V33.4096C26.7836 33.4096 26.7729 34.677 25.1639 34.537L0.832996 12.205Z" fill="#2489CA"/>
  <path d="M6.50192 17.4075L0.832996 22.6171C0.832996 22.6171 0.250475 23.0551 0.832996 23.8378L3.465 26.2577C3.465 26.2577 4.09014 26.9363 5.01365 26.1643L11.0236 21.5579L6.50192 17.4075Z" fill="#1070B3"/>
  <path d="M16.4545 17.4505L26.8511 9.42605L26.7836 1.39799C26.7836 1.39799 26.3396 -0.354112 24.8585 0.557842L11.0236 13.2857L16.4545 17.4505Z" fill="#0877B9"/>
  <path d="M25.1639 34.5479C25.7678 35.1726 26.4995 34.9679 26.4995 34.9679L34.6015 30.9324C35.6386 30.2179 35.493 29.3311 35.493 29.3311V5.23255C35.493 4.17339 34.4203 3.80718 34.4203 3.80718L27.3981 0.38556C25.8637 -0.573067 24.8585 0.557842 24.8585 0.557842C24.8585 0.557842 26.1514 -0.382832 26.7836 1.39799L26.7836 33.2625C26.7836 33.4815 26.7374 33.6969 26.6451 33.8908C26.4604 34.2678 26.059 34.6197 25.0964 34.4725L25.1639 34.5479Z" fill="#3C99D4"/>
</svg>
