<svg width="30" height="35" viewBox="0 0 30 35" fill="none" xmlns="http://www.w3.org/2000/svg">
  <path d="M15 0L0 8.75V26.25L15 35L30 26.25V8.75L15 0Z" fill="white"/>
  <path d="M2.6787 25.6462L14.505 32.5441V27.1716L7.13656 22.9921L2.6787 25.6462ZM1.86973 24.8908V10.465L6.19747 13.0404V22.3125L1.86973 24.8908ZM27.3694 25.6462L15.5431 32.5441V27.1716L22.9116 22.9921L27.3694 25.6462ZM28.1784 24.8908V10.465L23.8507 13.0404V22.3125L28.1784 24.8908ZM27.6721 9.53164L15.5431 2.45581V7.65039L23.3132 12.0575L23.3727 12.0925L27.6721 9.53164ZM2.37604 9.53164L14.505 2.45581V7.65039L6.7349 12.0575L6.6755 12.0925L2.37604 9.53164Z" fill="#8ED6FB"/>
  <path d="M15.5431 25.9496L22.8125 21.8283V13.6617L15.5431 17.99V25.9496ZM14.505 25.9496L7.23551 21.8283V13.6617L14.505 17.99V25.9496ZM22.3204 12.7167L15.0226 8.5779L7.72486 12.7167L15.0226 17.0625L22.3204 12.7167Z" fill="#1C78C0"/>
</svg>
