<svg width="91" height="35" viewBox="0 0 91 35" fill="none" xmlns="http://www.w3.org/2000/svg">
  <path d="M62.2238 3.1064L62.2038 2.91384L61.8914 2.94052L61.9113 3.13291L62.2238 3.1064ZM64.3242 8.15086L64.3309 8.25706L64.5503 8.23722C64.5436 8.17087 64.5701 8.06468 64.6167 7.93197L64.5967 7.73941C64.5037 7.74608 64.4105 7.88546 64.3242 8.15086ZM56.1284 14.503C56.1152 14.3238 55.5568 13.627 54.4534 12.3989C54.4335 12.1734 54.8124 11.8348 55.59 11.3901L57.8101 9.45858C58.3086 8.82789 58.6011 7.80576 58.6876 6.38535L58.6609 6.06009C58.5746 5.07781 57.8634 4.28791 56.5141 3.68391C55.7164 3.14625 54.2806 2.84749 52.2067 2.79448C50.4918 2.94052 48.2518 3.55103 45.4933 4.63301C44.7355 5.17734 43.8716 5.72166 42.9011 6.26582L42.9142 6.43187C42.9742 6.4252 43.0672 6.39202 43.1735 6.319C43.2866 6.30566 43.353 6.35885 43.3597 6.46505L43.5258 6.37868L43.6056 6.37201L43.6123 6.44503C43.619 6.5314 43.0206 7.0027 41.8109 7.84561L41.904 8.01816L41.8242 8.02483L41.6247 7.95181C41.6314 8.01149 41.5451 8.05134 41.3788 8.06468L41.3855 8.1377L41.5783 8.3766C41.5185 8.38327 41.4254 8.35676 41.2992 8.31025C41.0199 8.33675 40.7474 8.48279 40.4749 8.76154L40.588 8.2704C40.9933 6.52473 41.2724 4.97811 41.4187 3.63739L41.3988 3.55103C41.1197 3.37181 40.8471 3.11957 40.5945 2.80098C40.6011 2.59525 40.6011 2.47589 40.5945 2.44921L40.5746 2.37619L40.4948 2.3962C39.6175 3.71041 37.9291 5.95389 35.4231 9.12665C33.5156 11.3835 32.5317 12.638 32.472 12.8902C31.6943 13.6933 31.322 14.178 31.3619 14.3438C31.1559 14.4765 31.0694 14.6092 31.1026 14.7553C31.0429 14.7686 31.003 14.7488 30.9896 14.6889C30.6574 15.2266 30.1654 15.5717 29.5074 15.7244L28.8161 15.8838C28.7231 15.9036 28.6765 15.97 28.6832 16.0828L28.703 16.1692L28.9623 16.1093L28.9823 16.1824L28.3973 16.4081L27.3604 16.647L26.8153 16.6802C26.7355 16.7599 27.2474 16.6737 27.0481 16.72L26.3701 16.8794C25.9579 16.9723 25.732 16.9391 25.6921 16.7732L25.6123 16.793C25.6256 16.8661 25.6321 16.9192 25.6189 16.9656L25.579 16.7997L25.0339 16.9257C24.994 16.6737 24.2563 15.7576 22.8272 14.178C22.8006 13.8725 23.3057 13.4277 24.3361 12.8504L27.2474 10.2948C27.8988 9.45858 28.2843 8.11769 28.4107 6.27249L28.3708 5.84103C28.2578 4.54015 27.3138 3.49135 25.5391 2.68161C24.4889 1.97141 22.6011 1.59296 19.876 1.53328C17.616 1.72584 14.6646 2.5289 11.0354 3.92948C10.0384 4.65285 8.9018 5.36972 7.62562 6.07993L7.64549 6.30566C7.73197 6.29899 7.84482 6.25265 7.98439 6.17296C8.13064 6.15962 8.21045 6.22597 8.22381 6.35885L8.44969 6.23264L8.56271 6.22597L8.56939 6.33217C8.57607 6.43836 7.78506 7.05571 6.18316 8.18404L6.30937 8.38327L6.19652 8.38994L5.95043 8.30358C5.95711 8.36993 5.84408 8.41644 5.61152 8.43628L5.62471 8.55582L5.89066 8.8479C5.80435 8.85457 5.68465 8.82789 5.53172 8.77488C5.01334 8.8214 4.50814 9.193 4.00963 9.89671L4.13584 10.0958C4.56791 9.69748 4.82051 9.49843 4.89363 9.49176L4.92017 9.81702C4.84705 9.82369 4.73402 9.87003 4.58127 9.94972L4.85373 10.3613C5.36844 9.80574 5.95137 9.31728 6.58869 8.90758C6.90105 8.98728 7.06717 9.0868 7.07385 9.193L7.31309 9.17317C9.02801 7.90529 10.7231 6.98936 12.4048 6.4252L12.4246 6.65076C12.1123 7.11539 11.8996 7.35447 11.7865 7.36764C11.7999 7.52702 11.853 7.66639 11.9527 7.78593C11.9794 8.07135 11.2149 9.99624 9.66609 13.5539C6.14994 21.8243 3.19857 27.9441 0.799158 31.9003C0.805662 31.9798 0.852244 32.086 0.938728 32.2189C1.53023 32.0795 1.90254 31.9334 2.06197 31.7939L2.18836 31.7807L2.20822 32.0065L2.4276 31.9865L2.65365 31.8604C2.66033 31.9268 2.73346 31.9599 2.88621 31.9466L2.90625 32.1723C2.92611 32.3914 2.7999 32.7232 2.53394 33.1813C2.29471 33.4534 2.03543 34.0242 1.76297 34.8938L1.76947 35L1.98885 34.98C2.94615 33.9113 3.67054 32.8625 4.16906 31.8404C6.96082 31.024 9.08795 30.2209 10.5635 29.431C12.0458 29.3048 13.1757 28.9132 13.9469 28.2694L13.9335 28.15L13.3753 28.3159L13.2489 28.3292L13.2355 28.2097C14.3257 28.0438 15.0768 27.8047 15.4955 27.473C17.616 25.84 19.2179 24.6852 20.3014 24.0015C22.528 22.3687 23.9772 20.7755 24.6351 19.2291C24.7596 19.202 24.8837 19.1732 25.0074 19.1427C25.3198 19.1296 25.4926 19.1229 25.5391 19.1095C25.5258 19.0499 25.5525 19.0167 25.6123 19.0033C26.1108 18.9503 25.8715 19.0365 26.1906 18.9635L27.028 18.7711C26.9749 18.7843 26.9549 18.811 26.9682 18.864L27.0945 18.7843C27.0679 18.7843 27.048 18.7778 27.028 18.7711L27.1676 18.7379L27.1011 18.7778C27.1943 18.791 27.294 18.7843 27.407 18.7578L27.4668 19.0033L23.6581 25.0503L22.8138 26.1056L22.4018 27.4861L22.4816 27.4663L22.8936 27.2938L22.7607 27.8314L22.8006 27.9906L22.9135 28.13C22.8604 28.1433 22.8405 28.1765 22.8537 28.2362L22.8738 28.3226L23.0466 28.2827C23.2992 28.0636 23.4055 27.8646 23.3656 27.6854C23.6381 27.7317 23.8175 27.7517 23.9107 27.7252L23.9306 27.8114C23.7645 27.8513 23.678 27.984 23.6646 28.2097L23.6847 28.2961L23.7776 28.276C25.1603 26.7693 28.5503 21.6119 31.2689 18.1139C31.1824 17.7357 32.5982 17.2112 35.5228 16.5341L35.616 16.5143C35.7223 16.9723 35.4963 18.0807 34.938 19.8398C34.5791 20.9017 34.4063 21.4859 34.4328 21.5788C33.9675 22.9925 33.7481 23.7559 33.7747 23.8754L32.7377 27.2671C32.0664 29.0063 31.5547 30.8316 31.1958 32.7565C31.2556 32.7432 31.3485 32.7498 31.4816 32.783L31.6277 32.6568C31.641 32.7167 31.6809 32.7365 31.7407 32.7232L31.6809 32.4776L32.1329 32.4644C32.2658 32.4313 32.3788 32.2652 32.472 31.9599C32.4519 31.502 32.5451 31.2564 32.7511 31.2032C33.0302 30.1147 33.203 29.5704 33.263 29.5504C33.5221 28.4686 33.7149 27.8513 33.8411 27.6985C34.2335 26.2915 34.5191 25.5679 34.7053 25.5214L34.7452 25.6941L34.4593 26.4308C33.9608 28.6411 33.4556 30.3868 32.9439 31.6679L33.0902 32.305L33.1832 32.2852C34.4194 29.6301 36.2008 24.3732 38.5206 16.5143C38.5872 15.8239 38.9194 15.2863 39.5111 14.908L39.3781 14.7686L39.3582 14.6956C39.6241 14.6359 39.8101 14.5297 39.9165 14.3837C39.9033 14.3238 39.6706 14.2376 39.2186 14.1181L40.3753 9.1665C40.6277 8.94076 40.7739 8.8214 40.8205 8.8214L40.8406 9.07364C40.7806 9.08013 40.6876 9.11331 40.5813 9.18633L40.8007 9.49843C41.1993 9.06697 41.6314 8.69519 42.1034 8.38327C42.3426 8.44962 42.4623 8.52931 42.4757 8.609L42.6485 8.59566C43.9645 7.63322 45.2541 6.94285 46.5236 6.52473L46.5369 6.69061C46.3044 7.04237 46.1448 7.22159 46.0583 7.22826C46.0716 7.3478 46.1049 7.454 46.1646 7.54685C46.1847 7.76592 45.613 9.22618 44.4432 11.9343C41.771 18.2068 39.531 22.8465 37.7097 25.86C37.7164 25.9197 37.7563 25.9994 37.8294 26.1056C38.2747 25.9994 38.5605 25.8865 38.6735 25.7803L38.7533 25.7736L38.7667 25.9397L38.9527 25.9264L39.119 25.84C39.1255 25.8865 39.1854 25.9065 39.2984 25.8999L39.3116 26.0791C39.325 26.2383 39.232 26.4905 39.0258 26.8356C38.8331 27.0415 38.6336 27.473 38.4209 28.13L38.4276 28.2164L38.6004 28.203C39.325 27.3933 39.8766 26.5967 40.2556 25.8135C42.3758 25.1897 43.9911 24.5856 45.1078 23.9881C46.2444 23.8886 47.1019 23.5965 47.6869 23.1054L47.6802 23.0192L47.2481 23.1452L47.1551 23.1519L47.1485 23.0655C47.9727 22.9462 48.551 22.7603 48.8634 22.5147C50.472 21.28 51.6884 20.3973 52.5126 19.8796C55.0783 18.0144 56.2747 16.2222 56.1284 14.503ZM55.6899 14.6159L55.7496 15.2863C55.6698 15.4523 55.5835 15.5385 55.5037 15.5452L55.404 14.4035C55.59 14.4699 55.6832 14.5362 55.6899 14.6159ZM5.35892 9.21301L5.2459 9.21951L5.22603 9.01378L5.68465 8.97394L5.69133 9.08013C5.6182 9.0868 5.50517 9.12665 5.35892 9.21301ZM3.11894 31.5882C2.85299 31.4688 2.61375 31.4223 2.40773 31.4421L2.38101 31.1169C2.36783 30.9908 2.44096 30.9045 2.60039 30.8713C2.74664 30.8581 2.83312 30.9643 2.84631 31.1767C3.23197 30.7054 3.44467 30.4665 3.48457 30.4598L3.73049 30.5594C3.65068 31.2232 3.44467 31.5617 3.11894 31.5882ZM27.0547 6.58441C26.9417 6.59775 26.7157 6.24598 26.3899 5.54894L26.3701 5.34322C26.5828 5.32338 26.8021 5.66848 27.0347 6.37868L27.0547 6.58441ZM26.7355 4.10869L26.6425 4.32776L23.3922 2.9737C25.559 3.04672 26.6757 3.42499 26.7355 4.10869ZM13.0096 15.8771L12.551 15.917L12.531 15.7111L12.9896 15.6714L13.0096 15.8771ZM12.6373 8.80806L12.7504 8.80139L12.7769 9.12665C12.6705 9.13332 12.531 9.29253 12.3582 9.59795L12.3381 9.37222C12.5443 9.12665 12.6507 8.94076 12.6373 8.80806ZM11.6735 11.078L11.7134 11.5095L11.6004 11.5162L11.5605 11.0847L11.6735 11.078ZM11.1683 11.888L11.3877 11.8679C11.3678 12.2264 11.2682 12.4189 11.0887 12.4321L10.9757 12.4388C11.1152 12.1999 11.1817 12.014 11.1683 11.888ZM10.7895 13.0163L10.9157 13.0029L10.9224 13.1091L10.7164 13.4544L10.497 13.4742L10.4903 13.368C10.7097 13.3482 10.8094 13.2353 10.7895 13.0163ZM10.4172 14.0319L10.3508 14.5761L10.2377 14.5827L10.1913 14.0451L10.4172 14.0319ZM6.68836 24.6188C6.54211 25.3622 6.3825 25.7405 6.21639 25.7538L6.20971 25.6476C6.1698 25.2825 6.32941 24.9374 6.68836 24.6188ZM6.00369 26.0989L6.01037 26.2051C6.02355 26.3512 5.95711 26.4375 5.81086 26.444L5.80435 26.3378C5.791 26.2118 5.85744 26.1321 6.00369 26.0989ZM5.80435 29.1721L6.14994 29.139L6.16312 29.2585C6.07682 29.265 5.96379 29.3115 5.82422 29.3912L5.60484 29.411C5.59148 29.2983 5.66478 29.212 5.80435 29.1721ZM15.6418 26.1388C13.7008 27.0945 12.5575 27.7451 12.2186 28.0835C10.1182 28.8137 9.07459 29.265 9.09445 29.4442C7.22678 30.1811 5.99701 30.7254 5.40551 31.0639C5.26594 31.0772 5.06642 31.024 4.80064 30.9045C4.76742 30.5262 4.94021 30.2209 5.30566 29.9754C5.63139 29.9487 5.94375 29.9952 6.24293 30.1212C6.58869 29.942 7.19355 29.743 8.05101 29.5306L8.03098 29.3048L7.3398 29.3647C7.42611 29.2452 8.09074 28.9332 9.34037 28.4288L9.68613 28.3956L9.69281 28.5018C9.10113 28.5548 8.77541 28.7275 8.70228 29.0394C8.71564 29.1788 8.79545 29.2385 8.9417 29.2253C9.38695 28.9464 9.60633 28.7805 9.59965 28.734C10.4439 28.5748 12.7769 27.3534 16.5989 25.0768L16.6189 25.2825C16.6256 25.382 16.2999 25.6608 15.6418 26.1388ZM9.77912 28.0636C10.3376 28.0171 10.8161 27.7916 11.2149 27.4C11.3743 27.3866 11.4608 27.4463 11.4675 27.5857C11.1949 27.6124 10.6698 27.8379 9.90551 28.276L9.79248 28.2827L9.77912 28.0636ZM19.2377 20.8087L16.3064 23.1254C14.1262 24.5525 12.9564 25.2692 12.7903 25.2825C9.32051 27.1876 7.16033 28.1765 6.32273 28.2495L6.19652 28.2627C6.30287 27.8713 7.84482 24.7183 10.8361 18.7843C12.1522 18.6714 14.226 18.0609 17.051 16.9458L17.7422 16.8859C19.1713 16.7599 20.2414 17.0386 20.9462 17.7025L20.9859 18.1338C20.4541 19.6605 19.8693 20.55 19.2377 20.8087ZM13.5081 17.5896L13.9801 17.5498L13.9866 17.656L13.5148 17.6958L13.5081 17.5896ZM20.1351 16.4678L20.4809 16.4346C20.7999 16.5873 20.966 16.72 20.9794 16.8396L20.9859 16.9458C20.6802 16.9723 20.3944 16.8131 20.1351 16.4678ZM21.0724 11.1379C20.7667 11.5028 19.9291 12.1269 18.5597 13.0029C18.1078 13.0428 16.4261 13.6933 13.5148 14.9677C13.3693 14.9013 13.2089 14.8739 13.0495 14.8882L13.0295 14.6823C12.9963 14.2641 13.1824 13.7398 13.5945 13.1026C13.8205 11.9078 14.0664 11.2241 14.3391 11.0582L16.7652 5.6088C16.7385 5.2702 17.257 5.01128 18.3205 4.83207L18.6661 4.79889L18.6928 5.11099C19.7363 4.9516 20.3877 4.85875 20.6403 4.83874C22.5679 4.67286 23.5716 5.06447 23.6514 6.00041L23.8708 5.9804L23.8242 5.42958L24.0635 5.40957C24.6284 5.72166 24.9343 6.09994 24.9742 6.54456C25.0007 6.84999 24.8346 7.22826 24.4822 7.67973C24.3361 7.6929 24.2496 7.5867 24.2363 7.37431L23.997 7.39432L23.9439 8.05801C22.9668 9.51826 22.2555 10.2683 21.8168 10.3082C21.4179 10.8592 21.172 11.1312 21.0724 11.1379ZM22.5612 14.9545C22.3619 14.8216 22.2023 14.762 22.0828 14.7686L22.056 14.4434L22.2754 14.4235L22.7607 14.7089C22.7806 14.8615 22.7142 14.9412 22.5612 14.9545ZM24.1034 16.7797C24.3161 16.8661 24.4424 16.9589 24.469 17.0453L24.3626 17.0718L24.3693 17.0785C24.3493 17.0785 24.3227 17.0851 24.3027 17.0918L24.1433 17.2178L24.1034 16.7797ZM24.2496 17.6958L24.2297 17.6094L24.5089 17.5431L24.5288 17.6295L24.2496 17.6958ZM24.9209 18.4459C25.2067 18.3993 25.3463 18.3795 25.8781 18.26L25.8981 18.3463L24.8877 18.5786C24.9011 18.532 24.9142 18.4857 24.9209 18.4459ZM25.9048 18.864C25.4794 18.9038 25.5724 18.8506 24.8944 19.0033L24.8743 18.9172L25.7186 18.6449L26.1241 18.5521L26.1639 18.7113C25.9844 18.7511 26.1175 18.7511 25.9048 18.864ZM26.8021 18.6516C26.7023 18.6781 26.6227 18.6317 26.5761 18.5189L26.8354 18.459C26.9482 18.4325 27.0213 18.479 27.0481 18.5919L26.8021 18.6516ZM29.2348 16.0363L29.2149 15.9501L29.6336 15.8506L29.6735 16.0098L29.2348 16.0363ZM31.8339 31.9533C31.8604 31.8337 31.8671 31.7476 31.8537 31.6877L31.9469 31.6679C32.0597 31.6414 32.1262 31.6812 32.1529 31.7874L32.1728 31.8736L31.8339 31.9533ZM33.6551 16.72L33.469 16.6868C33.1698 16.8064 32.9172 16.8926 32.7112 16.9391L32.5384 16.9789C32.4387 17.0054 32.3589 16.9656 32.319 16.8594L33.5354 16.5806L33.9343 16.3948L34.0672 16.5475C33.8743 16.5873 33.7348 16.647 33.6551 16.72ZM34.5922 16.4213L34.5724 16.3351C34.6321 16.3217 34.7119 16.2754 34.7984 16.189L35.6624 15.99L35.6824 16.0762C35.2238 16.189 34.8582 16.3019 34.5922 16.4213ZM34.7253 14.6756C34.6654 14.6889 34.5857 14.7421 34.4859 14.8216C34.4727 14.762 34.353 14.762 34.1269 14.8151C34.0872 14.6491 34.7253 14.4169 36.0481 14.1114L36.234 14.0716L36.2739 14.231C35.3433 14.503 34.825 14.6558 34.7253 14.6756ZM37.0518 12.1667C36.9586 13.222 36.5865 13.8195 35.9283 13.9721L35.9085 13.8859L35.3235 14.1114L35.0642 14.1713C34.9313 14.2045 34.8116 14.1978 34.7053 14.1646L34.6522 13.9322C34.6321 13.846 35.4764 12.6777 37.1913 10.4342L37.3907 10.4675C37.4638 10.7728 37.3508 11.337 37.0518 12.1667ZM41.1661 8.64867L41.0865 8.65534L41.0731 8.48946L41.4187 8.45629L41.4254 8.54248C41.3656 8.55582 41.2791 8.58899 41.1661 8.64867ZM39.4712 25.6476C39.2717 25.5546 39.0922 25.5149 38.9395 25.5281L38.9194 25.2758C38.9128 25.1896 38.966 25.1298 39.079 25.0966C39.1921 25.0835 39.2585 25.163 39.2717 25.3357C39.5575 24.9706 39.7171 24.7847 39.7504 24.7847L39.9298 24.8577C39.8634 25.3622 39.7105 25.6276 39.4712 25.6476ZM57.644 6.6641C57.5575 6.67077 57.3914 6.40519 57.1321 5.86753L57.119 5.70165C57.2851 5.68831 57.4579 5.94722 57.6307 6.47821L57.644 6.6641ZM57.4048 4.76571L57.325 4.93826L54.8656 3.90947C56.5074 3.96265 57.3582 4.24807 57.4048 4.76571ZM46.9757 13.7066L46.6299 13.7398L46.6167 13.5738L46.9623 13.5473L46.9757 13.7066ZM46.6899 8.33675L46.7828 8.33008L46.8027 8.58232C46.7164 8.58899 46.6101 8.70853 46.4837 8.94076L46.4705 8.77488C46.6234 8.58232 46.6964 8.43628 46.6899 8.33675ZM45.9653 10.0626L45.9918 10.3879L45.8988 10.3945L45.8721 10.0693L45.9653 10.0626ZM45.5731 10.6799L45.7459 10.6666C45.726 10.9453 45.6529 11.0914 45.5265 11.1047L45.4335 11.1112C45.5332 10.9255 45.5798 10.7795 45.5731 10.6799ZM45.294 11.5295L45.3738 11.5228L45.3803 11.609L45.2275 11.8746L45.0546 11.888L45.0481 11.8016C45.2275 11.7883 45.3072 11.6954 45.294 11.5295ZM45.0148 12.2994L44.9549 12.7242L44.8751 12.7309L44.8419 12.3127L45.0148 12.2994ZM42.1765 20.3507C42.0635 20.9084 41.9439 21.1938 41.8175 21.207L41.8109 21.134C41.791 20.8552 41.9105 20.5898 42.1765 20.3507ZM41.6514 21.4726L41.6579 21.5456C41.6713 21.665 41.6182 21.7315 41.4985 21.738L41.4918 21.6518C41.4851 21.5654 41.5384 21.5057 41.6514 21.4726ZM41.5052 23.8089L41.771 23.7891L41.7776 23.8753C41.7179 23.8819 41.6247 23.9151 41.5184 23.975L41.3456 23.9881C41.3389 23.8953 41.3922 23.8356 41.5052 23.8089ZM48.9697 21.5057C47.5074 22.2293 46.6366 22.7204 46.3641 22.9727C44.7687 23.5302 43.9779 23.8754 43.9911 24.0148C42.5753 24.579 41.6448 24.9838 41.206 25.2427C41.0997 25.2493 40.9467 25.2095 40.7474 25.1166C40.7208 24.8312 40.8537 24.5988 41.1329 24.4263C41.3855 24.4064 41.6247 24.4396 41.8441 24.5325C42.11 24.3998 42.5687 24.2537 43.2201 24.0878L43.2067 23.9218L42.6616 23.9616C42.7283 23.8688 43.24 23.6297 44.1906 23.2447L44.4564 23.2249L44.4631 23.2979C44.0111 23.3378 43.7585 23.4705 43.7053 23.7094C43.7119 23.8156 43.7784 23.8688 43.8914 23.8554C44.2238 23.6364 44.3833 23.5103 44.3833 23.4705C45.0213 23.3576 46.7895 22.4283 49.6943 20.6893L49.7075 20.8552C49.7142 20.9282 49.4683 21.1406 48.9697 21.5057ZM44.5163 22.966C44.9482 22.9262 45.3138 22.7603 45.6197 22.4682C45.7325 22.4548 45.7992 22.508 45.8057 22.6142C45.6063 22.6341 45.2142 22.8001 44.6225 23.1187L44.5295 23.1254L44.5163 22.966ZM51.7082 17.4502L49.4948 19.2291C47.8396 20.3109 46.9425 20.8552 46.8027 20.8686C44.1706 22.3155 42.5354 23.0655 41.8907 23.1187L41.7977 23.1254C41.8773 22.8266 43.054 20.4304 45.3272 15.9301C46.3175 15.8439 47.8862 15.3726 50.0399 14.5231L50.5783 14.4765C51.6617 14.3837 52.4727 14.5961 53.0044 15.107L53.031 15.4323C52.6255 16.574 52.1869 17.2443 51.7082 17.4502ZM47.3612 15.0075L47.7067 14.9743L47.7134 15.0607L47.3678 15.0939L47.3612 15.0075ZM52.3929 14.1513L52.6589 14.1314C52.9048 14.2508 53.031 14.3572 53.0377 14.4434L53.0443 14.5164C52.8116 14.5362 52.5922 14.4169 52.3929 14.1513ZM53.0908 10.1091C52.8582 10.3879 52.2268 10.8657 51.1965 11.5295C50.8508 11.5627 49.5746 12.0538 47.3678 13.0096C47.2615 12.9698 47.1418 12.9566 47.0154 12.9633L47.0022 12.7972C46.9757 12.4786 47.1152 12.0803 47.4209 11.5959C47.5937 10.6799 47.7866 10.1688 47.9859 10.0492L49.8404 5.90738C49.8205 5.66181 50.2127 5.46275 51.0104 5.31004L51.2762 5.29021L51.2962 5.54245C52.0805 5.41624 52.5724 5.34322 52.7717 5.32338C54.234 5.19717 54.9985 5.48926 55.0583 6.20614L55.2311 6.19279L55.1978 5.79451L55.3708 5.78135C55.7962 6.01358 56.0221 6.2925 56.0488 6.62425C56.0687 6.86333 55.949 7.15524 55.6964 7.49384C55.5835 7.50701 55.5171 7.42749 55.5037 7.25494L55.3309 7.26811L55.2776 7.76592C54.5399 8.88775 54.0015 9.46525 53.6624 9.49176C53.3634 9.89671 53.1772 10.1024 53.0908 10.1091ZM53.8686 12.8702L53.8485 12.618L54.0213 12.6048L54.3936 12.8304C54.4003 12.9366 54.3471 12.9964 54.234 13.0096C54.0746 12.9101 53.9549 12.8636 53.8686 12.8702ZM22.9269 28.9929L22.7541 29.0328L22.6078 29.1588C22.6344 29.265 22.7008 29.3048 22.8138 29.2783C22.9269 29.2518 22.9734 29.1855 22.9469 29.0793L22.9269 28.9929ZM22.2689 27.6854L22.2888 27.7716C22.4018 27.7451 22.4482 27.6787 22.4217 27.5725L22.4018 27.4861C22.2955 27.5128 22.2489 27.5792 22.2689 27.6854ZM26.9482 16.5673L27.1477 16.521L27.1078 16.3484L26.9085 16.3948L26.9482 16.5673ZM87.263 21.6253C85.2422 22.0766 84.9896 21.9969 84.5642 22.0301L84.5776 22.1961L84.7637 22.1828L84.8634 22.1761L84.8369 22.1563L85.0561 22.0699C87.0568 21.8508 87.2895 21.9305 87.2695 21.7048L87.263 21.6253ZM76.3818 23.0655L76.3951 23.2316H76.4217L76.4085 23.0655H76.3818ZM75.1321 18.6914L74.9527 18.6317C74.8064 19.0234 74.7333 19.2556 74.74 19.3219L74.7467 19.395C74.8862 19.3883 75.0126 19.1494 75.1321 18.6914ZM87.675 21.5921L87.6884 21.758L87.9807 21.811L87.9675 21.6451L87.675 21.5921ZM73.9224 23.2713L73.4705 23.2182L73.3907 23.3908L73.3974 23.4772L76.0893 23.2514L76.0761 23.0855L73.9224 23.2713ZM72.6993 17.3839L72.6928 17.2975L72.5997 17.3042L72.4335 17.4104L72.5265 17.5696C72.6529 17.5564 72.7127 17.4966 72.6993 17.3839ZM88.9512 20.3707L89.0776 20.3574C89.1507 20.3507 89.1839 20.2911 89.1772 20.1849L89.1041 20.0255C88.6455 20.0653 88.4328 20.0853 88.0605 20.2911L88.0538 20.2049L87.5022 20.2579C87.4889 20.092 87.4425 20.0056 87.3693 20.0123L87.0835 20.0388C86.7511 20.0653 86.5915 20.0522 86.4254 20.1782C86.4187 20.1185 86.3988 20.092 86.3656 20.092L86.0466 20.1185L85.8604 20.2247C85.8537 20.165 85.8339 20.1383 85.8005 20.1383L85.6876 20.238L85.681 20.1517L85.2355 20.1185L85.1292 20.1252L85.1425 20.2911L85.3686 20.3507L85.5813 20.3376C85.6544 20.3841 85.734 20.3973 85.8272 20.3906L86.0134 20.2977L86.0199 20.3707C84.9764 20.6297 84.9829 20.5831 84.265 20.7027C84.1854 20.6495 84.1255 20.623 84.0856 20.6297L84.0724 20.6428C83.9926 20.6362 83.946 20.5831 83.9395 20.4968L84.3116 20.4504C84.3382 20.4504 84.3582 20.4769 84.5642 20.5168C84.8634 20.3707 84.8766 20.3109 85.0362 20.2977L85.0228 20.1317C83.9993 20.3309 84.4113 20.1982 83.1284 20.3109L83.0687 20.3176L83.0553 20.1517C84.7038 19.9526 84.1522 20.0653 84.7171 19.9061C84.7238 19.9658 84.7437 19.9923 84.7769 19.9923C84.8375 19.9305 84.9171 19.8908 85.003 19.8796L85.116 19.8729C85.6941 19.8264 85.887 19.9393 87.0303 19.6207L87.0369 19.6937L87.2231 19.6007L87.3959 19.5875C87.3825 19.4215 87.6351 19.395 87.7216 19.3883L87.7082 19.2091C85.7008 19.614 85.1758 19.5012 84.6175 19.6605L84.6108 19.5875C84.0857 19.6804 84.0657 19.6405 83.9328 19.6472C83.8929 19.6539 83.8331 19.687 83.7665 19.7534C83.76 19.6937 83.74 19.667 83.7001 19.667C83.6802 19.667 83.6735 19.6737 83.6669 19.6737L81.9653 19.9525C81.9586 19.9061 81.9387 19.8796 81.8988 19.8861C81.0148 20.072 81.2541 20.1052 80.0709 20.2114C80.0176 20.218 79.9447 20.2445 79.8515 20.3044C79.8448 20.2579 79.8183 20.2314 79.7585 20.2379L79.034 20.2977L78.5488 20.4171C78.5421 20.3707 78.5156 20.3442 78.4556 20.3507C78.1832 20.4238 77.9439 20.4703 77.7511 20.4836H77.7377C77.6182 20.4968 77.7977 20.4504 77.7045 20.4106L77.5583 20.4968C77.3456 20.5168 77.4586 20.4836 76.7275 20.4901C75.4447 20.6495 75.5843 20.6693 75.4447 20.676L74.966 20.6428C74.9727 20.6893 74.9462 20.7225 74.8929 20.7225C74.3478 20.6495 74.0687 20.5631 74.062 20.4636C74.1351 19.946 74.2615 19.6804 74.441 19.667L74.534 19.6605L74.4542 19.8331L74.5473 19.8264C74.7201 19.7336 74.7999 19.6472 74.7932 19.5675L74.7799 19.3883L74.6071 19.4016L74.5937 19.2358C74.5805 19.1095 74.6004 18.9967 74.647 18.9038L75.0392 18.2733L75.0525 18.4392L75.2385 18.4258L75.2253 18.26L75.119 18.1073C75.2585 17.9879 75.3649 17.9214 75.4512 17.9149L75.4447 17.8285L75.1921 17.8485L75.172 17.5963C75.6772 16.5475 75.9165 15.9368 75.9033 15.7642L76.0828 15.8373C76.1958 15.8306 76.2489 15.7642 76.2422 15.6447L76.0694 15.658L76.0627 15.585C76.0506 15.4638 76.0737 15.3417 76.1292 15.2333C76.4018 14.9478 76.528 14.6624 76.5015 14.3637C76.5547 14.357 76.5813 14.3837 76.588 14.4434C76.8205 14.3107 77 13.9589 77.1329 13.3747C77.5451 12.6313 78.1299 11.1446 78.8944 8.92092C80.3567 4.99145 80.2969 4.57333 80.503 3.64406L80.3302 3.65722C80.3434 3.77676 80.3168 3.88963 80.2637 3.99583C80.144 3.94931 80.051 3.92281 79.9846 3.92948L79.9779 3.85645C79.9512 3.51785 80.0909 3.11307 80.41 2.6351L80.4896 2.62843L80.6359 3.19926L80.8086 3.18609C80.8021 3.14625 80.8485 2.92051 80.9417 2.50239C80.935 2.41603 80.8686 2.36302 80.7355 2.35635L80.5694 2.46255C80.5562 2.34301 80.5627 2.03109 80.5828 1.53328L80.4963 1.53995C80.35 1.39391 80.2769 1.27437 80.2702 1.17484L79.3198 1.2677C79.3131 1.20135 79.2799 1.10182 79.2134 0.975786C79.2068 0.889424 79.4194 0.803062 79.8582 0.716876L80.051 0.789897L80.2305 0.6837C80.237 0.743381 80.2702 0.769887 80.3367 0.763392L80.5162 0.657195C80.5228 0.716876 80.5561 0.743381 80.6227 0.736711L80.709 0.730216L80.6956 0.537657C80.5627 0.550997 80.2105 0.550997 79.6522 0.530987L79.4727 0.650524L79.466 0.544327C75.0059 0.90926 72.4735 1.11516 71.8686 1.17484C71.7888 1.18151 71.4764 1.17484 70.9246 1.1615C70.9313 1.23452 70.8649 1.27437 70.732 1.28771L70.5392 1.20135L69.8877 1.3674C69.7348 1.38056 69.4757 1.37389 69.1167 1.33422C69.0171 1.41374 68.8974 1.46026 68.7511 1.4736C68.6713 1.48009 69.7016 1.42041 70.6587 1.35406C70.559 1.43375 70.4063 1.48009 70.1936 1.5001C70.0473 1.51344 69.9209 1.49343 69.8146 1.43375C69.6683 1.5001 69.1965 1.6063 68.4055 1.76551L68.2127 1.69266L65.1019 2.17046C64.9822 2.11078 64.8426 2.09077 64.6832 2.10411C64.5169 2.11745 64.2377 2.17713 63.8523 2.28333L62.35 2.90717L62.4631 3.09306C62.5362 3.08639 62.6425 3.04672 62.7687 2.9737L63.3007 3.02004L63.234 3.51785C62.7422 3.73692 62.4564 4.06218 62.3766 4.4738C61.6388 4.79889 61.2732 5.0313 61.2732 5.17067L61.2799 5.25703L61.3929 5.25036L61.5922 5.14416L61.825 5.42291L61.8582 5.80785C61.8714 5.92739 60.6284 8.53598 58.1425 13.6336C55.9889 18.5454 54.8589 21.2337 54.7526 21.7181C54.0148 21.9239 53.5893 22.2226 53.4631 22.6209C53.4764 22.7469 53.6956 22.8333 54.121 22.8665L54.141 23.0589L53.9482 23.3774L53.9814 23.7626C54.0015 23.9616 54.5399 24.1143 55.5967 24.2205C55.59 24.1542 55.6234 24.1143 55.6964 24.1077C55.7164 24.3466 55.65 24.8112 55.497 25.5016L55.6101 25.4949C56.0486 24.8976 56.2548 24.4859 56.2348 24.2604L56.3279 24.2537C56.4343 24.247 56.5473 24.3666 56.6802 24.6253C56.5473 24.6785 56.082 25.7338 55.2843 27.7982L55.3974 27.984L55.5104 27.9775C56.4874 25.5082 57.0989 24.1408 57.3515 23.8819C58.6344 23.7691 60.8545 23.5435 64.0052 23.2049L64.2045 23.0855C64.2112 23.1519 64.2511 23.1851 64.3242 23.1784L64.5302 23.1586L64.7298 23.039C64.7363 23.1054 64.7762 23.1386 64.8493 23.1319L67.2355 22.9262C67.8671 22.8731 68.1661 22.6806 68.1396 22.3553C68.1329 22.2691 68.5052 22.1694 69.2563 22.0632C69.3294 22.0566 69.4358 22.0766 69.582 22.1231C69.5753 22.0632 69.9542 22.0036 70.712 21.9372C70.732 21.5389 70.8582 21.3265 71.0843 21.3067L71.0642 21.1141C70.8515 21.134 70.6123 21.1872 70.3331 21.28C69.8346 21.2535 69.5156 21.2137 69.3825 21.1671C69.2496 21.2402 69.15 21.28 69.0768 21.2867L67.415 21.3399L67.2157 21.4461C67.209 21.3862 67.1691 21.3597 67.0959 21.3664L67.003 21.373L66.7903 21.4792C66.7836 21.4194 66.6108 21.373 66.265 21.3265L66.0525 21.4526L65.6403 21.4857L65.6336 21.3795C67.7739 21.1473 68.8309 20.8552 68.8042 20.5101C68.9439 20.4968 69.0171 20.5631 69.0302 20.7027L69.6552 20.5433L69.6351 20.3507L64.5104 20.4901C64.5169 20.5566 64.4837 20.5963 64.4107 20.603L63.7858 20.55C63.6262 20.5631 63.4933 20.6096 63.387 20.6893L63.1544 20.603C62.5096 20.6562 62.031 20.7359 61.7119 20.8354C61.2732 20.8022 60.788 20.8087 60.2496 20.8552L59.0997 20.9547L58.5679 20.8951C58.5414 20.5566 59.1993 18.8905 60.5553 15.9036C60.9477 14.8947 61.3064 14.2641 61.6522 14.0252C61.7253 14.0186 61.8316 14.0451 61.9779 14.1048L62.7955 13.826L63.2142 13.8924C63.9187 13.8327 64.7363 13.6336 65.6735 13.2884C65.9063 13.2685 66.0791 13.2819 66.2053 13.3349L66.8302 13.1888L68.6913 13.0296C69.4822 12.9633 70.3396 12.7905 71.2702 12.5051L71.2504 12.3127C70.9048 12.3459 70.7253 12.2862 70.712 12.1467C70.6921 11.888 70.4395 11.7818 69.9542 11.8214L69.9343 11.629L70.4462 11.483L71.7888 11.3701L71.7687 11.1777C71.7157 11.1842 71.4432 11.1777 70.938 11.1577L70.918 10.952L71.4365 10.9055C71.5761 10.8923 71.6359 10.8258 71.6227 10.6931C70.9247 10.7131 70.5724 10.6799 70.5657 10.5869C65.7001 10.8258 63.2608 10.8723 63.2474 10.7196C63.1743 10.7263 63.0746 10.7728 62.9417 10.8525L62.8153 10.6533C64.1049 7.91863 64.8626 6.53807 65.082 6.51806C65.0885 6.62425 65.0354 6.7968 64.9157 7.02921L64.9224 7.11539L65.1284 7.09556C65.6403 5.8742 66.0724 5.24369 66.4313 5.21718C67.9601 5.08431 66.2186 4.98478 69.4889 4.4738C69.6219 4.53348 69.7149 4.55999 69.7814 4.55332C71.0642 4.29458 72.8523 4.02233 75.1455 3.74359L75.1321 3.55103L73.9091 3.66389L73.8959 3.47151C74.0421 3.45817 74.1617 3.41165 74.2615 3.33214L74.268 3.43833C74.3346 3.43166 74.4276 3.38515 74.5473 3.30546C74.76 3.28562 74.9194 3.30546 75.0325 3.36531C75.4579 3.25245 75.8035 3.18609 76.0561 3.15941L76.8205 3.08639C77.0067 2.96703 77.093 2.86083 77.0865 2.76131L77.0798 2.67494C76.887 2.69478 76.6676 2.68161 76.4085 2.6351C76.4018 2.5289 76.4549 2.45588 76.5813 2.4227L78.0037 2.29L78.6552 2.12395C78.6617 2.19697 78.6951 2.22365 78.7481 2.22365C78.8146 2.21698 78.9078 2.17046 79.0273 2.09077C79.0605 2.09744 79.1004 2.09744 79.1336 2.10411C79.0473 2.28333 78.9475 2.54224 78.8478 2.88067L78.6617 2.89401C78.6485 2.7678 78.6152 2.65511 78.5553 2.55541L78.4623 2.56208C76.734 7.36764 75.9631 9.60462 74.3679 13.295C74.0753 14.2376 73.8294 14.762 73.6167 14.8748C73.6234 14.981 73.6899 15.034 73.8029 15.0209C73.8426 15.4855 73.7363 15.9435 73.4772 16.3948C72.7392 18.5189 72.2474 19.6804 71.9948 19.8928L72.1609 20.8951C72.1676 21.0013 72.1145 21.0609 72.0015 21.0743L71.8287 21.0876C71.802 20.8087 71.7023 20.676 71.5228 20.696L71.4298 20.7027C71.2038 21.0544 71.031 21.4592 70.918 21.9305L71.0908 21.9172C71.3235 21.7647 71.4298 21.5854 71.4098 21.3795L71.7556 21.3464L71.9549 21.4194C71.7955 21.6716 71.7223 21.8709 71.7355 22.0234L71.8287 22.1828L71.6026 22.7138L71.6093 22.8001C71.8086 22.7801 72.028 22.8465 72.2608 22.9858C72.4202 22.9727 72.593 22.8996 72.7858 22.7734C72.9852 22.7536 73.7296 22.7469 75.0126 22.7469L75.6572 22.5279C76.4417 22.5212 76.5679 22.5412 77.2459 22.4815L77.5251 22.4548L77.6713 22.3553L77.678 22.4417C78.3892 22.3818 78.4358 22.4283 78.9941 22.4947L79.0007 22.5811L78.6086 22.6142L78.6217 22.7801C78.7415 22.7669 78.8478 22.7336 78.9343 22.6607C79.034 22.6541 79.0937 22.7071 79.1004 22.8266C78.941 22.84 78.7615 22.8796 78.562 22.9462L78.3892 22.8863C78.1167 22.9593 78.1765 22.9793 77.9904 22.9925L77.7179 22.9395C77.7246 22.9858 77.6979 23.019 77.6514 23.019C77.658 23.1254 77.7179 23.1784 77.8176 23.1717L78.0967 23.1452L79.5523 23.019L80.1041 22.8996C80.1108 22.9462 80.1307 22.9727 80.1772 22.966L80.443 22.8665L80.9417 22.8266C81.3272 22.7935 81.3205 22.7669 82.158 22.6341C82.1514 22.5811 82.1713 22.561 82.2112 22.5546L82.2179 22.6274C83.5805 22.3952 83.6669 22.3818 83.8862 22.3088L83.9061 22.3487C84.2452 22.2691 84.0523 22.289 84.1455 22.2226C84.1522 22.2823 84.1721 22.3088 84.2053 22.3088L84.4445 22.289L84.4313 22.1098L83.946 22.1031L83.9395 22.0899C83.9195 22.0964 83.9061 22.0964 83.8862 22.1031H83.8198V22.1164C83.4941 22.1828 83.4874 22.1363 83.2747 22.1563L82.0583 22.2226L82.0516 22.1363L82.7296 22.0434L82.9755 22.0234L83.1153 21.9239L83.1218 22.0102C84.0791 21.9305 84.418 22.1694 88.8448 21.227C89.0841 21.207 89.0642 21.0079 89.2171 20.5963C89.136 20.6019 89.0551 20.5834 88.9844 20.5433C88.619 20.6827 88.4261 20.6163 87.7216 20.7292C87.6617 20.7359 87.6153 20.6827 87.5952 20.5765L87.5885 20.5035L88.2665 20.5233C88.3929 20.5101 88.6388 20.4901 89.0045 20.2844C89.0045 20.3442 88.8714 20.3774 88.9512 20.3707ZM56.2216 20.8951L55.9091 20.9216C55.8959 20.7955 56.062 20.3176 56.4076 19.5012L56.6138 19.4813C56.6204 19.6737 56.4941 20.145 56.2216 20.8951ZM56.6004 19.3818L56.5937 19.2954C56.587 19.1892 56.6537 19.1162 56.7999 19.083L56.8064 19.1692C56.8131 19.2954 56.7467 19.3685 56.6004 19.3818ZM60.7548 22.5877L60.7615 22.6739L60.2429 22.7204L60.2363 22.6341L60.7548 22.5877ZM60.1299 22.5345C60.1366 22.6407 59.9772 22.7603 59.6314 22.8796L58.9933 22.8333L58.7873 22.8531L58.7674 22.6607L60.1299 22.5345ZM64.3309 3.22594L64.0184 3.25245L64.0119 3.14625C64.0052 3.04005 64.065 2.96703 64.1978 2.93385L64.3109 2.92718L64.5236 3.01337C64.5303 3.13958 64.4705 3.2126 64.3309 3.22594ZM69.0835 2.29667L69.1832 2.29L69.1964 2.48238L68.9105 2.50906C68.904 2.40287 68.9571 2.32985 69.0835 2.29667ZM67.887 2.71479L67.415 2.6616L67.4083 2.57542C68.0265 2.52223 68.2326 2.45588 68.6115 2.34968C68.6182 2.4227 68.6847 2.44921 68.8042 2.43604L68.8176 2.62843L68.6314 2.64844C68.4852 2.6616 68.3589 2.64177 68.2526 2.58209C68.1396 2.65511 68.0199 2.70145 67.887 2.71479ZM68.4787 4.43396L68.472 4.34759L69.2363 4.27457L69.243 4.36094L68.4787 4.43396ZM69.2962 3.77009L69.2895 3.66389L69.6617 3.63072L69.6683 3.73692L69.2962 3.77009ZM69.3825 2.46922L69.2829 2.47589L69.3693 2.26999L70.2201 2.19047L70.2268 2.29667C70.0074 2.31651 69.7216 2.37619 69.3825 2.46922ZM69.8146 4.30108L69.8012 4.10869L70.1735 4.07552C70.2999 4.06218 70.3664 4.12186 70.373 4.25474L69.8146 4.30108ZM72.0679 1.23452L71.5893 1.3674L71.503 1.37389C71.2769 1.39391 70.9844 1.38724 70.6388 1.35406C71.257 1.31421 71.8485 1.2677 72.0679 1.23452ZM71.5561 3.35864L71.5627 3.44483L70.9048 3.50469L70.8981 3.41832L71.5561 3.35864ZM72.6329 3.86962C72.6262 3.7901 72.5 3.73692 72.2407 3.71041L71.5828 3.8963L71.0776 3.91614C70.9645 3.83644 70.9048 3.78343 70.8981 3.74359L71.4831 3.77676L72.7992 3.56437L73.4705 3.59087L73.4772 3.69707C73.1448 3.73025 72.8656 3.7901 72.6329 3.86962ZM79.4063 2.12395C79.4859 2.13062 79.5392 2.13062 79.559 2.13062C79.7918 1.90506 80.051 1.72584 80.35 1.59963C80.1108 2.64844 79.7385 3.42499 79.2268 3.92948L78.8545 3.70374C79.1669 2.91384 79.353 2.38953 79.4063 2.12395ZM78.263 4.08219L78.356 4.07552C78.2296 4.31442 78.1167 4.44045 78.0236 4.44712L78.0037 4.19488C78.0635 4.19488 78.15 4.15504 78.263 4.08219ZM77.5251 5.84103C77.7045 5.12415 77.8773 4.71937 78.0369 4.61318L78.0436 4.69936C77.9504 5.36323 77.8042 5.71499 77.6115 5.7415L77.6448 6.15962C77.4852 6.38535 77.412 6.5579 77.4187 6.69061L77.3257 6.69728L77.2725 6.11977C77.3788 6.10661 77.4653 6.01358 77.5251 5.84103ZM77.2392 6.7968C77.2459 6.89651 77.1795 7.12874 77.0466 7.48717L76.9534 7.49384L76.9335 7.2416C77.0598 6.94952 77.1661 6.80347 77.2392 6.7968ZM71.8753 22.342L71.8686 22.2691L72.0414 22.2558L72.0612 22.508C71.9683 22.5147 71.9018 22.4615 71.8753 22.342ZM79.5392 22.5412C79.5325 22.4815 79.5059 22.4548 79.4462 22.4615L79.0141 22.5014L79.0074 22.415H79.0473L80.0709 22.3288L80.0776 22.415C79.7784 22.4283 79.5989 22.4749 79.5392 22.5412ZM79.0273 22.3288C79.0672 22.3487 79.0473 22.3687 79.0273 22.3818C79.0074 22.3753 78.9809 22.3553 79.0273 22.3288ZM79.0806 21.134L78.5089 21.1805L78.5022 21.0941L79.0206 21.0478L79.4727 20.9349C79.4794 20.9879 79.5059 21.0079 79.5657 21.0013C80.1041 20.9084 80.051 20.8819 80.3101 20.8619C80.3966 20.8552 80.4499 20.9084 80.4564 21.0146L79.0806 21.134ZM81.0813 20.9614C80.7622 20.9282 80.7422 20.9017 80.5163 20.9216L80.5096 20.8485L81.0213 20.8022L81.028 20.8752C80.9749 20.8819 81.1676 20.8951 81.0813 20.9614ZM81.1212 20.8686L81.1145 20.7955L81.3937 20.769L81.4003 20.8421L81.1212 20.8686ZM81.7392 20.8154L81.7327 20.7424C81.7791 20.7359 81.8456 20.7027 81.9321 20.6362C82.0716 20.623 82.1448 20.7158 82.1581 20.822L81.7392 20.8154ZM82.5303 20.7158L82.5236 20.6297L82.8627 20.603L82.8693 20.6893L82.5303 20.7158ZM83.0022 20.676C82.9956 20.5765 83.0354 20.5168 83.1219 20.5035L83.2348 20.6495C83.2283 20.603 83.2481 20.5765 83.288 20.5698L83.3745 20.7292L83.0022 20.676ZM77.9838 22.84L77.9705 22.6739L77.9172 22.6806L77.9306 22.8465L77.9838 22.84ZM89.6626 19.8198C89.7157 19.7866 89.7422 19.7534 89.616 19.7336C89.5561 19.7999 89.6824 19.8198 89.5495 19.8264L89.5561 19.8861C89.5694 19.8729 89.6026 19.8529 89.6292 19.8331L89.5561 19.8928V19.8994L89.4165 20.0787L89.6956 19.9791H89.729L89.7157 19.8131L89.6626 19.8198ZM90.1477 20.1982L90.0945 20.2049L90.1078 20.3707L90.5 20.3376C90.4933 20.2314 90.234 20.1982 90.1477 20.1982ZM89.5429 19.9061L89.5495 19.8994V19.8928C89.5495 19.8928 89.5429 19.8994 89.5429 19.9061Z" fill="black"/>
  <path d="M64.0251 7.61987L64.0318 7.72607L64.2511 7.70624C64.2444 7.63989 64.271 7.53369 64.3176 7.40081L64.2977 7.20843C64.2045 7.2151 64.1116 7.35447 64.0251 7.61987ZM61.9247 2.57542L61.9048 2.38286L61.5923 2.40936L61.6123 2.60192L61.9247 2.57542ZM55.8294 13.9721C55.8161 13.7928 55.2578 13.096 54.1544 11.8679C54.1344 11.6424 54.5134 11.3038 55.291 10.8592L57.5111 8.92759C58.0097 8.2969 58.302 7.27478 58.3885 5.85437L58.3619 5.52911C58.2754 4.54665 57.5642 3.75693 56.2149 3.15292C55.4172 2.61526 53.9815 2.31651 51.9078 2.26332C50.1928 2.40936 47.9527 3.02004 45.1943 4.10202C44.4365 4.64635 43.5724 5.1905 42.6019 5.73483L42.6153 5.90088C42.675 5.89421 42.768 5.86104 42.8745 5.78802C42.9874 5.77468 43.054 5.82786 43.0605 5.93406L43.2268 5.8477L43.3064 5.84103L43.3131 5.91405C43.3198 6.00041 42.7216 6.47154 41.5119 7.31462L41.6049 7.48717L41.5251 7.49384L41.3257 7.42082C41.3324 7.4805 41.2459 7.52035 41.0798 7.53369L41.0865 7.60671L41.2792 7.84561C41.2194 7.85228 41.1264 7.82578 41 7.77926C40.7209 7.80576 40.4482 7.95181 40.1758 8.23055L40.2888 7.73941C40.6943 5.99374 40.9735 4.44712 41.1197 3.1064L41.0997 3.02004C40.8205 2.84082 40.5481 2.58858 40.2955 2.26999C40.3022 2.06426 40.3022 1.94473 40.2955 1.91822L40.2754 1.8452L40.1958 1.86521C39.3183 3.17942 37.6299 5.42291 35.1242 8.59566C33.2164 10.8525 32.2326 12.1068 32.1728 12.3591C31.3951 13.1623 31.0228 13.6468 31.0627 13.8128C30.8567 13.9455 30.7702 14.0783 30.8036 14.2243C30.7437 14.2376 30.7038 14.2176 30.6906 14.1579C30.3582 14.6956 29.8664 15.0407 29.2082 15.1934L28.5169 15.3526C28.4239 15.3726 28.3773 15.439 28.384 15.5518L28.404 15.638L28.6632 15.5784L28.6832 15.6514L28.0982 15.8771L27.0613 16.116L26.5163 16.1492C26.4365 16.2289 26.9482 16.1425 26.7489 16.189L26.0709 16.3484C25.6589 16.4413 25.4328 16.4081 25.3929 16.2422L25.3131 16.2621C25.3265 16.3351 25.3332 16.3881 25.3198 16.4346L25.2799 16.2687L24.7348 16.3948C24.6951 16.1425 23.9571 15.2266 22.528 13.6468C22.5015 13.3415 23.0067 12.8967 24.0369 12.3194L26.9482 9.76383C27.5997 8.92759 27.9852 7.5867 28.1115 5.7415L28.0716 5.31004C27.9586 4.00917 27.0149 2.96036 25.24 2.15063C24.1899 1.44042 22.3022 1.06197 19.5768 1.00229C17.3168 1.19468 14.3656 1.99791 10.7363 3.39849C9.73924 4.12186 8.60264 4.83873 7.32647 5.54894L7.34633 5.77467C7.43281 5.768 7.54584 5.72166 7.68541 5.64197C7.83166 5.62863 7.91147 5.69498 7.92465 5.82786L8.1507 5.70165L8.26373 5.69498L8.27024 5.80118C8.27692 5.90738 7.4859 6.52473 5.88401 7.65305L6.01039 7.85228L5.89736 7.85895L5.65145 7.77259C5.65813 7.83894 5.5451 7.88546 5.31236 7.90529L5.32572 8.02483L5.59151 8.31692C5.5052 8.32359 5.38549 8.2969 5.23274 8.24389C4.71418 8.29023 4.20899 8.66201 3.71047 9.36555L3.83686 9.56478C4.26893 9.16649 4.52135 8.96744 4.59447 8.96077L4.62119 9.28603C4.54807 9.29253 4.43504 9.33904 4.28211 9.41874L4.55475 9.83018C5.06948 9.27472 5.65235 8.78633 6.28953 8.3766C6.6019 8.45629 6.76818 8.55582 6.77469 8.66201L7.0141 8.64218C8.72902 7.37431 10.4239 6.45837 12.1056 5.89421L12.1256 6.11977C11.8131 6.58441 11.6004 6.82348 11.4874 6.83665C11.5007 6.99603 11.554 7.13541 11.6537 7.25494C11.6802 7.54036 10.9157 9.46525 9.36711 13.0229C5.85078 21.2933 2.89959 27.4131 0.5 31.3691C0.50668 31.4488 0.553262 31.555 0.63957 31.6877C1.23125 31.5483 1.60338 31.4025 1.76299 31.2629L1.8892 31.2497L1.90924 31.4753L2.12844 31.4555L2.35449 31.3294C2.36117 31.3958 2.4343 31.429 2.58723 31.4156L2.60709 31.6414C2.62695 31.8604 2.50074 32.1922 2.23479 32.6501C1.99555 32.9224 1.73627 33.4932 1.46381 34.3628L1.47049 34.4688L1.68986 34.449C2.64699 33.3804 3.37156 32.3315 3.87008 31.3094C6.66184 30.493 8.78879 29.6898 10.2645 28.9001C11.7467 28.7739 12.8766 28.3822 13.6477 27.7384L13.6344 27.619L13.0761 27.7849L12.9497 27.7982L12.9365 27.6787C14.0265 27.5128 14.7777 27.2737 15.1965 26.942C17.3168 25.309 18.9187 24.1542 20.0022 23.4705C22.229 21.8377 23.678 20.2445 24.3361 18.6981C24.4557 18.6714 24.5754 18.6449 24.7082 18.6117C25.0206 18.5986 25.1936 18.5919 25.24 18.5786C25.2268 18.5189 25.2533 18.4857 25.3131 18.4724C25.8116 18.4194 25.5724 18.5055 25.8914 18.4325L26.729 18.2401L26.8686 18.2068L26.8022 18.2466C26.8951 18.26 26.9948 18.2533 27.1078 18.2268L27.1676 18.4724L23.359 24.5191L22.5148 25.5746L22.1026 26.9552L22.1824 26.9353L22.5945 26.7628L22.4616 27.3004L22.5015 27.4596L22.6145 27.599C22.5613 27.6123 22.5414 27.6455 22.5546 27.7052L22.5746 27.7916L22.7474 27.7517C23 27.5327 23.1064 27.3336 23.0665 27.1544C23.3389 27.2007 23.5184 27.2207 23.6115 27.1942L23.6314 27.2804C23.4653 27.3203 23.3788 27.453 23.3656 27.6787L23.3855 27.7649L23.4787 27.7451C24.8612 26.2383 28.2511 21.081 30.9698 17.5829C30.8833 17.2047 32.2992 16.6802 35.2238 16.0031L35.3168 15.9833C35.4232 16.4413 35.1973 17.5498 34.6388 19.3088C34.2799 20.3707 34.1071 20.9547 34.1336 21.0478C33.6683 22.4615 33.449 23.2249 33.4757 23.3443L32.4388 26.7361C31.7673 28.4753 31.2556 30.3005 30.8966 32.2253C30.9564 32.2122 31.0496 32.2189 31.1824 32.252L31.3287 32.1258C31.3419 32.1857 31.3818 32.2055 31.4417 32.1922L31.3818 31.9466L31.8339 31.9334C31.9668 31.9003 32.0798 31.7342 32.1728 31.429C32.1529 30.971 32.2459 30.7254 32.4519 30.6722C32.7311 29.5838 32.9041 29.0394 32.9638 29.0194C33.2231 27.9376 33.4158 27.3203 33.5421 27.1676C33.9343 25.7605 34.2201 25.0369 34.4063 24.9904L34.4462 25.163L34.1604 25.8999C33.6617 28.1102 33.1566 29.8558 32.6448 31.1369L32.791 31.7741L32.884 31.7542C34.1205 29.0991 35.9018 23.8421 38.2216 15.9833C38.2881 15.2929 38.6205 14.7553 39.212 14.377L39.0791 14.2376L39.059 14.1646C39.325 14.1048 39.5111 13.9987 39.6175 13.8527C39.6041 13.7928 39.3716 13.7066 38.9195 13.5871L40.0761 8.63551C40.3287 8.40977 40.4749 8.29041 40.5214 8.29041L40.5414 8.54248C40.4816 8.54915 40.3885 8.58232 40.2821 8.65534L40.5015 8.96744C40.9003 8.53598 41.3324 8.1642 41.8042 7.85228C42.0436 7.91863 42.1632 7.99832 42.1765 8.07784L42.3493 8.06468C43.6654 7.10223 44.9549 6.41186 46.2246 5.99374L46.2378 6.15962C46.0052 6.51139 45.8456 6.69061 45.7593 6.69728C45.7725 6.81681 45.8057 6.92301 45.8656 7.01587C45.8855 7.23493 45.3139 8.69519 44.144 11.4033C41.472 17.6758 39.2318 22.3155 37.4106 25.329C37.4172 25.3887 37.4571 25.4684 37.5303 25.5746C37.9757 25.4684 38.2615 25.3555 38.3745 25.2493L38.4542 25.2427L38.4675 25.4085L38.6537 25.3954L38.8198 25.309C38.8265 25.3555 38.8862 25.3754 38.9993 25.3689L39.0126 25.5481C39.0258 25.7073 38.9328 25.9595 38.7268 26.3046C38.534 26.5105 38.3346 26.942 38.1219 27.599L38.1284 27.6854L38.3014 27.672C39.0258 26.8623 39.5776 26.0657 39.9564 25.2825C42.0768 24.6587 43.6921 24.0545 44.8087 23.4571C45.9454 23.3576 46.8027 23.0655 47.3877 22.5744L47.381 22.488L46.949 22.6142L46.856 22.6209L46.8493 22.5345C47.6735 22.415 48.2519 22.2293 48.5642 21.9837C50.1728 20.749 51.3892 19.8663 52.2134 19.3484C54.7792 17.4834 55.9757 15.6912 55.8294 13.9721ZM55.3907 14.0849L55.4505 14.7553C55.3708 14.9213 55.2844 15.0075 55.2045 15.0142L55.1049 13.8725C55.291 13.9389 55.384 14.0052 55.3907 14.0849ZM5.05977 8.68202L4.94692 8.68852L4.92688 8.48279L5.38549 8.44295L5.39217 8.54915C5.31904 8.55582 5.20602 8.59566 5.05977 8.68202ZM2.81979 31.0572C2.554 30.9376 2.31459 30.8913 2.10857 30.9111L2.08203 30.5859C2.06867 30.4598 2.1418 30.3735 2.30141 30.3403C2.44748 30.3271 2.53397 30.4333 2.54732 30.6457C2.93281 30.1744 3.14551 29.9355 3.18541 29.9289L3.43133 30.0284C3.35152 30.6921 3.14551 31.0307 2.81979 31.0572ZM26.7556 6.05342C26.6425 6.06676 26.4165 5.71499 26.0909 5.01795L26.0709 4.81223C26.2836 4.79239 26.503 5.13749 26.7355 5.8477L26.7556 6.05342ZM26.4365 3.57771L26.3434 3.79677L23.093 2.44254C25.26 2.51556 26.3768 2.89401 26.4365 3.57771ZM12.7105 15.3461L12.2519 15.386L12.232 15.1801L12.6906 15.1402L12.7105 15.3461ZM12.3382 8.27707L12.4512 8.2704L12.4779 8.59566C12.3716 8.60233 12.232 8.76154 12.059 9.06697L12.0392 8.84123C12.2452 8.59566 12.3515 8.40977 12.3382 8.27707ZM11.3744 10.5471L11.4143 10.9785L11.3014 10.9852L11.2615 10.5537L11.3744 10.5471ZM10.8693 11.357L11.0887 11.337C11.0687 11.6954 10.969 11.888 10.7895 11.9011L10.6765 11.9078C10.8161 11.6689 10.8825 11.483 10.8693 11.357ZM10.4904 12.4853L10.6167 12.472L10.6232 12.5781L10.4172 12.9234L10.1979 12.9433L10.1913 12.8371C10.4107 12.8172 10.5104 12.7044 10.4904 12.4853ZM10.1182 13.5009L10.0518 14.0451L9.93875 14.0517L9.89217 13.5141L10.1182 13.5009ZM6.3892 24.0878C6.24295 24.8312 6.08352 25.2095 5.91723 25.2228L5.91072 25.1166C5.87082 24.7515 6.03025 24.4064 6.3892 24.0878ZM5.70453 25.5679L5.71121 25.6741C5.72457 25.8202 5.65813 25.9065 5.51188 25.913L5.5052 25.8068C5.49184 25.6808 5.55828 25.6011 5.70453 25.5679ZM5.5052 28.6411L5.85078 28.608L5.86414 28.7275C5.77766 28.734 5.66463 28.7805 5.52506 28.8602L5.30569 28.88C5.2925 28.7672 5.36563 28.681 5.5052 28.6411ZM15.3426 25.6078C13.4018 26.5635 12.2585 27.2141 11.9195 27.5525C9.81905 28.2827 8.77543 28.734 8.79547 28.9132C6.92762 29.6501 5.69785 30.1943 5.10635 30.5329C4.96678 30.546 4.76744 30.493 4.50149 30.3735C4.46826 29.9952 4.64106 29.6898 5.00668 29.4442C5.3324 29.4177 5.64477 29.4642 5.94395 29.5903C6.28953 29.411 6.8944 29.212 7.75186 28.9996L7.73199 28.7738L7.04065 28.8335C7.12695 28.7142 7.79176 28.4022 9.04139 27.8978L9.38697 27.8646L9.39365 27.9708C8.80215 28.0238 8.47643 28.1963 8.4033 28.5084C8.41649 28.6478 8.49629 28.7075 8.64254 28.6942C9.08797 28.4154 9.30717 28.2495 9.30067 28.203C10.1448 28.0438 12.4779 26.8225 16.2999 24.5458L16.3198 24.7515C16.3265 24.851 16.0007 25.1298 15.3426 25.6078ZM9.48014 27.5327C10.0384 27.4861 10.5171 27.2606 10.9157 26.869C11.0754 26.8556 11.1618 26.9153 11.1683 27.0547C10.8959 27.0814 10.3708 27.3069 9.60635 27.7451L9.49332 27.7517L9.48014 27.5327ZM18.9388 20.2777L16.0074 22.6009C13.8272 24.028 12.6574 24.7448 12.4844 24.7582C9.01485 26.6631 6.85449 27.6522 6.01707 27.7252L5.89068 27.7384C5.99703 27.3468 7.53916 24.194 10.5303 18.26C11.8463 18.1471 13.9202 17.5364 16.7452 16.4214L17.4365 16.3616C18.8656 16.2355 19.9358 16.5143 20.6403 17.178L20.6802 17.6094C20.1552 19.1296 19.5702 20.019 18.9388 20.2777ZM13.209 17.0586L13.681 17.0188L13.6876 17.125L13.2157 17.1648L13.209 17.0586ZM19.8361 15.9368L20.1817 15.9036C20.5007 16.0563 20.6669 16.189 20.6802 16.3086L20.6869 16.4148C20.381 16.4413 20.0952 16.2819 19.8361 15.9368ZM20.7732 10.6069C20.4675 10.9718 19.6299 11.5959 18.2608 12.472C17.8087 12.5118 16.127 13.1623 13.2157 14.4367C13.0701 14.3703 12.9098 14.3428 12.7504 14.357L12.7305 14.1513C12.6973 13.7332 12.8833 13.2088 13.2955 12.5717C13.5214 11.3768 13.7674 10.6931 14.0399 10.5272L16.466 5.07781C16.4395 4.73921 16.9579 4.4803 18.0214 4.30108L18.3671 4.2679L18.3937 4.58C19.4373 4.42062 20.0885 4.32776 20.3411 4.30775C22.2689 4.14187 23.2725 4.53348 23.3523 5.46942L23.5716 5.44941L23.5251 4.89859L23.7645 4.87858C24.3294 5.1905 24.6351 5.56895 24.675 6.01358C24.7016 6.319 24.5355 6.69728 24.1832 7.14875C24.0369 7.16191 23.9505 7.05571 23.9373 6.84332L23.6979 6.86333L23.6448 7.52702C22.6676 8.98728 21.9564 9.73733 21.5178 9.77717C21.119 10.328 20.8731 10.6002 20.7732 10.6069ZM22.2623 14.4235C22.0627 14.2906 21.9033 14.231 21.7836 14.2376L21.7571 13.9124L21.9764 13.8924L22.4616 14.178C22.4816 14.3305 22.415 14.4102 22.2623 14.4235ZM23.8044 16.2487C24.0171 16.3351 24.1433 16.4279 24.1698 16.5143L24.0635 16.5408L24.0702 16.5475C24.0503 16.5475 24.0236 16.5541 24.0037 16.5608L23.8441 16.6868L23.8044 16.2487ZM23.9505 17.1648L23.9306 17.0785L24.2097 17.0121L24.2298 17.0985L23.9505 17.1648ZM24.6219 17.9149C24.9078 17.8684 25.0473 17.8485 25.5791 17.729L25.5989 17.8152L24.5887 18.0476C24.6019 18.0011 24.6153 17.9547 24.6219 17.9149ZM25.6056 18.333C25.1802 18.3728 25.2732 18.3196 24.5952 18.4724L24.5754 18.386L25.4261 18.1139L25.8317 18.0211L25.8716 18.1803C25.6854 18.2201 25.8183 18.2201 25.6056 18.333ZM26.503 18.1206C26.4033 18.1471 26.3235 18.1008 26.2769 17.9879L26.5362 17.928C26.6492 17.9015 26.7223 17.948 26.7489 18.0609L26.503 18.1206ZM28.9358 15.5053L28.9158 15.4191L29.3346 15.3194L29.3745 15.4788L28.9358 15.5053ZM31.5347 31.4223C31.5613 31.3028 31.5679 31.2166 31.5546 31.1567L31.6477 31.1369C31.7608 31.1104 31.8272 31.1502 31.8538 31.2564L31.8738 31.3426L31.5347 31.4223ZM33.356 16.189L33.1698 16.1559C32.8708 16.2754 32.6182 16.3616 32.412 16.4081L32.2392 16.4479C32.1396 16.4744 32.0598 16.4346 32.0199 16.3284L33.2363 16.0497L33.6351 15.8638L33.7682 16.0165C33.5754 16.0563 33.4358 16.116 33.356 16.189ZM34.2933 15.8903L34.2732 15.8041C34.3332 15.7907 34.4128 15.7444 34.4993 15.658L35.3634 15.4588L35.3833 15.5452C34.9247 15.658 34.559 15.7709 34.2933 15.8903ZM34.4261 14.1446C34.3664 14.1579 34.2866 14.211 34.1869 14.2906C34.1735 14.231 34.054 14.231 33.828 14.284C33.7881 14.1181 34.4261 13.8859 35.7489 13.5804L35.935 13.5406L35.975 13.7C35.0444 13.9721 34.5258 14.1248 34.4261 14.1446ZM36.7526 11.6357C36.6596 12.691 36.2873 13.2884 35.6292 13.4411L35.6093 13.3549L35.0243 13.5804L34.7652 13.6403C34.6322 13.6735 34.5126 13.6668 34.4063 13.6336L34.353 13.4012C34.3332 13.315 35.1773 12.1467 36.8922 9.9032L37.0915 9.93638C37.1646 10.2418 37.0518 10.806 36.7526 11.6357ZM40.8671 8.11769L40.7873 8.12436L40.774 7.95848L41.1197 7.9253L41.1262 8.01149C41.0665 8.02483 40.9801 8.05801 40.8671 8.11769ZM39.1721 25.1166C38.9727 25.0236 38.7933 24.9837 38.6403 24.9971L38.6205 24.7448C38.6138 24.6587 38.6669 24.5988 38.7799 24.5656C38.8929 24.5525 38.9594 24.632 38.9727 24.8045C39.2585 24.4396 39.418 24.2537 39.4512 24.2537L39.6307 24.3267C39.5642 24.8312 39.4115 25.0966 39.1721 25.1166ZM57.3449 6.13311C57.2585 6.13978 57.0923 5.8742 56.8332 5.33655L56.8198 5.17067C56.9859 5.15733 57.1589 5.41624 57.3317 5.94722L57.3449 6.13311ZM57.1056 4.23473L57.0258 4.40728L54.5665 3.37848C56.2083 3.43166 57.059 3.71708 57.1056 4.23473ZM46.6765 13.1757L46.3309 13.2088L46.3176 13.0428L46.6632 13.0096L46.6765 13.1757ZM46.3907 7.80577L46.4837 7.79909L46.5037 8.05134C46.4172 8.05801 46.3109 8.17754 46.1847 8.40977L46.1713 8.24389C46.3242 8.05133 46.3974 7.90529 46.3907 7.80577ZM45.6661 9.5316L45.6928 9.85686L45.5997 9.86353L45.5731 9.53827L45.6661 9.5316ZM45.274 10.1488L45.4468 10.1356C45.4269 10.4144 45.3538 10.5604 45.2276 10.5736L45.1344 10.5802C45.2341 10.3945 45.2806 10.2485 45.274 10.1488ZM44.9948 10.9985L45.0746 10.9919L45.0813 11.078L44.9284 11.3436L44.7556 11.357L44.7489 11.2706C44.9284 11.2573 45.0082 11.1644 44.9948 10.9985ZM44.7157 11.7684L44.6559 12.1932L44.5761 12.1999L44.5429 11.7818L44.7157 11.7684ZM41.8773 19.8197C41.7645 20.3774 41.6448 20.6628 41.5184 20.676L41.5119 20.603C41.4918 20.3242 41.6116 20.0587 41.8773 19.8197ZM41.3523 20.9416L41.359 21.0146C41.3723 21.134 41.3191 21.2003 41.1993 21.207L41.1928 21.1208C41.1862 21.0344 41.2393 20.9748 41.3523 20.9416ZM41.206 23.2779L41.472 23.2581L41.4785 23.3443C41.4187 23.3509 41.3257 23.3841 41.2194 23.444L41.0466 23.4571C41.0399 23.3643 41.093 23.3046 41.206 23.2779ZM48.6706 20.9748C47.2083 21.6983 46.3374 22.1894 46.065 22.4417C44.4698 22.9992 43.6787 23.3443 43.6921 23.4836C42.2762 24.048 41.3456 24.4528 40.907 24.7117C40.8007 24.7183 40.6477 24.6785 40.4482 24.5856C40.4217 24.3002 40.5546 24.0678 40.8339 23.8953C41.0865 23.8754 41.3257 23.9086 41.5451 24.0015C41.8109 23.8688 42.2695 23.7227 42.9209 23.5567L42.9078 23.3908L42.3693 23.4373C42.4358 23.3443 42.9475 23.1054 43.8981 22.7204L44.1639 22.7004L44.1706 22.7734C43.7186 22.8133 43.466 22.9462 43.4128 23.1851C43.4195 23.2913 43.4859 23.3443 43.5989 23.3311C43.9313 23.112 44.0908 22.9858 44.0908 22.9462C44.729 22.8333 46.497 21.904 49.4018 20.165L49.415 20.3309C49.415 20.3973 49.1691 20.6096 48.6706 20.9748ZM44.2172 22.435C44.6492 22.3952 45.0149 22.2293 45.3205 21.9372C45.4336 21.9305 45.5 21.977 45.5067 22.0832C45.3072 22.1031 44.915 22.2691 44.3235 22.5877L44.2305 22.5942L44.2172 22.435ZM51.4093 16.9192L49.1958 18.6981C47.5407 19.7799 46.6433 20.3242 46.5037 20.3376C43.8716 21.7845 42.2363 22.5345 41.5915 22.5877L41.4985 22.5942C41.5783 22.2956 42.7548 19.8994 45.028 15.3991C46.0184 15.3129 47.5872 14.8416 49.7407 13.9921L50.2792 13.9455C51.3627 13.8527 52.1735 14.0651 52.7053 14.5761L52.732 14.9013C52.3265 16.043 51.8877 16.7133 51.4093 16.9192ZM47.062 14.4765L47.4078 14.4434L47.4143 14.5297L47.0687 14.5629L47.062 14.4765ZM52.0937 13.6203L52.3597 13.6005C52.6056 13.7198 52.732 13.826 52.7385 13.9124L52.7452 13.9854C52.5126 14.0052 52.2933 13.8859 52.0937 13.6203ZM52.7918 9.57794C52.559 9.85686 51.9276 10.3347 50.8974 10.9985C50.5518 11.0317 49.2754 11.5228 47.0687 12.4786C46.9623 12.4388 46.8426 12.4256 46.7164 12.4321L46.7031 12.2662C46.6765 11.9476 46.8161 11.5494 47.1219 11.0649C47.2947 10.1488 47.4874 9.6378 47.6869 9.51826L49.5414 5.37639C49.5214 5.13082 49.9135 4.93177 50.7112 4.77905L50.9772 4.75922L50.997 5.01128C51.7814 4.88525 52.2732 4.81223 52.4727 4.79239C53.9351 4.66619 54.6993 4.95827 54.7593 5.67515L54.9321 5.66181L54.8989 5.26352L55.0717 5.25036C55.497 5.48259 55.7231 5.76133 55.7496 6.09327C55.7695 6.33217 55.65 6.62425 55.3974 6.96286C55.2843 6.97602 55.2179 6.89651 55.2045 6.72378L55.0317 6.73712L54.9787 7.23493C54.2407 8.35676 53.7023 8.93409 53.3634 8.96077C53.0642 9.36555 52.8781 9.57145 52.7918 9.57794ZM53.5694 12.3392L53.5496 12.087L53.7224 12.0738L54.0945 12.2994C54.1012 12.4056 54.0481 12.4655 53.9351 12.4786C53.7754 12.3791 53.6559 12.3326 53.5694 12.3392ZM22.6277 28.4619L22.4549 28.5018L22.3087 28.6278C22.3354 28.734 22.4018 28.7739 22.5148 28.7473C22.6277 28.7208 22.6743 28.6545 22.6477 28.5483L22.6277 28.4619ZM21.9698 27.1544L21.9896 27.2406C22.1026 27.2141 22.1492 27.1477 22.1227 27.0415L22.1026 26.9552C21.9963 26.9817 21.9497 27.0482 21.9698 27.1544ZM26.6758 18.3263L26.8022 18.2466C26.7754 18.2466 26.7556 18.24 26.7355 18.2335C26.6891 18.2466 26.6691 18.2798 26.6758 18.3263ZM26.6492 16.0363L26.8486 15.99L26.8087 15.8173L26.6093 15.8638L26.6492 16.0363ZM73.6234 22.7403L73.1713 22.6873L73.0915 22.8598L73.0982 22.9462L75.7903 22.7204L75.7769 22.5546L73.6234 22.7403ZM76.0828 22.5345L76.096 22.7004H76.1225L76.1093 22.5345H76.0828ZM87.3759 21.0609L87.3892 21.227L87.6817 21.28L87.6684 21.1141L87.3759 21.0609ZM86.9638 21.0941C84.9432 21.5456 84.6906 21.4659 84.2652 21.4991L84.2784 21.665L84.4646 21.6518L84.5642 21.6451L84.5377 21.6253L84.7571 21.5389C86.7578 21.3199 86.9904 21.3995 86.9705 21.1738L86.9638 21.0941ZM74.8332 18.1604L74.6537 18.1008C74.5074 18.4922 74.4343 18.7246 74.441 18.791L74.4475 18.864C74.5872 18.8573 74.7134 18.6184 74.8332 18.1604ZM72.4004 16.8529L72.3937 16.7665L72.3007 16.7732L72.1344 16.8794L72.2276 17.0386C72.3538 17.0254 72.4135 16.9656 72.4004 16.8529ZM77.6847 22.3088L77.6713 22.1429L77.6182 22.1496L77.6314 22.3155L77.6847 22.3088ZM88.6522 19.8398L88.7784 19.8264C88.8515 19.8197 88.8848 19.7601 88.8781 19.6539L88.805 19.4945C88.3463 19.5343 88.1337 19.5543 87.7615 19.7601L87.7548 19.6737L87.2031 19.7269C87.1899 19.5608 87.1433 19.4747 87.0702 19.4813L86.7844 19.5078C86.452 19.5343 86.2925 19.5212 86.1262 19.6472C86.1197 19.5875 86.0997 19.5608 86.0665 19.5608L85.7474 19.5875L85.5613 19.6937C85.5546 19.6339 85.5347 19.6074 85.5015 19.6074L85.3885 19.7069L85.3818 19.6207L84.9365 19.5875L84.8302 19.5942L84.8434 19.7601L85.0694 19.8197L85.2821 19.8066C85.3553 19.8529 85.4351 19.8663 85.528 19.8596L85.7142 19.7667L85.7209 19.8398C84.6773 20.0985 84.684 20.0522 83.9661 20.1715C83.8863 20.1185 83.8265 20.092 83.7866 20.0985L83.7732 20.1118C83.6936 20.1052 83.647 20.0522 83.6403 19.9658L84.0126 19.9193C84.0392 19.9193 84.059 19.946 84.2651 19.9858C84.5642 19.8398 84.5776 19.7799 84.737 19.7667L84.7238 19.6007C83.7001 19.7999 84.1123 19.667 82.8295 19.7799L82.7695 19.7866L82.7563 19.6207C84.4048 19.4215 83.853 19.5343 84.418 19.3751C84.4247 19.4348 84.4447 19.4613 84.4779 19.4613C84.5385 19.3996 84.618 19.3598 84.7038 19.3484L84.8168 19.3419C85.3952 19.2954 85.588 19.4083 86.7313 19.0897L86.7378 19.1627L86.9239 19.0697L87.0967 19.0565C87.0835 18.8905 87.3361 18.864 87.4224 18.8573L87.4093 18.6781C85.4018 19.083 84.8766 18.9702 84.3183 19.1296L84.3116 19.0565C83.7866 19.1494 83.7667 19.1095 83.6336 19.1162C83.5937 19.1229 83.534 19.1561 83.4675 19.2224C83.4609 19.1627 83.441 19.1361 83.4011 19.1361C83.3811 19.1361 83.3745 19.1427 83.3679 19.1427L81.6661 19.4215C81.6596 19.3751 81.6396 19.3484 81.5997 19.3551C80.7157 19.541 80.9549 19.5742 79.7717 19.6804C79.7186 19.687 79.6455 19.7136 79.5525 19.7732C79.5459 19.7269 79.5191 19.7004 79.4594 19.7069L78.7348 19.7667L78.2496 19.8861C78.243 19.8398 78.2164 19.8131 78.1567 19.8197C77.884 19.8928 77.6448 19.9393 77.452 19.9525H77.4388C77.3191 19.9658 77.4985 19.9193 77.4055 19.8796L77.2593 19.9658C77.0466 19.9858 77.1596 19.9525 76.4284 19.9591C75.1455 20.1185 75.2851 20.1383 75.1455 20.145L74.6669 20.1118C74.6736 20.1584 74.647 20.1915 74.5937 20.1915C74.0488 20.1185 73.7697 20.0321 73.763 19.9326C73.8361 19.415 73.9623 19.1494 74.1418 19.1361L74.235 19.1296L74.1552 19.3021L74.2482 19.2954C74.421 19.2024 74.5008 19.1162 74.4941 19.0365L74.4809 18.8573L74.3079 18.8706L74.2947 18.7046C74.2814 18.5786 74.3014 18.4657 74.3478 18.3728L74.74 17.7421L74.7534 17.9082L74.9395 17.8949L74.9261 17.729L74.8198 17.5763C74.9594 17.4567 75.0657 17.3904 75.1522 17.3837L75.1455 17.2975L74.8929 17.3174L74.8731 17.0651C75.3783 16.0165 75.6175 15.4058 75.6041 15.2333L75.7836 15.3063C75.8966 15.2996 75.9497 15.2333 75.9432 15.1137L75.7703 15.1271L75.7637 15.054C75.7514 14.9328 75.7745 14.8107 75.8302 14.7023C76.1027 14.4169 76.229 14.1314 76.2023 13.8327C76.2556 13.826 76.2821 13.8527 76.2888 13.9124C76.5215 13.7797 76.701 13.4277 76.8339 12.8437C77.2459 12.1003 77.8309 10.6134 78.5952 8.38994C80.0577 4.46046 79.9978 4.04234 80.2038 3.11307L80.031 3.12624C80.0444 3.24578 80.0178 3.35864 79.9646 3.46484C79.8449 3.41832 79.7519 3.39182 79.6854 3.39849L79.6787 3.32547C79.6522 2.98686 79.7918 2.58209 80.1108 2.10411L80.1906 2.09744L80.3369 2.66827L80.5097 2.65511C80.503 2.61526 80.5496 2.38953 80.6426 1.97141C80.6359 1.88505 80.5694 1.83203 80.4365 1.82536L80.2704 1.93156C80.2571 1.81202 80.2637 1.5001 80.2836 1.00229L80.1971 1.00896C80.0511 0.862919 79.9779 0.743381 79.9713 0.643854L79.0206 0.736711C79.0141 0.670359 78.9809 0.570832 78.9143 0.444624C78.9078 0.358438 79.1205 0.272076 79.559 0.185889L79.7519 0.258911L79.9314 0.152713C79.938 0.212395 79.9712 0.2389 80.0377 0.23223L80.2172 0.126033C80.2239 0.185889 80.2571 0.212395 80.3235 0.205724L80.41 0.199054L80.3966 0.00667024C80.2637 0.0198352 79.9115 0.0198352 79.353 0L79.1736 0.119538L79.1669 0.0133405C74.7068 0.378273 72.1743 0.584173 71.5694 0.643854C71.4896 0.650524 71.1773 0.643854 70.6257 0.630514C70.6322 0.703535 70.5657 0.743381 70.4328 0.756721L70.24 0.670359L69.5887 0.836413C69.4358 0.849578 69.1765 0.842908 68.8176 0.803062C68.7179 0.882754 68.5982 0.92927 68.452 0.942611C68.3723 0.949105 69.4026 0.889424 70.3597 0.823073C70.26 0.902765 70.1071 0.949105 69.8944 0.969116C69.7482 0.982281 69.6219 0.962446 69.5156 0.902765C69.3694 0.969116 68.8974 1.07531 68.1064 1.23452L67.9137 1.1615L64.8029 1.63948C64.6832 1.57979 64.5436 1.55978 64.384 1.57312C64.2179 1.58629 63.9388 1.64615 63.5533 1.75234L62.0511 2.37619L62.1639 2.56208C62.237 2.55541 62.3434 2.51556 62.4698 2.44254L63.0015 2.48905L62.9351 2.98687C62.4432 3.20593 62.1574 3.53119 62.0776 3.94264C61.3398 4.2679 60.9742 4.50031 60.9742 4.63968L60.9809 4.72587L61.0937 4.71937L61.2933 4.61318L61.5258 4.89192L61.559 5.27686C61.5724 5.3964 60.3294 8.00482 57.8434 13.1026C55.6899 18.0144 54.5598 20.7027 54.4534 21.1872C53.7157 21.3929 53.2903 21.6916 53.1639 22.0899C53.1773 22.2159 53.3966 22.3023 53.822 22.3355L53.8419 22.5279L53.6492 22.8465L53.6825 23.2316C53.7023 23.4306 54.2407 23.5833 55.2977 23.6895C55.291 23.6232 55.3243 23.5833 55.3974 23.5767C55.4172 23.8156 55.3508 24.2802 55.1979 24.9706L55.3109 24.9639C55.7496 24.3666 55.9557 23.955 55.9358 23.7294L56.0288 23.7227C56.1351 23.7161 56.2482 23.8356 56.381 24.0943C56.2482 24.1475 55.7829 25.2028 54.9852 27.2671L55.0982 27.453L55.2112 27.4463C56.1884 24.9773 56.7999 23.6099 57.0524 23.3509C58.3354 23.2381 60.5553 23.0125 63.706 22.6739L63.9055 22.5544C63.912 22.6209 63.9519 22.6541 64.0251 22.6474L64.2313 22.6274L64.4306 22.508C64.4373 22.5744 64.4772 22.6076 64.5503 22.6009L66.9365 22.3952C67.5679 22.342 67.8671 22.1496 67.8404 21.8243C67.8339 21.738 68.206 21.6384 68.9571 21.5322C69.0303 21.5256 69.1366 21.5456 69.2829 21.5919C69.2762 21.5322 69.6552 21.4726 70.413 21.4062C70.4328 21.0079 70.559 20.7955 70.7851 20.7755L70.7652 20.5831C70.5525 20.603 70.3131 20.6562 70.034 20.749C69.5355 20.7225 69.2164 20.6827 69.0835 20.6362C68.9505 20.7092 68.8508 20.749 68.7777 20.7557L67.116 20.8087L66.9165 20.9149C66.9098 20.8552 66.8701 20.8287 66.797 20.8354L66.7038 20.8419L66.4911 20.9483C66.4844 20.8884 66.3116 20.8419 65.966 20.7955L65.7533 20.9216L65.3413 20.9547L65.3346 20.8485C67.475 20.6163 68.5318 20.3242 68.5052 19.9791C68.6448 19.9658 68.7179 20.0321 68.7311 20.1715L69.356 20.0123L69.3361 19.8197L64.2112 19.9591C64.2179 20.0255 64.1847 20.0653 64.1116 20.072L63.4867 20.019C63.3272 20.0321 63.1943 20.0787 63.088 20.1584L62.8552 20.072C62.2105 20.1252 61.7318 20.2047 61.4128 20.3044C60.9742 20.2712 60.4889 20.2777 59.9505 20.3242L58.8007 20.4238L58.2689 20.3641C58.2422 20.0255 58.9003 18.3595 60.2563 15.3726C60.6485 14.3637 61.0074 13.7332 61.353 13.4943C61.4262 13.4876 61.5325 13.5141 61.6787 13.5738L62.4963 13.295L62.915 13.3614C63.6197 13.3017 64.4373 13.1026 65.3745 12.7574C65.6071 12.7375 65.7799 12.7509 65.9063 12.8039L66.531 12.6578L68.3922 12.4985C69.1832 12.4321 70.0407 12.2596 70.9713 11.9741L70.9512 11.7818C70.6056 11.8149 70.4261 11.7551 70.413 11.6157C70.3929 11.357 70.1403 11.2506 69.6552 11.2904L69.6351 11.0981L70.147 10.952L71.4896 10.8391L71.4698 10.6468C71.4165 10.6533 71.144 10.6468 70.6388 10.6268L70.619 10.421L71.1374 10.3745C71.2769 10.3613 71.3369 10.2948 71.3235 10.1621C70.6257 10.182 70.2732 10.1488 70.2667 10.0559C65.4011 10.2948 62.9616 10.3413 62.9484 10.1886C62.8753 10.1953 62.7754 10.2418 62.6426 10.3215L62.5163 10.1223C63.8057 7.38765 64.5635 6.00691 64.7829 5.98707C64.7896 6.09327 64.7363 6.26582 64.6233 6.49822L64.6299 6.58441L64.8361 6.56457C65.3478 5.34322 65.7799 4.7127 66.1388 4.6862C67.6676 4.55332 65.9261 4.45379 69.1966 3.94264C69.3294 4.0025 69.4224 4.029 69.4889 4.02233C70.7717 3.76342 72.5598 3.49135 74.853 3.2126L74.8397 3.02004L73.6168 3.13291L73.6034 2.94035C73.7496 2.92718 73.8694 2.88067 73.969 2.80098L73.9757 2.90717C74.0421 2.90068 74.1351 2.85416 74.2548 2.77447C74.4675 2.75463 74.627 2.77447 74.74 2.83415C75.1654 2.72146 75.5111 2.65493 75.7637 2.62843L76.528 2.55541C76.7142 2.43604 76.8007 2.32985 76.794 2.23014L76.7873 2.14396C76.5945 2.16379 76.3753 2.15063 76.116 2.10411C76.1093 1.99791 76.1624 1.92489 76.2888 1.89172L77.7112 1.75901L78.3627 1.59296C78.3694 1.66598 78.4026 1.69249 78.4557 1.69249C78.5221 1.68599 78.6153 1.63948 78.7348 1.55978C78.7682 1.56645 78.8079 1.56645 78.8412 1.57312C78.7548 1.75234 78.6552 2.01125 78.5553 2.34968L78.3694 2.36302C78.356 2.23681 78.3228 2.12395 78.263 2.02442L78.1698 2.03109C76.4417 6.83665 75.6706 9.07364 74.0754 12.764C73.7829 13.7066 73.5369 14.231 73.3242 14.3438C73.3309 14.45 73.3974 14.503 73.5104 14.4899C73.5503 14.9545 73.444 15.4125 73.1847 15.8638C72.4468 17.9879 71.9549 19.1494 71.7023 19.3618L71.8686 20.3641C71.8751 20.4703 71.822 20.53 71.709 20.5433L71.5362 20.5566C71.5097 20.2777 71.4098 20.145 71.2305 20.165L71.1374 20.1715C70.9113 20.5233 70.7385 20.9282 70.6257 21.3995L70.7985 21.3862C71.031 21.2337 71.1374 21.0544 71.1175 20.8485L71.4631 20.8154L71.6624 20.8884C71.503 21.1406 71.4299 21.3399 71.4432 21.4924L71.5362 21.6518L71.3102 22.1828L71.3168 22.2691C71.5163 22.2491 71.7355 22.3155 71.9683 22.4548C72.1277 22.4417 72.3007 22.3687 72.4933 22.2425C72.6929 22.2226 73.4373 22.2159 74.7201 22.2159L75.3649 21.9969C76.1492 21.9902 76.2754 22.0102 76.9534 21.9504L77.2326 21.9239L77.3788 21.8243L77.3855 21.9107C78.0967 21.8508 78.1433 21.8974 78.7016 21.9637L78.7083 22.0501L78.3161 22.0832L78.3295 22.2491C78.449 22.2358 78.5553 22.2026 78.6418 22.1296C78.7415 22.1231 78.8012 22.1761 78.8079 22.2956C78.6485 22.3088 78.469 22.3486 78.2695 22.415L78.0967 22.3553C77.8243 22.4283 77.884 22.4482 77.6979 22.4615L77.4254 22.4085C77.4321 22.4548 77.4055 22.488 77.359 22.488C77.3656 22.5942 77.4254 22.6474 77.5251 22.6407L77.8042 22.6142L79.26 22.488L79.8116 22.3687C79.8183 22.415 79.8382 22.4417 79.8848 22.435L80.1507 22.3355L80.6492 22.2956C81.0347 22.2625 81.028 22.2358 81.8656 22.1031C81.859 22.0501 81.8788 22.0301 81.9187 22.0234L81.9254 22.0964C83.2881 21.8642 83.3744 21.8508 83.5938 21.7778L83.6138 21.8177C83.9527 21.738 83.76 21.758 83.853 21.6916C83.8597 21.7513 83.8796 21.7778 83.9128 21.7778L84.1522 21.758L84.1389 21.5788L83.6537 21.5721L83.647 21.5588C83.627 21.5654 83.6138 21.5654 83.5938 21.5721H83.5273V21.5854C83.2016 21.6518 83.1949 21.6053 82.9822 21.6253L81.7658 21.6916L81.7593 21.6053L82.4373 21.5124L82.6832 21.4924L82.8228 21.3929L82.8295 21.4792C83.7866 21.3995 84.1255 21.6384 88.5524 20.696C88.7918 20.676 88.7717 20.4769 88.9247 20.0653C88.8436 20.0709 88.7627 20.0524 88.6921 20.0123C88.3265 20.1517 88.1337 20.0853 87.4291 20.1982C87.3694 20.2049 87.3228 20.1517 87.3027 20.0455L87.2961 19.9725L87.974 19.9923C88.1004 19.9791 88.3464 19.9591 88.712 19.7534C88.712 19.8131 88.5726 19.8463 88.6522 19.8398ZM55.9224 20.3641L55.6101 20.3906C55.5967 20.2646 55.763 19.7866 56.1086 18.9702L56.3146 18.9503C56.3213 19.1427 56.1949 19.614 55.9224 20.3641ZM56.3014 18.8506L56.2947 18.7644C56.2881 18.6583 56.3545 18.5852 56.5008 18.5521L56.5074 18.6382C56.5141 18.7644 56.4475 18.8375 56.3014 18.8506ZM60.4557 22.0566L60.4623 22.1429L59.944 22.1894L59.9373 22.1031L60.4557 22.0566ZM59.8309 22.0036C59.8376 22.1098 59.678 22.2293 59.3324 22.3487L58.6942 22.3023L58.4881 22.3221L58.4683 22.1296L59.8309 22.0036ZM64.0318 2.69478L63.7194 2.72146L63.7127 2.61526C63.706 2.50906 63.766 2.43604 63.8989 2.40287L64.0119 2.3962L64.2246 2.48238C64.2311 2.60859 64.1713 2.68161 64.0318 2.69478ZM68.7843 1.76551L68.884 1.75901L68.8974 1.9514L68.6116 1.9779C68.6049 1.87171 68.658 1.79886 68.7843 1.76551ZM67.5878 2.1838L67.116 2.13062L67.1093 2.04443C67.7276 1.99124 67.9336 1.92489 68.3124 1.81869C68.3191 1.89172 68.3855 1.91822 68.5052 1.90506L68.5184 2.09744L68.3324 2.11745C68.1862 2.13062 68.0598 2.11078 67.9534 2.05092C67.8404 2.12395 67.7209 2.17046 67.5878 2.1838ZM68.1795 3.90297L68.1728 3.81661L68.9373 3.74359L68.944 3.82995L68.1795 3.90297ZM68.997 3.23911L68.9904 3.13291L69.3627 3.09973L69.3694 3.20593L68.997 3.23911ZM69.0835 1.93823L68.9837 1.94473L69.0702 1.739L69.921 1.65931L69.9276 1.76551C69.7083 1.78552 69.4224 1.8452 69.0835 1.93823ZM69.5156 3.77009L69.5022 3.57771L69.8745 3.54453C70.0008 3.53119 70.0672 3.59087 70.0739 3.72375L69.5156 3.77009ZM71.7688 0.703535L71.2903 0.836413L71.2038 0.842908C70.9779 0.862919 70.6854 0.856249 70.3397 0.823073C70.9579 0.783227 71.5496 0.736711 71.7688 0.703535ZM71.2571 2.82766L71.2637 2.91384L70.6056 2.9737L70.5989 2.88734L71.2571 2.82766ZM72.3339 3.33863C72.3272 3.25912 72.2008 3.20593 71.9417 3.17942L71.2836 3.36531L70.7784 3.38515C70.6654 3.30546 70.6056 3.25245 70.5989 3.2126L71.1839 3.24578L72.5 3.03338L73.1713 3.05989L73.178 3.16608C72.8456 3.19926 72.5665 3.25912 72.3339 3.33863ZM79.1071 1.59296C79.1869 1.59963 79.24 1.59963 79.26 1.59963C79.4926 1.37389 79.7519 1.19468 80.0511 1.06864C79.8116 2.11745 79.4395 2.89401 78.9276 3.39849L78.5553 3.17275C78.8679 2.38286 79.054 1.85854 79.1071 1.59296ZM77.9638 3.55103L78.0568 3.54453C77.9306 3.78343 77.8176 3.90946 77.7246 3.91613L77.7046 3.66389C77.7645 3.66389 77.8508 3.62405 77.9638 3.55103ZM77.2261 5.31004C77.4055 4.59316 77.5783 4.18839 77.7378 4.08219L77.7445 4.16838C77.6515 4.83206 77.5052 5.18401 77.3124 5.21051L77.3456 5.62863C77.1862 5.85437 77.113 6.02692 77.1196 6.15962L77.0266 6.16629L76.9735 5.58879C77.0798 5.57562 77.1661 5.48259 77.2261 5.31004ZM76.9403 6.26582C76.9468 6.36534 76.8803 6.59775 76.7474 6.95619L76.6544 6.96286L76.6344 6.71062C76.7608 6.41853 76.8673 6.27249 76.9403 6.26582ZM71.5761 21.811L71.5694 21.738L71.7422 21.7248L71.7623 21.977C71.6691 21.9837 71.6027 21.9305 71.5761 21.811ZM79.24 22.0102C79.2333 21.9504 79.2068 21.9239 79.147 21.9305L78.7149 21.9704L78.7083 21.884H78.7482L79.7717 21.7978L79.7784 21.884C79.4794 21.8974 79.2999 21.9439 79.24 22.0102ZM78.7283 21.7978C78.7682 21.8177 78.7482 21.8377 78.7283 21.8508C78.7083 21.8442 78.6817 21.8243 78.7283 21.7978ZM78.7814 20.603L78.2097 20.6495L78.2031 20.5631L78.7216 20.5168L79.1736 20.4039C79.1802 20.4569 79.2068 20.4769 79.2667 20.4703C79.8051 20.3774 79.7519 20.3507 80.0112 20.3309C80.0975 20.3242 80.1507 20.3774 80.1574 20.4836L78.7814 20.603ZM80.7821 20.4304C80.4631 20.3973 80.4432 20.3707 80.2172 20.3906L80.2105 20.3176L80.7224 20.2712L80.729 20.3442C80.6758 20.3507 80.8686 20.3641 80.7821 20.4304ZM80.822 20.3376L80.8154 20.2645L81.0945 20.2379L81.1012 20.3109L80.822 20.3376ZM81.4403 20.2844L81.4336 20.2114C81.4802 20.2049 81.5466 20.1715 81.6329 20.1052C81.7725 20.092 81.8456 20.1849 81.859 20.2911L81.4403 20.2844ZM82.2313 20.1849L82.2246 20.0985L82.5635 20.072L82.5702 20.1584L82.2313 20.1849ZM82.7031 20.145C82.6966 20.0455 82.7363 19.9858 82.8228 19.9725L82.9358 20.1185C82.9291 20.072 82.949 20.0455 82.9889 20.0388L83.0754 20.1982L82.7031 20.145ZM89.2437 19.3751L89.2504 19.3685V19.3618C89.2504 19.3618 89.2437 19.3685 89.2437 19.3751ZM89.3634 19.2888C89.4165 19.2556 89.4432 19.2224 89.3168 19.2026C89.2571 19.2689 89.3833 19.2888 89.2504 19.2954L89.2571 19.3551C89.2703 19.3419 89.3037 19.3219 89.3302 19.3021L89.2571 19.3618V19.3685L89.1175 19.5477L89.3966 19.4481H89.4299L89.4165 19.2821L89.3634 19.2888ZM89.8486 19.6672L89.7955 19.6737L89.8087 19.8398L90.2008 19.8066C90.1943 19.7004 89.9351 19.6672 89.8486 19.6672Z" fill="#F9DC3E"/>
</svg>
