<svg width="216" height="25" viewBox="0 0 216 25" fill="none" xmlns="http://www.w3.org/2000/svg">
  <path d="M10.6321 2.18182H15.1918V17.3949C15.1918 18.8011 14.8757 20.0227 14.2436 21.0597C13.6186 22.0966 12.7486 22.8956 11.6335 23.4567C10.5185 24.0178 9.2223 24.2983 7.74503 24.2983C6.43111 24.2983 5.23793 24.0675 4.16548 23.6058C3.10014 23.1371 2.25497 22.4268 1.62997 21.4751C1.00497 20.5163 0.696023 19.3125 0.703125 17.8636H5.29474C5.30895 18.4389 5.42614 18.9325 5.64631 19.3445C5.87358 19.7493 6.18253 20.0618 6.57315 20.282C6.97088 20.495 7.43963 20.6016 7.9794 20.6016C8.54759 20.6016 9.02699 20.4808 9.41761 20.2393C9.81534 19.9908 10.1172 19.6286 10.3232 19.1527C10.5291 18.6768 10.6321 18.0909 10.6321 17.3949V2.18182ZM30.0141 17.0327V7.63636H34.5524V24H30.1952V21.0277H30.0247C29.6554 21.9865 29.0411 22.7571 28.1817 23.3395C27.3294 23.9219 26.2889 24.2131 25.0602 24.2131C23.9665 24.2131 23.0041 23.9645 22.1732 23.4673C21.3422 22.9702 20.6923 22.2635 20.2236 21.3473C19.7619 20.4311 19.5276 19.3338 19.5205 18.0554V7.63636H24.0588V17.2457C24.0659 18.2116 24.3251 18.9751 24.8365 19.5362C25.3479 20.0973 26.0332 20.3778 26.8926 20.3778C27.4395 20.3778 27.9509 20.2536 28.4267 20.005C28.9026 19.7493 29.2861 19.3729 29.5773 18.8757C29.8756 18.3786 30.0212 17.7642 30.0141 17.0327ZM43.3209 2.18182V24H38.7826V2.18182H43.3209ZM47.5564 24V7.63636H52.0947V24H47.5564ZM49.8362 5.52699C49.1615 5.52699 48.5827 5.30327 48.0997 4.85582C47.6239 4.40128 47.3859 3.85795 47.3859 3.22585C47.3859 2.60085 47.6239 2.06463 48.0997 1.61719C48.5827 1.16264 49.1615 0.935368 49.8362 0.935368C50.5109 0.935368 51.0862 1.16264 51.5621 1.61719C52.045 2.06463 52.2865 2.60085 52.2865 3.22585C52.2865 3.85795 52.045 4.40128 51.5621 4.85582C51.0862 5.30327 50.5109 5.52699 49.8362 5.52699ZM60.9964 24.3089C59.9524 24.3089 59.022 24.1278 58.2052 23.7656C57.3885 23.3963 56.7422 22.853 56.2663 22.1357C55.7976 21.4112 55.5632 20.5092 55.5632 19.4297C55.5632 18.5206 55.7301 17.7571 56.0639 17.1392C56.3977 16.5213 56.8522 16.0241 57.4275 15.6477C58.0028 15.2713 58.6562 14.9872 59.3878 14.7955C60.1264 14.6037 60.9005 14.4688 61.7102 14.3906C62.6619 14.2912 63.4289 14.1989 64.0113 14.1136C64.5937 14.0213 65.0163 13.8864 65.2791 13.7088C65.5419 13.5312 65.6733 13.2685 65.6733 12.9205V12.8565C65.6733 12.1818 65.4602 11.6598 65.0341 11.2905C64.615 10.9212 64.0184 10.7365 63.2443 10.7365C62.4275 10.7365 61.7777 10.9176 61.2947 11.2798C60.8118 11.6349 60.4922 12.0824 60.3359 12.6222L56.1385 12.2812C56.3515 11.2869 56.7706 10.4276 57.3956 9.70312C58.0206 8.97159 58.8267 8.41051 59.8139 8.01989C60.8082 7.62216 61.9588 7.4233 63.2656 7.4233C64.1747 7.4233 65.0447 7.52983 65.8757 7.7429C66.7137 7.95597 67.4559 8.28622 68.1022 8.73366C68.7556 9.18111 69.2706 9.75639 69.647 10.4595C70.0234 11.1555 70.2116 11.9901 70.2116 12.9631V24H65.9076V21.7308H65.7798C65.517 22.2422 65.1654 22.6932 64.7251 23.0838C64.2848 23.4673 63.7556 23.7692 63.1378 23.9893C62.5199 24.2024 61.8061 24.3089 60.9964 24.3089ZM62.2961 21.1768C62.9637 21.1768 63.5532 21.0455 64.0646 20.7827C64.576 20.5128 64.9772 20.1506 65.2684 19.696C65.5596 19.2415 65.7052 18.7266 65.7052 18.1513V16.4148C65.5632 16.5071 65.3679 16.5923 65.1193 16.6705C64.8778 16.7415 64.6044 16.8089 64.299 16.8729C63.9936 16.9297 63.6882 16.983 63.3828 17.0327C63.0774 17.0753 62.8004 17.1143 62.5518 17.1499C62.0191 17.228 61.5539 17.3523 61.1562 17.5227C60.7585 17.6932 60.4495 17.924 60.2294 18.2152C60.0092 18.4993 59.8991 18.8544 59.8991 19.2805C59.8991 19.8984 60.1228 20.3707 60.5703 20.6974C61.0248 21.017 61.6001 21.1768 62.2961 21.1768Z" fill="#F22225"/>
  <path d="M74.4178 24V2.18182H88.8638V5.98508H79.0307V11.1839H87.905V14.9872H79.0307V24H74.4178ZM98.6737 24.3196C97.0189 24.3196 95.5877 23.968 94.3804 23.2649C93.1801 22.5547 92.2532 21.5675 91.5998 20.3033C90.9464 19.032 90.6197 17.5582 90.6197 15.8821C90.6197 14.1918 90.9464 12.7145 91.5998 11.4503C92.2532 10.179 93.1801 9.19176 94.3804 8.48864C95.5877 7.77841 97.0189 7.4233 98.6737 7.4233C100.329 7.4233 101.756 7.77841 102.956 8.48864C104.164 9.19176 105.094 10.179 105.748 11.4503C106.401 12.7145 106.728 14.1918 106.728 15.8821C106.728 17.5582 106.401 19.032 105.748 20.3033C105.094 21.5675 104.164 22.5547 102.956 23.2649C101.756 23.968 100.329 24.3196 98.6737 24.3196ZM98.695 20.804C99.4478 20.804 100.076 20.5909 100.581 20.1648C101.085 19.7315 101.465 19.142 101.721 18.3963C101.983 17.6506 102.115 16.8018 102.115 15.8501C102.115 14.8984 101.983 14.0497 101.721 13.304C101.465 12.5582 101.085 11.9687 100.581 11.5355C100.076 11.1023 99.4478 10.8857 98.695 10.8857C97.935 10.8857 97.2958 11.1023 96.7774 11.5355C96.266 11.9687 95.8789 12.5582 95.6162 13.304C95.3605 14.0497 95.2326 14.8984 95.2326 15.8501C95.2326 16.8018 95.3605 17.6506 95.6162 18.3963C95.8789 19.142 96.266 19.7315 96.7774 20.1648C97.2958 20.5909 97.935 20.804 98.695 20.804ZM114.391 19.2912L114.402 13.8473H115.062L120.304 7.63636H125.513L118.471 15.8608H117.395L114.391 19.2912ZM110.279 24V2.18182H114.817V24H110.279ZM120.506 24L115.691 16.8729L118.716 13.6662L125.822 24H120.506ZM133.006 24.3089C131.962 24.3089 131.031 24.1278 130.215 23.7656C129.398 23.3963 128.752 22.853 128.276 22.1357C127.807 21.4112 127.573 20.5092 127.573 19.4297C127.573 18.5206 127.739 17.7571 128.073 17.1392C128.407 16.5213 128.862 16.0241 129.437 15.6477C130.012 15.2713 130.666 14.9872 131.397 14.7955C132.136 14.6037 132.91 14.4688 133.72 14.3906C134.671 14.2912 135.438 14.1989 136.021 14.1136C136.603 14.0213 137.026 13.8864 137.288 13.7088C137.551 13.5312 137.683 13.2685 137.683 12.9205V12.8565C137.683 12.1818 137.47 11.6598 137.043 11.2905C136.624 10.9212 136.028 10.7365 135.254 10.7365C134.437 10.7365 133.787 10.9176 133.304 11.2798C132.821 11.6349 132.502 12.0824 132.345 12.6222L128.148 12.2812C128.361 11.2869 128.78 10.4276 129.405 9.70312C130.03 8.97159 130.836 8.41051 131.823 8.01989C132.818 7.62216 133.968 7.4233 135.275 7.4233C136.184 7.4233 137.054 7.52983 137.885 7.7429C138.723 7.95597 139.465 8.28622 140.112 8.73366C140.765 9.18111 141.28 9.75639 141.656 10.4595C142.033 11.1555 142.221 11.9901 142.221 12.9631V24H137.917V21.7308H137.789C137.526 22.2422 137.175 22.6932 136.734 23.0838C136.294 23.4673 135.765 23.7692 135.147 23.9893C134.529 24.2024 133.815 24.3089 133.006 24.3089ZM134.306 21.1768C134.973 21.1768 135.563 21.0455 136.074 20.7827C136.585 20.5128 136.987 20.1506 137.278 19.696C137.569 19.2415 137.715 18.7266 137.715 18.1513V16.4148C137.573 16.5071 137.377 16.5923 137.129 16.6705C136.887 16.7415 136.614 16.8089 136.308 16.8729C136.003 16.9297 135.698 16.983 135.392 17.0327C135.087 17.0753 134.81 17.1143 134.561 17.1499C134.029 17.228 133.563 17.3523 133.166 17.5227C132.768 17.6932 132.459 17.924 132.239 18.2152C132.019 18.4993 131.908 18.8544 131.908 19.2805C131.908 19.8984 132.132 20.3707 132.58 20.6974C133.034 21.017 133.609 21.1768 134.306 21.1768ZM150.88 14.5398V24H146.342V7.63636H150.667V10.5234H150.859C151.221 9.57173 151.828 8.81889 152.681 8.26491C153.533 7.70384 154.566 7.4233 155.781 7.4233C156.917 7.4233 157.908 7.67187 158.753 8.16903C159.598 8.66619 160.255 9.37642 160.724 10.2997C161.193 11.2159 161.427 12.3097 161.427 13.581V24H156.889V14.3906C156.896 13.3892 156.64 12.608 156.122 12.0469C155.603 11.4787 154.89 11.1946 153.98 11.1946C153.37 11.1946 152.83 11.326 152.361 11.5888C151.899 11.8516 151.537 12.2351 151.274 12.7393C151.019 13.2365 150.887 13.8366 150.88 14.5398ZM172.998 24.3196C171.343 24.3196 169.912 23.968 168.704 23.2649C167.504 22.5547 166.577 21.5675 165.924 20.3033C165.27 19.032 164.944 17.5582 164.944 15.8821C164.944 14.1918 165.27 12.7145 165.924 11.4503C166.577 10.179 167.504 9.19176 168.704 8.48864C169.912 7.77841 171.343 7.4233 172.998 7.4233C174.652 7.4233 176.08 7.77841 177.28 8.48864C178.488 9.19176 179.418 10.179 180.071 11.4503C180.725 12.7145 181.051 14.1918 181.051 15.8821C181.051 17.5582 180.725 19.032 180.071 20.3033C179.418 21.5675 178.488 22.5547 177.28 23.2649C176.08 23.968 174.652 24.3196 172.998 24.3196ZM173.019 20.804C173.772 20.804 174.4 20.5909 174.904 20.1648C175.409 19.7315 175.789 19.142 176.044 18.3963C176.307 17.6506 176.439 16.8018 176.439 15.8501C176.439 14.8984 176.307 14.0497 176.044 13.304C175.789 12.5582 175.409 11.9687 174.904 11.5355C174.4 11.1023 173.772 10.8857 173.019 10.8857C172.259 10.8857 171.62 11.1023 171.101 11.5355C170.59 11.9687 170.203 12.5582 169.94 13.304C169.684 14.0497 169.556 14.8984 169.556 15.8501C169.556 16.8018 169.684 17.6506 169.94 18.3963C170.203 19.142 170.59 19.7315 171.101 20.1648C171.62 20.5909 172.259 20.804 173.019 20.804ZM199.331 7.63636L193.61 24H188.496L182.775 7.63636H187.569L190.968 19.3445H191.138L194.526 7.63636H199.331ZM206.48 24.3089C205.436 24.3089 204.506 24.1278 203.689 23.7656C202.872 23.3963 202.226 22.853 201.75 22.1357C201.281 21.4112 201.047 20.5092 201.047 19.4297C201.047 18.5206 201.214 17.7571 201.547 17.1392C201.881 16.5213 202.336 16.0241 202.911 15.6477C203.486 15.2713 204.14 14.9872 204.871 14.7955C205.61 14.6037 206.384 14.4688 207.194 14.3906C208.145 14.2912 208.913 14.1989 209.495 14.1136C210.077 14.0213 210.5 13.8864 210.763 13.7088C211.025 13.5312 211.157 13.2685 211.157 12.9205V12.8565C211.157 12.1818 210.944 11.6598 210.518 11.2905C210.099 10.9212 209.502 10.7365 208.728 10.7365C207.911 10.7365 207.261 10.9176 206.778 11.2798C206.295 11.6349 205.976 12.0824 205.819 12.6222L201.622 12.2812C201.835 11.2869 202.254 10.4276 202.879 9.70312C203.504 8.97159 204.31 8.41051 205.297 8.01989C206.292 7.62216 207.442 7.4233 208.749 7.4233C209.658 7.4233 210.528 7.52983 211.359 7.7429C212.197 7.95597 212.94 8.28622 213.586 8.73366C214.239 9.18111 214.754 9.75639 215.131 10.4595C215.507 11.1555 215.695 11.9901 215.695 12.9631V24H211.391V21.7308H211.263C211.001 22.2422 210.649 22.6932 210.209 23.0838C209.768 23.4673 209.239 23.7692 208.621 23.9893C208.003 24.2024 207.29 24.3089 206.48 24.3089ZM207.78 21.1768C208.447 21.1768 209.037 21.0455 209.548 20.7827C210.06 20.5128 210.461 20.1506 210.752 19.696C211.043 19.2415 211.189 18.7266 211.189 18.1513V16.4148C211.047 16.5071 210.851 16.5923 210.603 16.6705C210.361 16.7415 210.088 16.8089 209.783 16.8729C209.477 16.9297 209.172 16.983 208.866 17.0327C208.561 17.0753 208.284 17.1143 208.035 17.1499C207.503 17.228 207.038 17.3523 206.64 17.5227C206.242 17.6932 205.933 17.924 205.713 18.2152C205.493 18.4993 205.383 18.8544 205.383 19.2805C205.383 19.8984 205.606 20.3707 206.054 20.6974C206.508 21.017 207.084 21.1768 207.78 21.1768Z" fill="white"/>
</svg>
