<svg width="35" height="35" viewBox="0 0 35 35" fill="none" xmlns="http://www.w3.org/2000/svg">
  <path d="M25.8333 6.66666H27.5C27.9667 6.66666 28.3333 7.03332 28.3333 7.49999C28.3333 7.96665 27.9667 8.33332 27.5 8.33332H25.8333C25.3667 8.33332 25 7.96665 25 7.49999C25 7.03332 25.3667 6.66666 25.8333 6.66666Z" fill="#56B3B4"/>
  <path d="M0.833332 33.3334H9.16666C9.63332 33.3334 9.99999 33.7001 9.99999 34.1667C9.99999 34.6334 9.63332 35.0001 9.16666 35.0001H0.833332C0.366666 35.0001 0 34.6334 0 34.1667C0 33.7001 0.366666 33.3334 0.833332 33.3334Z" fill="#EA5E5E"/>
  <path d="M20.8333 20.0001H25.8333C26.2999 20.0001 26.6666 20.3667 26.6666 20.8334C26.6666 21.3 26.2999 21.6666 25.8333 21.6666H20.8333C20.3667 21.6666 20 21.3 20 20.8334C20 20.3667 20.3667 20.0001 20.8333 20.0001Z" fill="#BF85BF"/>
  <path d="M10.8334 20.0001H17.5001C17.9667 20.0001 18.3334 20.3667 18.3334 20.8334C18.3334 21.3 17.9667 21.6666 17.5001 21.6666H10.8334C10.3667 21.6666 10.0001 21.3 10.0001 20.8334C10.0001 20.3667 10.3667 20.0001 10.8334 20.0001Z" fill="#EA5E5E"/>
  <path d="M0.833334 20.0001H7.50001C7.96667 20.0001 8.33334 20.3667 8.33334 20.8334C8.33334 21.3 7.96667 21.6666 7.50001 21.6666H0.833334C0.366667 21.6666 0 21.3 0 20.8334C0 20.3667 0.366667 20.0001 0.833334 20.0001Z" fill="#56B3B4"/>
  <path d="M0.833332 26.6667H9.16666C9.63332 26.6667 9.99999 27.0333 9.99999 27.5C9.99999 27.9667 9.63332 28.3333 9.16666 28.3333H0.833332C0.366666 28.3333 0 27.9667 0 27.5C0 27.0333 0.366666 26.6667 0.833332 26.6667Z" fill="#BF85BF"/>
  <path d="M0.833332 13.3333H9.16666C9.63332 13.3333 9.99999 13.7 9.99999 14.1667C9.99999 14.6333 9.63332 15 9.16666 15H0.833332C0.366666 15 0 14.6333 0 14.1667C0 13.7 0.366666 13.3333 0.833332 13.3333Z" fill="#BF85BF"/>
  <path d="M9.16671 3.33337H25.8334C26.3 3.33337 26.6667 3.70004 26.6667 4.16671C26.6667 4.63338 26.3 5.00005 25.8334 5.00005H9.16671C8.70004 5.00005 8.33337 4.63338 8.33337 4.16671C8.33337 3.70004 8.70004 3.33337 9.16671 3.33337Z" fill="#F7BA3E"/>
  <path d="M0.833333 3.33337H5.83333C6.3 3.33337 6.66666 3.70004 6.66666 4.16671C6.66666 4.63338 6.3 5.00005 5.83333 5.00005H0.833333C0.366667 5.00005 0 4.63338 0 4.16671C0 3.70004 0.366667 3.33337 0.833333 3.33337Z" fill="#EA5E5E"/>
  <path d="M7.50003 30H9.1667C9.63337 30 10 30.3667 10 30.8334C10 31.3 9.63337 31.6667 9.1667 31.6667H7.50003C7.03336 31.6667 6.66669 31.3 6.66669 30.8334C6.66669 30.3667 7.03336 30 7.50003 30Z" fill="#F7BA3E"/>
  <path d="M7.50003 10H9.1667C9.63337 10 10 10.3667 10 10.8333C10 11.3 9.63337 11.6667 9.1667 11.6667H7.50003C7.03336 11.6667 6.66669 11.3 6.66669 10.8333C6.66669 10.3667 7.03336 10 7.50003 10Z" fill="#56B3B4"/>
  <path d="M0.833335 30H4.16667C4.63334 30 5.00001 30.3667 5.00001 30.8334C5.00001 31.3 4.63334 31.6667 4.16667 31.6667H0.833335C0.366667 31.6667 0 31.3 0 30.8334C0 30.3667 0.366667 30 0.833335 30Z" fill="#56B3B4"/>
  <path d="M0.833335 10H4.16667C4.63334 10 5.00001 10.3667 5.00001 10.8333C5.00001 11.3 4.63334 11.6667 4.16667 11.6667H0.833335C0.366667 11.6667 0 11.3 0 10.8333C0 10.3667 0.366667 10 0.833335 10Z" fill="#F7BA3E"/>
  <path opacity="0.5" d="M22.5001 30H24.1667C24.6333 30 25 30.3667 25 30.8334C25 31.3 24.6333 31.6667 24.1667 31.6667H22.5001C22.0334 31.6667 21.6667 31.3 21.6667 30.8334C21.6667 30.3667 22.0334 30 22.5001 30Z" fill="#D0D4D8"/>
  <path opacity="0.5" d="M12.5 30H19.1667C19.6333 30 20 30.3667 20 30.8334C20 31.3 19.6333 31.6667 19.1667 31.6667H12.5C12.0333 31.6667 11.6666 31.3 11.6666 30.8334C11.6666 30.3667 12.0333 30 12.5 30Z" fill="#D0D4D8"/>
  <path opacity="0.5" d="M27.5 30H34.1666C34.6333 30 35 30.3667 35 30.8334C35 31.3 34.6333 31.6667 34.1666 31.6667H27.5C27.0333 31.6667 26.6666 31.3 26.6666 30.8334C26.6666 30.3667 27.0333 30 27.5 30Z" fill="#D0D4D8"/>
  <path d="M14.1666 16.6667H27.5C27.9666 16.6667 28.3333 17.0333 28.3333 17.5C28.3333 17.9667 27.9666 18.3333 27.5 18.3333H14.1666C13.7 18.3333 13.3333 17.9667 13.3333 17.5C13.3333 17.0333 13.7 16.6667 14.1666 16.6667Z" fill="#56B3B4"/>
  <path d="M5.83333 16.6667H10.8333C11.3 16.6667 11.6667 17.0333 11.6667 17.5C11.6667 17.9667 11.3 18.3333 10.8333 18.3333H5.83333C5.36667 18.3333 5 17.9667 5 17.5C5 17.0333 5.36667 16.6667 5.83333 16.6667Z" fill="#F7BA3E"/>
  <path d="M0.833334 16.6667H2.5C2.96667 16.6667 3.33334 17.0333 3.33334 17.5C3.33334 17.9667 2.96667 18.3333 2.5 18.3333H0.833334C0.366667 18.3333 0 17.9667 0 17.5C0 17.0333 0.366667 16.6667 0.833334 16.6667Z" fill="#EA5E5E"/>
  <path d="M15.8333 6.66666H22.5C22.9666 6.66666 23.3333 7.03332 23.3333 7.49999C23.3333 7.96665 22.9666 8.33332 22.5 8.33332H15.8333C15.3667 8.33332 15 7.96665 15 7.49999C15 7.03332 15.3667 6.66666 15.8333 6.66666Z" fill="#BF85BF"/>
  <path d="M0.833332 6.66666H12.5C12.9667 6.66666 13.3333 7.03332 13.3333 7.49999C13.3333 7.96665 12.9667 8.33332 12.5 8.33332H0.833332C0.366666 8.33332 0 7.96665 0 7.49999C0 7.03332 0.366666 6.66666 0.833332 6.66666Z" fill="#56B3B4"/>
  <path d="M5.83334 23.3333H20.8334C21.3 23.3333 21.6667 23.7 21.6667 24.1666C21.6667 24.6333 21.3 25 20.8334 25H5.83334C5.36667 25 5 24.6333 5 24.1666C5 23.7 5.36667 23.3333 5.83334 23.3333Z" fill="#F7BA3E"/>
  <path d="M0.833334 23.3333H2.5C2.96667 23.3333 3.33334 23.7 3.33334 24.1666C3.33334 24.6333 2.96667 25 2.5 25H0.833334C0.366667 25 0 24.6333 0 24.1666C0 23.7 0.366667 23.3333 0.833334 23.3333Z" fill="#BF85BF"/>
  <path d="M20.8333 10H29.1666C29.6333 10 30 10.3667 30 10.8333C30 11.3 29.6333 11.6667 29.1666 11.6667H20.8333C20.3667 11.6667 20 11.3 20 10.8333C20 10.3667 20.3667 10 20.8333 10Z" fill="#EA5E5E"/>
  <path d="M20.8333 13.3333H29.1666C29.6333 13.3333 30 13.7 30 14.1667C30 14.6333 29.6333 15 29.1666 15H20.8333C20.3667 15 20 14.6333 20 14.1667C20 13.7 20.3667 13.3333 20.8333 13.3333Z" fill="#F7BA3E"/>
  <path d="M0.833333 0H20.8333C21.3 0 21.6667 0.366667 21.6667 0.833333C21.6667 1.3 21.3 1.66667 20.8333 1.66667H0.833333C0.366667 1.66667 0 1.3 0 0.833333C0 0.366667 0.366667 0 0.833333 0Z" fill="#56B3B4"/>
  <path opacity="0.5" d="M24.1667 0H34.1667C34.6334 0 35 0.366667 35 0.833333C35 1.3 34.6334 1.66667 34.1667 1.66667H24.1667C23.7 1.66667 23.3334 1.3 23.3334 0.833333C23.3334 0.366667 23.7 0 24.1667 0Z" fill="#D0D4D8"/>
  <path opacity="0.5" d="M24.1667 23.3333H27.5C27.9667 23.3333 28.3334 23.7 28.3334 24.1666C28.3334 24.6333 27.9667 25 27.5 25H24.1667C23.7 25 23.3334 24.6333 23.3334 24.1666C23.3334 23.7 23.7 23.3333 24.1667 23.3333Z" fill="#D0D4D8"/>
  <path opacity="0.5" d="M30.8333 23.3333H34.1667C34.6334 23.3333 35 23.7 35 24.1666C35 24.6333 34.6334 25 34.1667 25H30.8333C30.3667 25 30 24.6333 30 24.1666C30 23.7 30.3667 23.3333 30.8333 23.3333Z" fill="#D0D4D8"/>
  <path opacity="0.5" d="M29.1666 20.0001H34.1667C34.6333 20.0001 35 20.3667 35 20.8334C35 21.3 34.6333 21.6666 34.1667 21.6666H29.1666C28.7 21.6666 28.3333 21.3 28.3333 20.8334C28.3333 20.3667 28.7 20.0001 29.1666 20.0001Z" fill="#D0D4D8"/>
  <path opacity="0.5" d="M29.1666 3.33337H34.1667C34.6333 3.33337 35 3.70004 35 4.16671C35 4.63338 34.6333 5.00005 34.1667 5.00005H29.1666C28.7 5.00005 28.3333 4.63338 28.3333 4.16671C28.3333 3.70004 28.7 3.33337 29.1666 3.33337Z" fill="#D0D4D8"/>
  <path opacity="0.5" d="M30.8333 16.6667H34.1667C34.6334 16.6667 35 17.0333 35 17.5C35 17.9667 34.6334 18.3333 34.1667 18.3333H30.8333C30.3667 18.3333 30 17.9667 30 17.5C30 17.0333 30.3667 16.6667 30.8333 16.6667Z" fill="#D0D4D8"/>
  <path opacity="0.5" d="M30.8333 6.66666H34.1667C34.6334 6.66666 35 7.03332 35 7.49999C35 7.96665 34.6334 8.33332 34.1667 8.33332H30.8333C30.3667 8.33332 30 7.96665 30 7.49999C30 7.03332 30.3667 6.66666 30.8333 6.66666Z" fill="#D0D4D8"/>
  <path opacity="0.5" d="M32.5 10H34.1667C34.6334 10 35 10.3667 35 10.8333C35 11.3 34.6334 11.6667 34.1667 11.6667H32.5C32.0334 11.6667 31.6667 11.3 31.6667 10.8333C31.6667 10.3667 32.0334 10 32.5 10Z" fill="#D0D4D8"/>
  <path opacity="0.5" d="M32.5 13.3333H34.1667C34.6334 13.3333 35 13.7 35 14.1667C35 14.6333 34.6334 15 34.1667 15H32.5C32.0334 15 31.6667 14.6333 31.6667 14.1667C31.6667 13.7 32.0334 13.3333 32.5 13.3333Z" fill="#D0D4D8"/>
  <path opacity="0.5" d="M19.1667 26.6667H34.1667C34.6333 26.6667 35 27.0333 35 27.5C35 27.9667 34.6333 28.3333 34.1667 28.3333H19.1667C18.7 28.3333 18.3334 27.9667 18.3334 27.5C18.3334 27.0333 18.7 26.6667 19.1667 26.6667Z" fill="#D0D4D8"/>
  <path opacity="0.5" d="M12.5 26.6667H15.8333C16.3 26.6667 16.6666 27.0333 16.6666 27.5C16.6666 27.9667 16.3 28.3333 15.8333 28.3333H12.5C12.0333 28.3333 11.6666 27.9667 11.6666 27.5C11.6666 27.0333 12.0333 26.6667 12.5 26.6667Z" fill="#D0D4D8"/>
  <path opacity="0.5" d="M25.8333 33.3334H34.1667C34.6334 33.3334 35 33.7001 35 34.1667C35 34.6334 34.6334 35.0001 34.1667 35.0001H25.8333C25.3667 35.0001 25 34.6334 25 34.1667C25 33.7001 25.3667 33.3334 25.8333 33.3334Z" fill="#D0D4D8"/>
  <path opacity="0.5" d="M12.5 33.3334H22.4999C22.9666 33.3334 23.3333 33.7001 23.3333 34.1667C23.3333 34.6334 22.9666 35.0001 22.4999 35.0001H12.5C12.0333 35.0001 11.6666 34.6334 11.6666 34.1667C11.6666 33.7001 12.0333 33.3334 12.5 33.3334Z" fill="#D0D4D8"/>
  <path opacity="0.5" d="M12.5 10H17.5C17.9667 10 18.3333 10.3667 18.3333 10.8333C18.3333 11.3 17.9667 11.6667 17.5 11.6667H12.5C12.0333 11.6667 11.6666 11.3 11.6666 10.8333C11.6666 10.3667 12.0333 10 12.5 10Z" fill="#D0D4D8"/>
  <path opacity="0.5" d="M12.5 13.3333H17.5C17.9667 13.3333 18.3333 13.7 18.3333 14.1667C18.3333 14.6333 17.9667 15 17.5 15H12.5C12.0333 15 11.6666 14.6333 11.6666 14.1667C11.6666 13.7 12.0333 13.3333 12.5 13.3333Z" fill="#D0D4D8"/>
</svg>
