<svg width="33" height="21" viewBox="0 0 33 21" fill="none" xmlns="http://www.w3.org/2000/svg">
  <path fill-rule="evenodd" clip-rule="evenodd" d="M22.3187 3.88998C19.85 4.08007 17.1635 4.54558 14.418 5.26704C11.6951 5.98101 9.19165 6.88059 7.0149 7.89693C7.03759 7.83256 7.06482 7.77568 7.08599 7.70982C8.19025 4.24921 10.0312 1.92617 13.3379 1.04904C16.6446 0.171908 19.4144 1.27206 22.119 3.72383C22.1856 3.7837 22.2521 3.8331 22.3187 3.88998ZM32.3992 8.72765C32.9937 10.9085 30.9531 13.9859 26.409 16.2192C26.4222 15.9936 26.4028 15.7673 26.3515 15.5471C26.0792 14.5383 25.093 13.3363 21.9587 13.3363C20.4989 13.3363 18.717 13.6057 16.808 14.1102C14.5163 14.7179 12.6073 15.5082 11.2867 16.3943C9.17954 17.8133 9.02525 19.1799 9.26879 20.0764C9.32325 20.2755 9.41552 20.4821 9.53502 20.6856C9.14173 20.7096 8.73633 20.75 8.36572 20.75C3.98348 20.75 1.12754 19.1649 0.585996 17.1622C-0.318588 13.8243 6.01199 9.48653 14.9217 7.14852C18.5204 6.20254 21.9163 5.73703 24.7466 5.73703C28.9185 5.73703 31.8592 6.74888 32.3992 8.72765ZM24.382 16.4512C24.2559 16.6864 24.0913 16.8993 23.8949 17.0813V17.0843C23.0599 17.8731 21.275 18.8491 18.304 19.6364C15.8021 20.301 13.5088 20.4432 12.2261 20.1782C12.0271 20.1397 11.8333 20.079 11.6482 19.9971C11.5877 19.9717 11.5303 19.9477 11.4818 19.9193C11.4379 19.8919 11.3964 19.8608 11.3578 19.8265C11.2698 19.763 11.2037 19.6741 11.1687 19.572C11.0628 19.1813 11.5197 18.5946 12.394 18.0064C13.5164 17.252 15.2651 16.535 17.3148 15.9917C19.0634 15.5276 20.6669 15.2837 21.9587 15.2837C23.3473 15.2837 24.3245 15.586 24.4516 16.053C24.4692 16.1414 24.4629 16.2328 24.4334 16.318C24.4228 16.3614 24.4032 16.4048 24.3835 16.4512H24.382Z" fill="white"/>
</svg>
