<svg width="21" height="21" viewBox="0 0 21 21" fill="none" xmlns="http://www.w3.org/2000/svg">
  <path d="M19.5 12.75C20.0523 12.75 20.5 13.1977 20.5 13.75V17.75C20.5 18.5457 20.1837 19.3085 19.6211 19.8711C19.0585 20.4337 18.2957 20.75 17.5 20.75H3.5C2.70435 20.75 1.94151 20.4337 1.37891 19.8711C0.886708 19.3789 0.582908 18.7335 0.514648 18.0469L0.5 17.75V13.75C0.5 13.1977 0.947715 12.75 1.5 12.75C2.05228 12.75 2.5 13.1977 2.5 13.75V17.75L2.50488 17.8486C2.52757 18.0776 2.62883 18.2929 2.79297 18.457C2.98051 18.6446 3.23478 18.75 3.5 18.75H17.5C17.7652 18.75 18.0195 18.6446 18.207 18.457C18.3946 18.2695 18.5 18.0152 18.5 17.75V13.75C18.5 13.1977 18.9477 12.75 19.5 12.75Z" fill="white"/>
  <path d="M10.5 0.75C11.0523 0.75 11.5 1.19772 11.5 1.75V11.3359L14.793 8.04297L14.8691 7.97461C15.2619 7.65426 15.8409 7.67685 16.207 8.04297C16.5731 8.40908 16.5957 8.98809 16.2754 9.38086L16.207 9.45703L11.207 14.457C11.1592 14.5048 11.1065 14.5476 11.0498 14.585C11.0121 14.6099 10.9727 14.6311 10.9326 14.6504C10.8874 14.6722 10.8407 14.6912 10.792 14.7061C10.7717 14.7122 10.751 14.7168 10.7305 14.7217C10.7191 14.7244 10.7078 14.7272 10.6963 14.7295C10.6859 14.7316 10.6754 14.7326 10.665 14.7344C10.6112 14.7433 10.5563 14.75 10.5 14.75C10.4433 14.75 10.3881 14.7434 10.334 14.7344C10.3236 14.7326 10.3131 14.7316 10.3027 14.7295C10.2912 14.7272 10.2799 14.7244 10.2686 14.7217C10.248 14.7168 10.2273 14.7123 10.207 14.7061C10.1584 14.6912 10.1116 14.6722 10.0664 14.6504C10.0266 14.6312 9.98768 14.6097 9.9502 14.585C9.89354 14.5476 9.84078 14.5048 9.79297 14.457L4.79297 9.45703L4.72461 9.38086C4.40426 8.98809 4.42685 8.40908 4.79297 8.04297C5.15908 7.67685 5.73809 7.65426 6.13086 7.97461L6.20703 8.04297L9.5 11.3359V1.75C9.5 1.19772 9.94771 0.75 10.5 0.75Z" fill="white"/>
</svg>
