<svg width="45" height="45" viewBox="0 0 45 45" fill="none" xmlns="http://www.w3.org/2000/svg">
  <path d="M45 22.5C45 34.9264 34.9264 45 22.5 45C10.0736 45 0 34.9264 0 22.5C0 10.0736 10.0736 0 22.5 0C34.9264 0 45 10.0736 45 22.5Z" fill="#F22225"/>
  <path d="M14.0625 14.25C13.3166 14.25 12.6012 14.5435 12.0738 15.0659C11.5463 15.5883 11.25 16.2969 11.25 17.0357V28.1925C11.2537 28.9289 11.5517 29.6339 12.0787 30.1533C12.6058 30.6727 13.319 30.9643 14.0625 30.9643H21.7969C21.9834 30.9643 22.1622 30.8909 22.2941 30.7603C22.4259 30.6297 22.5 30.4526 22.5 30.2679C22.5 30.0832 22.4259 29.906 22.2941 29.7754C22.1622 29.6448 21.9834 29.5714 21.7969 29.5714H14.0625C13.753 29.5715 13.452 29.4703 13.2064 29.2837C12.9608 29.0971 12.7842 28.8355 12.7041 28.5393L20.6353 23.7047L22.5 24.812L32.3438 18.962V23.3036C32.3438 23.4883 32.4178 23.6654 32.5497 23.796C32.6815 23.9266 32.8604 24 33.0469 24C33.2334 24 33.4122 23.9266 33.5441 23.796C33.6759 23.6654 33.75 23.4883 33.75 23.3036V17.0357C33.75 16.2969 33.4537 15.5883 32.9262 15.0659C32.3988 14.5435 31.6834 14.25 30.9375 14.25H14.0625ZM19.2769 22.8969L12.6562 26.932V18.962L19.2769 22.8969ZM12.6562 17.338V17.0357C12.6562 16.6663 12.8044 16.312 13.0681 16.0508C13.3319 15.7896 13.6895 15.6429 14.0625 15.6429H30.9375C31.3105 15.6429 31.6681 15.7896 31.9319 16.0508C32.1956 16.312 32.3438 16.6663 32.3438 17.0357V17.338L22.5 23.188L12.6562 17.338Z" fill="white"/>
  <path d="M31.2848 31.339C32.7052 31.339 33.5166 30.1453 33.5166 28.5184V28.2259C33.5166 25.9918 31.8375 24 28.8562 24H28.807C25.9031 24 23.9062 25.8943 23.9062 28.7803V29.0784C23.9062 32.1064 25.9284 33.75 28.6284 33.75H28.6903C29.5256 33.75 30.1219 33.6469 30.4298 33.5062V32.4895C30.0853 32.6427 29.4834 32.7402 28.7705 32.7402H28.7086C26.8327 32.7402 25.0931 31.6426 25.0931 29.0421V28.8235C25.0931 26.5155 26.5809 25.0293 28.8056 25.0293H28.8619C31.0205 25.0293 32.355 26.4918 32.355 28.2691V28.4335C32.355 29.7915 31.8994 30.3695 31.4564 30.3695C31.1302 30.3695 30.8798 30.1634 30.8798 29.7845V26.7342H29.6058V27.5267H29.5636C29.4455 27.1116 29.0461 26.6492 28.222 26.6492C27.128 26.6492 26.4516 27.4223 26.4516 28.5992V29.3346C26.4516 30.5771 27.1406 31.332 28.2234 31.332C28.8858 31.332 29.4834 31.0158 29.6494 30.4364H29.7098C29.8758 31.0214 30.5775 31.339 31.2848 31.339ZM27.8353 28.8109C27.8353 28.0504 28.1545 27.7092 28.6411 27.7092C29.0588 27.7092 29.4455 27.9766 29.4455 28.6953V29.2065C29.4455 30.0046 29.0897 30.2428 28.6523 30.2428C28.1545 30.2428 27.8353 29.9433 27.8353 29.1285V28.8109Z" fill="white"/>
</svg>
