<svg width="45" height="45" viewBox="0 0 45 45" fill="none" xmlns="http://www.w3.org/2000/svg">
<path d="M45 22.5C45 34.9264 34.9264 45 22.5 45C10.0736 45 0 34.9264 0 22.5C0 10.0736 10.0736 0 22.5 0C34.9264 0 45 10.0736 45 22.5Z" fill="#F22225"/>
<path fill-rule="evenodd" clip-rule="evenodd" d="M27.4034 11.4667C30.5297 9.3475 31.9034 9.78798 31.9034 9.78798C32.7946 12.0438 32.2339 13.7099 32.0638 14.1225C33.1138 15.2694 33.7498 16.7304 33.7499 18.5184C33.7497 24.8088 29.9181 26.1952 26.2711 26.6007C26.8583 27.1092 27.3815 28.1062 27.3815 29.6337C27.3815 31.825 27.3624 33.5891 27.3624 34.1286C27.3625 34.2741 27.3959 34.4277 27.4708 34.5621C26.0627 34.9811 24.5714 35.2074 23.0272 35.2074C21.648 35.2074 20.311 35.0264 19.0377 34.6896C19.1791 34.5317 19.2412 34.3231 19.2413 34.1286C19.2413 33.7381 19.2263 32.4472 19.2194 31.0788C14.7022 32.0609 13.7181 29.1965 13.7013 29.1466C12.9673 27.2816 11.9139 26.7651 11.8827 26.7501C10.4097 25.7424 11.9666 25.7538 11.994 25.754C13.6386 25.8698 14.5055 27.4423 14.5055 27.4423C15.9662 29.9453 18.3366 29.2222 19.2714 28.8038C19.4183 27.7451 19.843 27.0222 20.3114 26.6132C16.6735 26.1989 12.8489 24.7941 12.8488 18.5184C12.8488 16.7304 13.4892 15.2694 14.537 14.1225C14.3669 13.7099 13.8062 12.0438 14.6952 9.78798C14.711 9.78302 16.0891 9.35973 19.201 11.4667C20.5074 11.1037 21.9086 10.9213 23.3004 10.9152C24.6922 10.9214 26.0946 11.1037 27.4034 11.4667ZM18.8912 29.3121C18.7016 29.3472 18.563 29.4825 18.5865 29.6176C18.6111 29.7479 18.7871 29.8293 18.9769 29.7948C19.17 29.7588 19.3054 29.6232 19.2823 29.4916C19.2576 29.3578 19.0847 29.2787 18.8912 29.3121ZM17.578 29.3048C17.3822 29.308 17.2279 29.4189 17.2279 29.5553C17.2303 29.6879 17.3889 29.7976 17.5846 29.7934C17.779 29.7908 17.936 29.6785 17.9318 29.5436C17.9318 29.4095 17.7725 29.3012 17.578 29.3048ZM16.2889 29.0558C16.1021 28.9975 15.9174 29.0579 15.8788 29.1869C15.8417 29.3164 15.9626 29.4669 16.1476 29.5231C16.3097 29.5706 16.4715 29.532 16.5358 29.4359L16.557 29.3913C16.5955 29.2608 16.4737 29.1118 16.2889 29.0558ZM15.2592 28.6127C15.1181 28.4787 14.9259 28.4513 14.8351 28.5504C14.7452 28.6495 14.7851 28.8367 14.9281 28.9686C15.0507 29.0867 15.2126 29.122 15.3112 29.0624L15.3492 29.0316C15.4449 28.9338 15.4011 28.7445 15.2592 28.6127ZM14.4169 27.5719C14.3142 27.4275 14.1524 27.3645 14.0507 27.4342C13.9481 27.5042 13.9481 27.6791 14.0485 27.8246C14.1371 27.9518 14.2737 28.0178 14.3737 27.9857L14.4139 27.966C14.5164 27.8946 14.5167 27.7199 14.4169 27.5719ZM13.8148 26.7062C13.7075 26.592 13.56 26.558 13.4794 26.63C13.4002 26.7036 13.4199 26.8564 13.527 26.9706C13.6176 27.0704 13.7458 27.109 13.8287 27.0687L13.8617 27.046C13.9429 26.9728 13.9215 26.8215 13.8148 26.7062ZM12.9103 26.0807C12.7917 26.0245 12.6637 26.0476 12.6283 26.1312C12.59 26.2129 12.6562 26.3239 12.7748 26.3773C12.8911 26.4328 13.02 26.4086 13.056 26.3275C13.0972 26.246 13.029 26.1341 12.9103 26.0807Z" fill="white"/>
</svg>
