<svg width="20" height="23" viewBox="0 0 20 23" fill="none" xmlns="http://www.w3.org/2000/svg">
  <path fill-rule="evenodd" clip-rule="evenodd" d="M14.3592 1.71094C17.1378 -0.172438 18.3592 0.218756 18.3592 0.218756C19.1515 2.22415 18.6529 3.70551 18.5018 4.07227C19.435 5.0918 19.9998 6.39108 19.9998 7.98047C19.9996 13.5717 16.594 14.8036 13.3524 15.1641C13.8743 15.6161 14.3397 16.5025 14.3397 17.8604C14.3397 19.8078 14.3221 21.3754 14.3221 21.8555C14.3221 21.985 14.3521 22.1215 14.4188 22.2412C13.167 22.6136 11.8413 22.8145 10.4686 22.8145C9.24235 22.8145 8.05374 22.654 6.92169 22.3545C7.04755 22.2139 7.1033 22.0286 7.10333 21.8555C7.10332 21.5079 7.08996 20.3614 7.0838 19.1455C3.05491 20.0215 2.18764 17.4541 2.17853 17.4268C1.52476 15.7658 0.586306 15.3084 0.562316 15.2969C-0.758597 14.3932 0.661925 14.4121 0.661925 14.4121C2.11617 14.5147 2.8856 15.8981 2.89337 15.9121C4.19191 18.1377 6.29988 17.495 7.13067 17.1231C7.26129 16.182 7.63824 15.5394 8.0545 15.1758C4.82087 14.8075 1.42191 13.5588 1.42169 7.98047C1.42169 6.39096 1.99027 5.09187 2.92169 4.07227C2.77051 3.7055 2.27183 2.22424 3.06232 0.218756C3.07968 0.21334 4.30505 -0.159116 7.0672 1.71094C8.22842 1.38828 9.47447 1.22717 10.7117 1.22169C11.9489 1.2272 13.1958 1.38828 14.3592 1.71094ZM6.79181 17.5742C6.6233 17.6054 6.50046 17.7257 6.5213 17.8457C6.54302 17.9617 6.70006 18.0347 6.86896 18.0039C7.04026 17.9719 7.16062 17.8512 7.14044 17.7344C7.11853 17.6153 6.96391 17.5444 6.79181 17.5742ZM5.62482 17.5674C5.45094 17.5702 5.3145 17.6689 5.31427 17.79C5.31622 17.908 5.45662 18.0057 5.63067 18.002C5.80343 17.9997 5.943 17.9001 5.93927 17.7803C5.93927 17.6611 5.79771 17.5641 5.62482 17.5674ZM4.47931 17.3457C4.31322 17.2939 4.14839 17.3482 4.11407 17.4629C4.08093 17.578 4.18886 17.7118 4.35333 17.7617C4.49728 17.8039 4.64083 17.7698 4.69806 17.6846L4.71759 17.6445C4.75183 17.5286 4.64358 17.3954 4.47931 17.3457ZM3.56329 16.9531C3.43799 16.8341 3.26713 16.8085 3.18634 16.8965C3.10633 16.9845 3.14227 17.1512 3.26935 17.2686C3.3781 17.3734 3.52152 17.405 3.60919 17.3525L3.64337 17.3242C3.72814 17.2372 3.6894 17.0702 3.56329 16.9531ZM2.81427 16.0273C2.72295 15.8991 2.57946 15.8432 2.48907 15.9053C2.39816 15.9676 2.39812 16.1227 2.48712 16.252C2.56607 16.3653 2.6882 16.4244 2.77716 16.3955L2.81232 16.3779C2.9034 16.3144 2.90315 16.1589 2.81427 16.0273ZM2.28009 15.2578C2.18466 15.1562 2.05287 15.1262 1.98126 15.1904C1.91097 15.2559 1.92906 15.3917 2.02423 15.4932C2.10493 15.5819 2.21918 15.6163 2.29278 15.5801L2.3211 15.5606C2.39358 15.4955 2.37503 15.3604 2.28009 15.2578ZM1.4754 14.7012C1.37009 14.6514 1.2558 14.6727 1.22443 14.7471C1.19066 14.8196 1.24999 14.9184 1.35528 14.9658C1.45876 15.0152 1.57332 14.9931 1.60528 14.9209C1.64166 14.8484 1.58097 14.7486 1.4754 14.7012Z" fill="white"/>
</svg>
