<svg width="45" height="45" viewBox="0 0 45 45" fill="none" xmlns="http://www.w3.org/2000/svg">
<path d="M45 22.5C45 34.9264 34.9264 45 22.5 45C10.0736 45 0 34.9264 0 22.5C0 10.0736 10.0736 0 22.5 0C34.9264 0 45 10.0736 45 22.5Z" fill="white"/>
<path fill-rule="evenodd" clip-rule="evenodd" d="M22.5 0C34.9264 0 45 10.0736 45 22.5C45 34.9264 34.9264 45 22.5 45C10.0736 45 0 34.9264 0 22.5C0 10.0736 10.0736 0 22.5 0ZM32.8162 14.0603C31.98 14.0603 31.5972 14.5015 31.3872 14.989C31.37 15.0309 29.7065 19.0691 27.3545 21.6973C26.5895 22.4622 26.2425 22.7065 25.8245 22.7065C25.6164 22.7065 25.3148 22.4626 25.3147 21.769V15.2681C25.3147 14.4339 25.0726 14.0626 24.3772 14.0625H19.2188C18.6975 14.0625 18.3846 14.4506 18.3845 14.8162C18.3845 15.6074 19.5677 15.7912 19.6897 18.0146V22.8472C19.6897 23.9044 19.498 24.0974 19.0818 24.0974C17.9699 24.0972 15.2624 20.0118 13.6575 15.3376C13.3425 14.4303 13.0276 14.0626 12.1897 14.0625H8.90625C7.96884 14.0625 7.78129 14.503 7.78125 14.9905C7.78125 15.8586 8.89294 20.1695 12.9617 25.8713C15.6748 29.7638 19.4962 31.875 22.9724 31.875C25.0591 31.875 25.3161 31.4045 25.3162 30.5984V27.6562C25.3162 26.7188 25.5134 26.5312 26.1753 26.5312C26.661 26.5313 27.4956 26.7751 29.4434 28.6516C31.669 30.8772 32.0365 31.875 33.2871 31.875H36.5684C37.5057 31.8749 37.9759 31.4059 37.7021 30.4797C37.4057 29.5572 36.3427 28.2206 34.9329 26.6345C34.168 25.731 33.0231 24.7579 32.6741 24.2703C32.1866 23.644 32.3253 23.366 32.6741 22.8091C32.71 22.7585 36.6724 17.1708 37.0891 15.2666C37.2991 14.571 37.0893 14.0603 36.0974 14.0603H32.8162Z" fill="#F22225"/>
</svg>
