<svg width="173" height="20" viewBox="0 0 173 20" fill="none" xmlns="http://www.w3.org/2000/svg">
  <path d="M8.50568 1.54545H12.1534V13.7159C12.1534 14.8409 11.9006 15.8182 11.3949 16.6477C10.8949 17.4773 10.1989 18.1165 9.30682 18.5653C8.41477 19.0142 7.37784 19.2386 6.19602 19.2386C5.14489 19.2386 4.19034 19.054 3.33239 18.6847C2.48011 18.3097 1.80398 17.7415 1.30398 16.9801C0.803977 16.2131 0.556818 15.25 0.5625 14.0909H4.2358C4.24716 14.5511 4.34091 14.946 4.51705 15.2756C4.69886 15.5994 4.94602 15.8494 5.25852 16.0256C5.5767 16.196 5.9517 16.2812 6.38352 16.2812C6.83807 16.2812 7.22159 16.1847 7.53409 15.9915C7.85227 15.7926 8.09375 15.5028 8.25852 15.1222C8.4233 14.7415 8.50568 14.2727 8.50568 13.7159V1.54545ZM24.0112 13.4261V5.90909H27.6419V19H24.1561V16.6222H24.0198C23.7243 17.3892 23.2328 18.0057 22.5453 18.4716C21.8635 18.9375 21.0311 19.1705 20.0482 19.1705C19.1732 19.1705 18.4033 18.9716 17.7385 18.5739C17.0737 18.1761 16.5539 17.6108 16.1789 16.8778C15.8095 16.1449 15.622 15.267 15.6164 14.2443V5.90909H19.247V13.5966C19.2527 14.3693 19.4601 14.9801 19.8692 15.429C20.2783 15.8778 20.8266 16.1023 21.5141 16.1023C21.9516 16.1023 22.3607 16.0028 22.7414 15.804C23.122 15.5994 23.4289 15.2983 23.6618 14.9006C23.9005 14.5028 24.0169 14.0114 24.0112 13.4261ZM34.6567 1.54545V19H31.0261V1.54545H34.6567ZM38.0451 19V5.90909H41.6758V19H38.0451ZM39.869 4.22159C39.3292 4.22159 38.8661 4.04261 38.4798 3.68466C38.0991 3.32102 37.9087 2.88636 37.9087 2.38068C37.9087 1.88068 38.0991 1.4517 38.4798 1.09375C38.8661 0.730113 39.3292 0.548295 39.869 0.548295C40.4087 0.548295 40.869 0.730113 41.2497 1.09375C41.636 1.4517 41.8292 1.88068 41.8292 2.38068C41.8292 2.88636 41.636 3.32102 41.2497 3.68466C40.869 4.04261 40.4087 4.22159 39.869 4.22159ZM48.7971 19.2472C47.9619 19.2472 47.2176 19.1023 46.5642 18.8125C45.9108 18.517 45.3937 18.0824 45.013 17.5085C44.638 16.929 44.4505 16.2074 44.4505 15.3438C44.4505 14.6165 44.5841 14.0057 44.8511 13.5114C45.1182 13.017 45.4818 12.6193 45.942 12.3182C46.4022 12.017 46.925 11.7898 47.5102 11.6364C48.1011 11.483 48.7204 11.375 49.3682 11.3125C50.1295 11.233 50.7432 11.1591 51.2091 11.0909C51.675 11.017 52.013 10.9091 52.2233 10.767C52.4335 10.625 52.5386 10.4148 52.5386 10.1364V10.0852C52.5386 9.54545 52.3682 9.12784 52.0272 8.83239C51.692 8.53693 51.2147 8.3892 50.5954 8.3892C49.942 8.3892 49.4221 8.53409 49.0358 8.82386C48.6494 9.10795 48.3937 9.46591 48.2687 9.89773L44.9108 9.625C45.0812 8.82955 45.4164 8.14205 45.9164 7.5625C46.4164 6.97727 47.0613 6.52841 47.8511 6.21591C48.6466 5.89773 49.567 5.73864 50.6125 5.73864C51.3397 5.73864 52.0358 5.82386 52.7005 5.99432C53.371 6.16477 53.9647 6.42898 54.4818 6.78693C55.0045 7.14489 55.4164 7.60511 55.7176 8.16761C56.0187 8.72443 56.1693 9.39205 56.1693 10.1705V19H52.7261V17.1847H52.6238C52.4136 17.5938 52.1324 17.9545 51.7801 18.267C51.4278 18.5739 51.0045 18.8153 50.5102 18.9915C50.0159 19.1619 49.4449 19.2472 48.7971 19.2472ZM49.8369 16.7415C50.371 16.7415 50.8426 16.6364 51.2517 16.4261C51.6608 16.2102 51.9818 15.9205 52.2147 15.5568C52.4477 15.1932 52.5642 14.7812 52.5642 14.321V12.9318C52.4505 13.0057 52.2943 13.0739 52.0954 13.1364C51.9022 13.1932 51.6835 13.2472 51.4392 13.2983C51.1949 13.3437 50.9505 13.3864 50.7062 13.4261C50.4619 13.4602 50.2403 13.4915 50.0414 13.5199C49.6153 13.5824 49.2432 13.6818 48.925 13.8182C48.6068 13.9545 48.3596 14.1392 48.1835 14.3722C48.0074 14.5994 47.9193 14.8835 47.9193 15.2244C47.9193 15.7188 48.0983 16.0966 48.4562 16.358C48.8199 16.6136 49.2801 16.7415 49.8369 16.7415Z" fill="#F22225"/>
  <path d="M59.5342 19V1.54545H71.0911V4.58807H63.2246V8.74716H70.324V11.7898H63.2246V19H59.5342ZM78.9389 19.2557C77.6151 19.2557 76.4702 18.9744 75.5043 18.4119C74.5441 17.8437 73.8026 17.054 73.2799 16.0426C72.7571 15.0256 72.4958 13.8466 72.4958 12.5057C72.4958 11.1534 72.7571 9.97159 73.2799 8.96023C73.8026 7.94318 74.5441 7.15341 75.5043 6.59091C76.4702 6.02273 77.6151 5.73864 78.9389 5.73864C80.2628 5.73864 81.4049 6.02273 82.3651 6.59091C83.331 7.15341 84.0753 7.94318 84.598 8.96023C85.1208 9.97159 85.3821 11.1534 85.3821 12.5057C85.3821 13.8466 85.1208 15.0256 84.598 16.0426C84.0753 17.054 83.331 17.8437 82.3651 18.4119C81.4049 18.9744 80.2628 19.2557 78.9389 19.2557ZM78.956 16.4432C79.5583 16.4432 80.0611 16.2727 80.4645 15.9318C80.8679 15.5852 81.1719 15.1136 81.3764 14.517C81.5867 13.9205 81.6918 13.2415 81.6918 12.4801C81.6918 11.7188 81.5867 11.0398 81.3764 10.4432C81.1719 9.84659 80.8679 9.375 80.4645 9.02841C80.0611 8.68182 79.5583 8.50852 78.956 8.50852C78.348 8.50852 77.8367 8.68182 77.4219 9.02841C77.0128 9.375 76.7032 9.84659 76.4929 10.4432C76.2884 11.0398 76.1861 11.7188 76.1861 12.4801C76.1861 13.2415 76.2884 13.9205 76.4929 14.517C76.7032 15.1136 77.0128 15.5852 77.4219 15.9318C77.8367 16.2727 78.348 16.4432 78.956 16.4432ZM91.5127 15.233L91.5212 10.8778H92.0496L96.2428 5.90909H100.41L94.7769 12.4886H93.9161L91.5127 15.233ZM88.2229 19V1.54545H91.8536V19H88.2229ZM96.4047 19L92.5525 13.2983L94.9729 10.733L100.658 19H96.4047ZM106.405 19.2472C105.569 19.2472 104.825 19.1023 104.172 18.8125C103.518 18.517 103.001 18.0824 102.621 17.5085C102.246 16.929 102.058 16.2074 102.058 15.3438C102.058 14.6165 102.192 14.0057 102.459 13.5114C102.726 13.017 103.089 12.6193 103.55 12.3182C104.01 12.017 104.532 11.7898 105.118 11.6364C105.709 11.483 106.328 11.375 106.976 11.3125C107.737 11.233 108.351 11.1591 108.817 11.0909C109.282 11.017 109.621 10.9091 109.831 10.767C110.041 10.625 110.146 10.4148 110.146 10.1364V10.0852C110.146 9.54545 109.976 9.12784 109.635 8.83239C109.3 8.53693 108.822 8.3892 108.203 8.3892C107.55 8.3892 107.03 8.53409 106.643 8.82386C106.257 9.10795 106.001 9.46591 105.876 9.89773L102.518 9.625C102.689 8.82955 103.024 8.14205 103.524 7.5625C104.024 6.97727 104.669 6.52841 105.459 6.21591C106.254 5.89773 107.175 5.73864 108.22 5.73864C108.947 5.73864 109.643 5.82386 110.308 5.99432C110.978 6.16477 111.572 6.42898 112.089 6.78693C112.612 7.14489 113.024 7.60511 113.325 8.16761C113.626 8.72443 113.777 9.39205 113.777 10.1705V19H110.334V17.1847H110.231C110.021 17.5938 109.74 17.9545 109.388 18.267C109.035 18.5739 108.612 18.8153 108.118 18.9915C107.623 19.1619 107.052 19.2472 106.405 19.2472ZM107.444 16.7415C107.978 16.7415 108.45 16.6364 108.859 16.4261C109.268 16.2102 109.589 15.9205 109.822 15.5568C110.055 15.1932 110.172 14.7812 110.172 14.321V12.9318C110.058 13.0057 109.902 13.0739 109.703 13.1364C109.51 13.1932 109.291 13.2472 109.047 13.2983C108.802 13.3437 108.558 13.3864 108.314 13.4261C108.069 13.4602 107.848 13.4915 107.649 13.5199C107.223 13.5824 106.851 13.6818 106.532 13.8182C106.214 13.9545 105.967 14.1392 105.791 14.3722C105.615 14.5994 105.527 14.8835 105.527 15.2244C105.527 15.7188 105.706 16.0966 106.064 16.358C106.427 16.6136 106.888 16.7415 107.444 16.7415ZM120.704 11.4318V19H117.074V5.90909H120.534V8.21875H120.687C120.977 7.45739 121.463 6.85511 122.145 6.41193C122.826 5.96307 123.653 5.73864 124.625 5.73864C125.534 5.73864 126.326 5.9375 127.003 6.33523C127.679 6.73295 128.204 7.30114 128.579 8.03977C128.954 8.77273 129.142 9.64773 129.142 10.6648V19H125.511V11.3125C125.517 10.5114 125.312 9.88636 124.897 9.4375C124.483 8.98295 123.912 8.75568 123.184 8.75568C122.696 8.75568 122.264 8.8608 121.889 9.07102C121.52 9.28125 121.23 9.58807 121.02 9.99148C120.815 10.3892 120.71 10.8693 120.704 11.4318ZM138.398 19.2557C137.074 19.2557 135.929 18.9744 134.963 18.4119C134.003 17.8437 133.262 17.054 132.739 16.0426C132.216 15.0256 131.955 13.8466 131.955 12.5057C131.955 11.1534 132.216 9.97159 132.739 8.96023C133.262 7.94318 134.003 7.15341 134.963 6.59091C135.929 6.02273 137.074 5.73864 138.398 5.73864C139.722 5.73864 140.864 6.02273 141.824 6.59091C142.79 7.15341 143.534 7.94318 144.057 8.96023C144.58 9.97159 144.841 11.1534 144.841 12.5057C144.841 13.8466 144.58 15.0256 144.057 16.0426C143.534 17.054 142.79 17.8437 141.824 18.4119C140.864 18.9744 139.722 19.2557 138.398 19.2557ZM138.415 16.4432C139.017 16.4432 139.52 16.2727 139.924 15.9318C140.327 15.5852 140.631 15.1136 140.836 14.517C141.046 13.9205 141.151 13.2415 141.151 12.4801C141.151 11.7188 141.046 11.0398 140.836 10.4432C140.631 9.84659 140.327 9.375 139.924 9.02841C139.52 8.68182 139.017 8.50852 138.415 8.50852C137.807 8.50852 137.296 8.68182 136.881 9.02841C136.472 9.375 136.162 9.84659 135.952 10.4432C135.747 11.0398 135.645 11.7188 135.645 12.4801C135.645 13.2415 135.747 13.9205 135.952 14.517C136.162 15.1136 136.472 15.5852 136.881 15.9318C137.296 16.2727 137.807 16.4432 138.415 16.4432ZM159.465 5.90909L154.888 19H150.797L146.22 5.90909H150.056L152.774 15.2756H152.911L155.621 5.90909H159.465ZM165.184 19.2472C164.349 19.2472 163.604 19.1023 162.951 18.8125C162.298 18.517 161.781 18.0824 161.4 17.5085C161.025 16.929 160.837 16.2074 160.837 15.3438C160.837 14.6165 160.971 14.0057 161.238 13.5114C161.505 13.017 161.869 12.6193 162.329 12.3182C162.789 12.017 163.312 11.7898 163.897 11.6364C164.488 11.483 165.107 11.375 165.755 11.3125C166.516 11.233 167.13 11.1591 167.596 11.0909C168.062 11.017 168.4 10.9091 168.61 10.767C168.82 10.625 168.925 10.4148 168.925 10.1364V10.0852C168.925 9.54545 168.755 9.12784 168.414 8.83239C168.079 8.53693 167.602 8.3892 166.982 8.3892C166.329 8.3892 165.809 8.53409 165.423 8.82386C165.036 9.10795 164.781 9.46591 164.656 9.89773L161.298 9.625C161.468 8.82955 161.803 8.14205 162.303 7.5625C162.803 6.97727 163.448 6.52841 164.238 6.21591C165.033 5.89773 165.954 5.73864 166.999 5.73864C167.727 5.73864 168.423 5.82386 169.087 5.99432C169.758 6.16477 170.352 6.42898 170.869 6.78693C171.391 7.14489 171.803 7.60511 172.104 8.16761C172.406 8.72443 172.556 9.39205 172.556 10.1705V19H169.113V17.1847H169.011C168.8 17.5938 168.519 17.9545 168.167 18.267C167.815 18.5739 167.391 18.8153 166.897 18.9915C166.403 19.1619 165.832 19.2472 165.184 19.2472ZM166.224 16.7415C166.758 16.7415 167.229 16.6364 167.639 16.4261C168.048 16.2102 168.369 15.9205 168.602 15.5568C168.835 15.1932 168.951 14.7812 168.951 14.321V12.9318C168.837 13.0057 168.681 13.0739 168.482 13.1364C168.289 13.1932 168.07 13.2472 167.826 13.2983C167.582 13.3437 167.337 13.3864 167.093 13.4261C166.849 13.4602 166.627 13.4915 166.428 13.5199C166.002 13.5824 165.63 13.6818 165.312 13.8182C164.994 13.9545 164.747 14.1392 164.57 14.3722C164.394 14.5994 164.306 14.8835 164.306 15.2244C164.306 15.7188 164.485 16.0966 164.843 16.358C165.207 16.6136 165.667 16.7415 166.224 16.7415Z" fill="#0F172A"/>
</svg>
